<?xml version="1.0" encoding="UTF-8" standalone="no"?><!DOCTYPE svg PUBLIC "-//W3C//DTD SVG 1.1//EN" "http://www.w3.org/Graphics/SVG/1.1/DTD/svg11.dtd"><svg width="100%" height="100%" viewBox="0 0 1500 1500" version="1.1" xmlns="http://www.w3.org/2000/svg" xmlns:xlink="http://www.w3.org/1999/xlink" xml:space="preserve" xmlns:serif="http://www.serif.com/" style="fill-rule:evenodd;clip-rule:evenodd;stroke-linejoin:round;stroke-miterlimit:2;"><g id="apple-tv" serif:id="apple tv"><path id="border" d="M1500,375l0,750c0,206.968 -168.032,375 -375,375l-750,0c-206.968,0 -375,-168.032 -375,-375l0,-750c0,-206.968 168.032,-375 375,-375l750,0c206.968,0 375,168.032 375,375Zm-35.971,-0c-0,-187.115 -151.914,-339.029 -339.029,-339.029l-750,0c-187.115,0 -339.029,151.914 -339.029,339.029l0,750c0,187.115 151.914,339.029 339.029,339.029l750,-0c187.115,-0 339.029,-151.914 339.029,-339.029l-0,-750Z" style="fill:#fff;"/><path id="apple-tv1" serif:id="apple tv" d="M330.402,972.821c-22.74,-4.134 -43.412,-21.362 -71.665,-57.883c-19.984,-27.564 -32.387,-49.615 -44.791,-80.624c-26.874,-68.22 -31.009,-138.507 -11.025,-189.499c7.58,-19.984 17.916,-36.522 32.387,-50.993c12.404,-13.092 23.429,-20.672 39.967,-28.941c19.295,-9.648 39.967,-14.471 60.64,-13.782c15.16,0.689 26.185,3.445 57.194,14.471c13.093,4.823 24.118,8.269 30.32,9.647c6.891,1.378 8.958,0.689 55.127,-15.16c29.631,-10.336 49.615,-12.404 77.178,-7.58c19.295,2.756 38.589,10.336 53.06,19.984c6.202,4.134 16.538,12.403 21.362,17.227c3.445,4.134 11.714,14.471 11.714,15.16c0,-0 -2.756,2.067 -5.512,4.134c-24.808,16.538 -42.035,37.9 -50.304,62.707c-4.134,14.471 -4.823,19.295 -4.823,38.589c-0,15.16 -0,17.917 1.378,24.807c4.823,25.497 15.849,44.791 34.454,63.397c10.336,10.336 22.74,18.605 34.455,24.807l5.512,2.067l-0.689,1.378c0,1.378 -2.067,6.202 -4.134,11.715c-10.337,26.874 -22.74,49.614 -40.657,75.11c-22.05,29.631 -36.521,44.102 -54.438,53.06c-10.336,4.824 -16.538,5.513 -28.252,5.513c-12.404,0 -21.362,-1.378 -35.833,-6.891c-19.294,-7.58 -26.185,-9.647 -33.765,-11.025c-24.807,-5.513 -45.48,-3.446 -75.111,8.269c-11.714,4.134 -21.362,7.58 -28.942,8.958c-6.891,1.378 -19.983,2.067 -24.807,1.378Zm514.75,0c-18.606,-1.378 -34.455,-4.823 -46.859,-11.025c-25.496,-12.404 -38.588,-35.144 -42.034,-71.666c-0.689,-4.134 -0.689,-51.681 -0.689,-130.926l-0,-124.036l-55.816,-0l-0,-62.018l55.816,-0l-0,-90.96l78.556,-0l0,90.96l73.044,-0l-0,62.018l-73.044,-0l0,119.212c0.689,119.901 0.689,119.901 2.067,125.414c4.135,15.16 12.404,24.118 28.253,28.253c4.824,1.378 23.429,1.378 35.833,0.689l6.891,-0.689l-0,31.009l-0.69,31.009l-3.445,0.689c-11.715,2.067 -41.345,3.445 -57.883,2.067Zm241.87,-4.134c-0.689,-0.689 -26.875,-77.178 -58.573,-168.827c-32.387,-91.649 -63.396,-180.541 -68.909,-196.39l-10.336,-29.631l84.069,-0l4.823,17.227c2.757,9.647 24.808,82.001 48.237,160.558l42.723,142.641l2.067,0l1.379,-4.824c0.689,-2.756 22.74,-75.11 48.236,-159.868l46.858,-155.045l40.656,-0.689l41.345,-0l-3.445,10.336c-2.067,6.202 -33.076,95.094 -68.909,198.458l-64.774,188.121l-84.758,-0l-0.689,-2.067Zm-661.526,-420.345l-1.378,0l0,-9.647c0,-17.227 3.446,-32.387 11.715,-48.236c11.025,-22.74 26.874,-40.656 46.858,-53.06c16.538,-10.336 35.832,-17.227 52.371,-19.294l4.823,-0.689l0,5.512c1.378,11.026 -1.378,28.253 -5.513,40.656c-12.403,37.9 -48.236,73.733 -82.001,82.002c-9.647,2.756 -22.74,4.135 -26.875,2.756Z" style="fill:#fff;fill-rule:nonzero;"/></g></svg>