<?xml version="1.0" encoding="UTF-8" standalone="no"?><!DOCTYPE svg PUBLIC "-//W3C//DTD SVG 1.1//EN" "http://www.w3.org/Graphics/SVG/1.1/DTD/svg11.dtd"><svg width="100%" height="100%" viewBox="0 0 1500 1500" version="1.1" xmlns="http://www.w3.org/2000/svg" xmlns:xlink="http://www.w3.org/1999/xlink" xml:space="preserve" xmlns:serif="http://www.serif.com/" style="fill-rule:evenodd;clip-rule:evenodd;stroke-linejoin:round;stroke-miterlimit:2;"><g id="_--more" serif:id="+ more"><path id="border" d="M1500,375l0,750c0,206.968 -168.032,375 -375,375l-750,0c-206.968,0 -375,-168.032 -375,-375l0,-750c0,-206.968 168.032,-375 375,-375l750,0c206.968,0 375,168.032 375,375Zm-35.971,-0c-0,-187.115 -151.914,-339.029 -339.029,-339.029l-750,0c-187.115,0 -339.029,151.914 -339.029,339.029l0,750c0,187.115 151.914,339.029 339.029,339.029l750,-0c187.115,-0 339.029,-151.914 339.029,-339.029l-0,-750Z" style="fill:#fff;"/><path id="_--more..." serif:id="+ more..." d="M770.208,573.01l-0,59.035l-40.416,0l0,-59.035l-55.571,-0l-0,-39.261l55.571,-0l0,-57.592l40.416,-0l-0,57.592l55.571,-0l0,39.261l-55.571,-0Zm-481.161,357.677l-0,-154.157l44.89,0l-0,24.105l2.309,0c3.753,-11.691 16.6,-26.414 41.282,-26.414c23.528,-0 37.529,11.259 42.436,27.425l1.877,-0c4.474,-12.847 20.352,-27.425 46.622,-27.425c31.322,-0 49.22,20.641 49.22,50.808l0,105.658l-46.333,-0l-0,-91.657c-0,-19.486 -9.96,-27.136 -22.662,-27.136c-14.145,-0 -23.239,9.382 -23.239,28.146l0,90.647l-44.168,-0l-0,-90.791c-0,-21.218 -10.826,-28.002 -22.95,-28.002c-12.558,-0 -23.095,7.794 -23.095,27.858l-0,90.935l-46.189,-0Zm328.52,-157.043c46.767,-0 73.181,31.033 73.181,74.335l-0,9.96c-0,46.766 -26.414,75.634 -73.181,75.634c-46.911,0 -73.325,-28.868 -73.325,-75.49l-0,-9.815c-0,-43.302 26.559,-74.624 73.325,-74.624Zm0,34.641c-19.486,0 -26.414,18.332 -26.414,39.261l-0,11.836c-0,19.919 6.639,39.55 26.414,39.55c19.63,-0 26.27,-19.486 26.27,-39.55l0,-11.836c0,-21.218 -7.073,-39.261 -26.27,-39.261Zm100.317,122.402l0,-154.157l46.334,0l-0,22.662l2.165,-0c2.887,-10.248 14.289,-24.827 34.786,-24.827c6.495,0 10.825,0.433 13.857,1.299l-0,39.261c-3.32,-1.155 -10.104,-1.732 -16.888,-1.732c-23.672,0 -32.621,13.712 -32.621,34.353l-0,83.141l-47.633,-0Zm183.891,2.886c-43.303,0 -73.037,-25.404 -73.037,-74.48l0,-12.269c0,-47.921 30.745,-73.18 71.305,-73.18c43.013,-0 70.727,28.435 70.727,73.902l-0,15.445l-96.853,-0l-0,5.196c-0,19.63 12.124,31.322 28.002,31.322c13.712,-0 23.961,-6.784 25.837,-18.187l42.003,-0c-2.309,24.249 -22.228,52.251 -67.984,52.251Zm-27.858,-97.141l52.54,-0l-0,-0.144c-0,-17.033 -10.248,-29.59 -25.981,-29.59c-15.878,-0 -26.559,12.557 -26.559,29.59l-0,0.144Zm121.968,71.593c-0,-14.29 11.692,-25.981 25.981,-25.981c14.29,-0 25.982,11.691 25.982,25.981c-0,14.29 -11.692,25.981 -25.982,25.981c-14.289,0 -25.981,-11.691 -25.981,-25.981Zm81.553,0c-0,-14.29 11.691,-25.981 25.981,-25.981c14.29,-0 25.981,11.691 25.981,25.981c0,14.29 -11.691,25.981 -25.981,25.981c-14.29,0 -25.981,-11.691 -25.981,-25.981Zm81.552,0c0,-14.29 11.692,-25.981 25.982,-25.981c14.29,-0 25.981,11.691 25.981,25.981c0,14.29 -11.691,25.981 -25.981,25.981c-14.29,0 -25.982,-11.691 -25.982,-25.981Z" style="fill:#fff;"/></g></svg>