<?xml version="1.0" encoding="UTF-8" standalone="no"?><!DOCTYPE svg PUBLIC "-//W3C//DTD SVG 1.1//EN" "http://www.w3.org/Graphics/SVG/1.1/DTD/svg11.dtd"><svg width="100%" height="100%" viewBox="0 0 1500 1500" version="1.1" xmlns="http://www.w3.org/2000/svg" xmlns:xlink="http://www.w3.org/1999/xlink" xml:space="preserve" xmlns:serif="http://www.serif.com/" style="fill-rule:evenodd;clip-rule:evenodd;stroke-linejoin:round;stroke-miterlimit:2;"><g id="redbox"><path id="border" d="M1500,375l0,750c0,206.968 -168.032,375 -375,375l-750,0c-206.968,0 -375,-168.032 -375,-375l0,-750c0,-206.968 168.032,-375 375,-375l750,0c206.968,0 375,168.032 375,375Zm-35.971,-0c-0,-187.115 -151.914,-339.029 -339.029,-339.029l-750,0c-187.115,0 -339.029,151.914 -339.029,339.029l0,750c0,187.115 151.914,339.029 339.029,339.029l750,-0c187.115,-0 339.029,-151.914 339.029,-339.029l-0,-750Z" style="fill:#fff;"/><path id="redbox1" serif:id="redbox" d="M433.89,846.461c-28.006,-3.055 -51.938,-16.804 -65.687,-37.681c-13.239,-19.35 -16.804,-49.902 -9.166,-74.344c2.037,-6.111 5.602,-13.749 8.657,-18.331l2.546,-3.565l-0,-0.509c-0.509,-0.509 -15.785,1.018 -20.368,2.037c-10.694,1.527 -16.295,4.073 -21.896,9.675c-5.601,6.11 -8.147,12.221 -9.675,22.914c-2.037,14.258 -2.546,20.368 -3.055,41.245c-0,20.878 -0,20.878 1.018,22.915c1.528,3.055 3.565,4.582 8.148,5.092c4.073,-0 6.619,1.527 8.147,3.564c1.018,1.528 1.018,2.546 1.018,10.184c0,8.147 0,8.657 -1.018,10.184c-1.019,1.019 -2.546,2.546 -3.565,3.055c-2.036,1.019 -2.036,1.019 -30.043,1.019c-27.497,-0 -28.006,-0 -30.552,-1.019c-4.074,-2.036 -4.074,-3.055 -4.583,-12.73c0,-8.147 0,-8.656 1.019,-10.184c2.036,-3.055 3.564,-3.564 8.656,-4.073c5.092,-0.51 7.129,-1.528 9.166,-4.583c1.018,-1.528 1.018,-1.528 1.018,-48.884c0,-46.337 -0.509,-46.847 -1.527,-48.374c-2.037,-2.546 -3.565,-3.055 -8.148,-3.565c-5.092,-0.509 -7.129,-1.527 -8.656,-3.564c-1.019,-1.528 -1.528,-2.546 -1.528,-10.184c0,-8.147 0,-8.657 1.019,-10.184c0.509,-1.019 2.036,-2.037 2.546,-2.546c1.527,-1.019 2.036,-1.528 18.331,-1.528c18.841,0 19.35,0 21.896,3.565c1.527,2.036 1.527,2.036 1.527,14.766l0.51,12.731l0.509,0.509l1.018,-0l0.509,-1.019c0.51,-0.509 2.546,-3.564 4.074,-6.619c7.129,-11.712 17.313,-20.368 29.025,-23.424c5.092,-1.527 14.767,-2.546 24.951,-2.546c11.202,-0.509 10.693,-1.018 11.202,11.203l0,8.147l0.509,0c0,0 1.528,-1.018 3.056,-2.546c10.184,-8.656 21.895,-14.767 34.116,-17.822c12.73,-3.055 30.043,-4.074 41.755,-1.528c18.331,4.074 35.135,13.749 46.847,27.497c5.601,6.111 8.656,10.694 12.221,18.332l3.564,7.128l1.019,-2.546c1.018,-3.564 4.582,-9.674 7.129,-13.239c11.711,-18.331 30.552,-31.061 52.957,-36.663c5.601,-1.018 6.619,-1.018 17.822,-1.018c10.693,0 12.73,0 17.313,1.018c13.239,3.056 24.442,8.148 34.626,15.786c2.037,1.527 3.564,2.546 3.564,2.546l0.509,-0l0,-43.283c0,-42.773 0.51,-43.282 1.528,-44.81c2.546,-3.055 2.546,-3.055 16.295,-3.564l12.73,0l-0,238.308l-12.221,-0c-12.221,-0 -12.73,-0 -14.258,-1.019c-3.564,-2.546 -3.564,-3.564 -4.074,-10.184l0,-5.601l-0.509,-0c0,-0 -1.018,1.018 -2.037,1.528c-16.294,13.239 -39.718,20.368 -60.086,18.331c-21.896,-2.037 -40.227,-10.693 -54.994,-26.479c-12.221,-12.73 -20.368,-30.552 -22.914,-47.356l-0,-3.055l-61.105,0c-61.104,0.509 -61.104,0.509 -62.632,1.528c-2.546,3.055 -2.546,5.601 1.528,15.276c4.074,9.675 8.147,15.276 15.785,21.386c9.675,8.148 20.368,11.712 33.608,11.712c9.675,0 16.294,-1.528 28.006,-8.147c5.601,-2.546 12.73,-7.638 17.822,-11.712c4.074,-3.564 8.657,-4.583 12.73,-3.564c3.565,0.509 15.786,6.11 17.313,7.638c1.019,1.527 1.528,2.037 1.528,4.073c-0,1.528 -0.509,2.546 -2.546,5.092c-4.583,5.602 -14.767,14.767 -20.878,18.841c-9.165,6.62 -21.895,11.202 -36.153,13.748c-7.129,1.019 -22.405,1.528 -28.516,1.019Zm173.639,-30.552c20.878,-2.037 37.172,-14.767 45.319,-34.117c7.129,-16.804 4.074,-37.681 -7.129,-52.448c-7.128,-9.675 -17.822,-16.804 -29.533,-20.368c-5.092,-1.019 -6.111,-1.019 -13.749,-1.019c-8.147,0 -9.166,0 -13.748,1.019c-18.841,5.092 -33.608,19.349 -39.209,38.19c-1.019,4.583 -1.019,5.092 -1.019,14.767c0,9.675 0,10.184 1.528,15.276c4.074,12.73 11.712,22.914 21.896,30.043c8.656,5.601 17.313,8.147 29.534,9.166c0.509,-0 3.564,-0.509 6.11,-0.509Zm-119.663,-69.761c1.528,-1.019 3.055,-3.056 3.055,-4.583c0,-3.565 -5.092,-14.258 -8.147,-17.822c-6.11,-6.111 -16.804,-12.73 -25.969,-15.276c-4.583,-1.019 -6.111,-1.019 -13.24,-1.019c-7.638,0 -9.165,0 -13.239,1.019c-9.675,2.546 -17.313,7.128 -24.442,13.239c-7.129,7.129 -13.239,16.804 -12.73,20.368c0.509,2.037 2.546,4.074 4.583,4.583c1.018,-0 21.387,0.509 45.319,0.509c36.663,0 43.792,-0.509 44.81,-1.018Zm296.866,100.313c-4.583,-0.509 -14.257,-2.037 -18.84,-3.565c-9.166,-3.055 -19.35,-8.147 -26.479,-14.257c-1.528,-1.019 -3.055,-2.037 -3.055,-2.037l-0.509,-0l-0,5.601c-0,4.583 -0,5.601 -1.019,7.129c-2.037,4.074 -3.055,4.074 -17.313,4.074l-12.221,-0l0,-238.308l12.221,0c11.712,0 12.221,0 14.258,1.018c1.528,1.019 2.546,2.037 3.055,3.056c1.019,2.036 1.019,3.564 1.019,44.81l-0,42.773l0.509,-0c-0,-0 1.018,-0.509 2.546,-1.528c10.693,-9.165 26.478,-15.785 41.245,-17.822c5.092,-0.509 18.332,-0.509 23.424,0c32.589,4.583 59.577,27.497 69.252,58.049c1.018,2.546 1.527,6.111 2.036,7.129l0.51,2.546l1.527,-6.11c7.129,-24.442 23.424,-43.792 46.338,-54.485c10.693,-5.092 20.368,-7.638 33.098,-8.147c12.73,-0.51 21.896,1.018 33.608,5.601c22.405,8.147 40.227,25.969 48.883,47.865c13.24,32.589 5.092,69.252 -20.877,93.694c-11.712,11.202 -25.97,18.331 -42.264,21.895c-8.657,1.528 -22.405,2.037 -31.062,0c-33.098,-6.11 -58.558,-29.533 -67.724,-61.613l-1.527,-5.092l-0.51,2.037c0,1.018 -0.509,3.055 -1.018,4.073c-2.546,10.184 -9.166,22.405 -16.804,32.08c-17.822,20.368 -45.828,32.08 -72.307,29.534Zm17.822,-31.571c10.184,-1.527 20.878,-7.638 29.025,-15.785c6.62,-7.129 10.693,-14.767 13.239,-24.442c1.019,-4.583 1.019,-6.11 1.019,-13.239c-0,-6.62 -0,-8.657 -1.019,-12.73c-5.601,-19.859 -20.368,-34.626 -39.718,-39.718c-4.073,-1.019 -6.11,-1.019 -13.239,-1.019c-8.147,0 -9.675,0 -13.748,1.019c-9.675,2.546 -17.823,7.129 -24.951,14.257c-7.129,7.638 -11.203,14.767 -13.749,24.442c-2.037,6.111 -2.546,15.276 -1.528,21.896c2.037,13.239 9.166,25.969 19.35,34.117c12.73,10.693 28.006,14.257 45.319,11.202Zm167.019,0c30.553,-5.601 50.412,-35.644 43.283,-65.178c-2.546,-11.202 -7.638,-19.859 -15.786,-28.006c-7.128,-6.111 -14.257,-10.184 -23.932,-13.239c-5.092,-1.019 -6.111,-1.019 -13.749,-1.019c-7.638,0 -9.165,0 -13.239,1.019c-12.221,3.564 -22.405,10.184 -29.534,18.84c-16.804,21.387 -15.785,51.43 3.055,71.289c7.638,8.656 18.841,14.767 29.534,16.294c5.092,1.019 15.276,1.019 20.368,0Zm268.86,31.571c-10.693,-3.055 -18.331,-10.693 -20.877,-20.878c-4.074,-14.766 6.11,-30.552 20.877,-34.116c3.565,-1.019 10.694,-0.509 14.258,0.509c9.675,3.055 17.313,11.203 19.35,20.368c0.509,1.528 0.509,4.583 0.509,6.62c-0,15.276 -11.712,26.988 -26.479,28.006c-3.055,0 -5.601,-0.509 -7.638,-0.509Zm-200.117,-4.074c-1.018,-0.509 -2.546,-2.037 -3.055,-3.055c-1.019,-1.528 -1.019,-2.037 -1.019,-10.184c0,-7.638 0,-8.657 1.019,-10.184c2.037,-3.055 3.055,-3.055 10.693,-3.565c11.712,-0.509 12.73,-1.018 26.479,-15.785c2.036,-3.055 5.601,-6.62 7.129,-8.147c1.018,-1.528 7.128,-7.638 12.22,-13.749c11.712,-13.239 11.712,-12.73 7.638,-17.313c-1.018,-1.018 -11.202,-12.221 -21.895,-23.932c-10.694,-11.712 -20.878,-22.405 -22.405,-23.933c-2.546,-2.546 -3.565,-3.055 -8.657,-3.055c-2.546,-0 -3.564,-0.509 -5.092,-1.018c-3.055,-2.037 -3.564,-3.565 -3.055,-12.731c-0,-8.656 -0,-9.674 2.546,-12.221c2.546,-2.036 4.074,-2.036 34.117,-2.036c32.08,0.509 30.552,-0 33.098,3.564c1.018,1.528 1.528,2.546 1.528,9.675c-0,9.166 -0,10.184 -2.546,12.73c-1.528,1.019 -2.546,1.528 -5.092,2.037c-2.037,0.509 -3.056,1.018 -4.074,1.528c-1.019,2.036 -0.509,3.564 9.166,13.748c1.527,1.018 4.073,4.583 6.619,7.129c2.546,2.037 4.583,4.583 5.601,5.092c1.528,1.018 5.093,1.528 7.129,0.509c1.528,-1.018 20.368,-21.896 20.878,-23.932c0.509,-1.019 0.509,-1.528 -0,-2.546c-0.51,-0.51 -1.019,-1.019 -1.528,-1.019c-2.037,0 -6.62,-1.018 -7.638,-2.037c-2.546,-2.037 -3.055,-3.564 -3.055,-12.73c-0,-7.638 -0,-8.147 1.018,-9.675c0.509,-1.018 2.037,-2.037 3.055,-2.546c1.528,-1.018 2.546,-1.018 30.043,-1.018c31.062,-0 29.534,-0.509 32.08,3.055c1.019,1.528 1.528,2.546 1.528,10.184c-0,8.147 -0,8.657 -1.018,10.184c-2.037,3.056 -4.074,4.074 -8.657,4.074c-4.583,0.509 -9.166,2.546 -12.221,4.583c-1.527,1.527 -6.619,7.129 -15.785,17.822c-3.055,3.564 -9.166,10.184 -13.749,15.276c-10.184,11.203 -10.184,11.712 -10.184,12.73c0,1.528 0,2.037 15.786,18.841c6.619,7.129 14.257,15.276 16.803,18.84c14.767,15.786 16.295,16.804 25.97,18.332c2.546,-0 5.092,2.036 6.11,4.073c1.019,1.528 1.019,3.055 1.019,9.675c-0,8.657 -0.51,10.693 -4.074,12.73c-2.037,1.019 -2.037,1.019 -30.043,1.019c-28.006,-0 -28.516,-0.51 -30.043,-1.528c-3.055,-2.037 -3.055,-3.055 -3.565,-12.221c0,-6.62 0,-9.166 0.51,-9.675c1.018,-1.018 4.073,-2.037 7.128,-2.037c2.037,0 4.074,-1.018 4.074,-2.546c0,-1.018 -1.018,-2.546 -2.546,-4.073c-3.055,-3.565 -12.73,-14.258 -16.804,-18.332c-1.527,-2.036 -3.564,-4.073 -4.073,-4.582c-0,-0.51 -1.528,-1.528 -2.546,-2.037c-2.037,-1.528 -6.62,-1.019 -8.657,0.509c-1.527,2.037 -19.35,22.405 -20.368,23.423c-1.528,3.056 0,5.092 3.564,5.092c2.547,0 6.111,2.037 7.639,4.583c1.018,1.528 1.018,2.546 1.018,9.166c-0,8.656 -0.509,10.184 -3.564,12.73c-1.528,1.528 -1.528,1.528 -33.099,1.528c-30.043,-0 -31.57,-0 -33.098,-1.019Zm177.712,-143.595c-6.11,-2.546 -7.638,-9.166 -2.546,-13.749c5.092,-5.092 13.749,-1.018 13.749,6.111c-0,6.11 -6.111,10.184 -11.203,7.638Zm7.129,-2.037c1.528,-1.019 2.546,-3.055 2.546,-5.601c0,-6.111 -8.147,-9.166 -11.712,-4.583c-4.582,5.092 -0.509,12.221 6.111,11.202c1.018,0 2.037,-0.509 3.055,-1.018Zm-7.129,-2.037l0,-7.638l2.546,-0c1.019,-0 2.546,0.509 3.056,0.509c0.509,1.019 0.509,2.546 -0,4.074l-0.51,1.018l0.51,0.509c-0,0.51 0.509,1.019 0.509,1.019l-0,0.509l-0.509,-0c-0.51,-0 -1.019,-0.509 -1.528,-1.018c-0.509,-0.51 -1.018,-1.019 -1.528,-1.019l-1.018,0l-0,2.037l-1.528,-0Zm4.583,-4.583c0.509,-1.018 -0.509,-2.037 -2.037,-2.037l-1.018,0l-0,3.056l3.055,-0l0,-1.019Z" style="fill:#fff;fill-rule:nonzero;"/></g></svg>