<?xml version="1.0" encoding="UTF-8" standalone="no"?><!DOCTYPE svg PUBLIC "-//W3C//DTD SVG 1.1//EN" "http://www.w3.org/Graphics/SVG/1.1/DTD/svg11.dtd"><svg width="100%" height="100%" viewBox="0 0 1500 1500" version="1.1" xmlns="http://www.w3.org/2000/svg" xmlns:xlink="http://www.w3.org/1999/xlink" xml:space="preserve" xmlns:serif="http://www.serif.com/" style="fill-rule:evenodd;clip-rule:evenodd;stroke-linejoin:round;stroke-miterlimit:2;"><g id="disney-" serif:id="disney+"><path id="border" d="M1500,375l0,750c0,206.968 -168.032,375 -375,375l-750,0c-206.968,0 -375,-168.032 -375,-375l0,-750c0,-206.968 168.032,-375 375,-375l750,0c206.968,0 375,168.032 375,375Zm-35.971,-0c-0,-187.115 -151.914,-339.029 -339.029,-339.029l-750,0c-187.115,0 -339.029,151.914 -339.029,339.029l0,750c0,187.115 151.914,339.029 339.029,339.029l750,-0c187.115,-0 339.029,-151.914 339.029,-339.029l-0,-750Z" style="fill:#fff;"/><path id="disney-1" serif:id="disney+" d="M1330.35,807.726c3.217,0 5.84,2.619 5.844,5.845l-0,14.955c-0,3.217 -2.627,5.849 -5.844,5.849l-70.938,-0c0.045,3.687 0.074,7.003 0.074,10.092c0,21.976 -0.899,39.955 -2.998,60.124c-0.302,2.99 -2.789,5.25 -5.791,5.25l-15.377,0c-1.522,0 -2.99,-0.656 -4.004,-1.802c-1.052,-1.135 -1.56,-2.677 -1.386,-4.224c2.173,-20.041 3.101,-37.793 3.101,-59.348c0,-3.097 -0.037,-6.405 -0.082,-10.092l-70.183,-0c-3.225,-0 -5.845,-2.632 -5.845,-5.849l0,-14.955c0,-3.209 2.62,-5.82 5.845,-5.82l69.193,-0c-1.473,-24.273 -4.455,-47.63 -9.169,-71.363c-0.276,-1.431 0.091,-2.891 1.031,-4.042c0.937,-1.134 2.302,-1.782 3.745,-1.782l16.581,0c2.57,0 4.78,1.84 5.255,4.381c4.64,24.524 7.589,48.335 9.024,72.781l71.924,0Zm-216.192,50.831c-10.455,18.251 -39.987,56.469 -79.232,47.444c-12.959,31.425 -23.844,63.217 -30.072,110.789c0,0 -1.369,9.243 -9.049,6.03c-7.614,-2.664 -20.157,-15.318 -22.693,-32.835c-2.726,-23.003 7.511,-61.885 28.443,-106.479c-6.105,-9.924 -10.266,-24.104 -6.703,-44.289c0,-0 5.259,-37.492 42.912,-71.284c-0,-0 4.512,-3.898 7.131,-2.698c2.879,1.209 1.547,13.409 -0.742,19.34c-2.376,5.898 -19.138,34.923 -19.138,34.923c-0,-0 -10.456,19.599 -7.515,35.062c19.748,-30.361 64.636,-91.585 92.46,-72.274c9.35,6.686 13.656,21.229 13.656,36.902c0.004,13.768 -3.312,28.402 -9.458,39.369Zm-8.117,-48.084c0,0 -1.546,-12.072 -13.351,1.229c-10.15,11.223 -28.459,32.246 -43.196,60.804c15.463,-1.736 30.377,-10.126 34.889,-14.399c7.334,-6.504 24.413,-24.157 21.658,-47.634Zm-239.185,70.492c-4.31,10.138 -15.698,20.957 -29.841,14.23c-13.962,-6.74 -36.201,-52.254 -36.201,-52.254c-0,0 -8.443,-16.972 -10.068,-16.539c-0,-0 -1.823,-3.308 -2.941,15.236c-1.163,18.465 0.227,54.481 -7.144,60.148c-6.978,5.688 -15.429,3.423 -19.81,-3.221c-3.984,-6.542 -5.642,-22.083 -3.468,-49.383c2.553,-27.358 8.909,-56.461 17.026,-65.522c8.109,-9.004 14.617,-2.467 17.154,-0.095c-0,-0 10.847,9.824 28.727,38.688l3.159,5.341c0,-0 16.251,27.271 17.946,27.205c0,0 1.328,1.254 2.516,0.355c1.704,-0.487 1.015,-9.231 1.015,-9.231c-0,0 -3.37,-29.717 -18.198,-80.02c0,0 -2.239,-6.269 -0.726,-12.15c1.506,-5.936 7.458,-3.152 7.458,-3.152c-0,0 22.981,11.553 34.134,48.967c11.079,37.426 3.634,71.181 -0.738,81.397Zm126.487,-81.958c-16.259,3.749 -59.018,5.832 -59.018,5.832l-5.391,16.89c0,-0 21.365,-1.827 36.91,-0.198c0,-0 5.041,-0.59 5.63,5.712c0.203,5.878 -0.499,12.188 -0.499,12.188c0,0 -0.321,3.816 -5.733,4.789c-5.857,0.973 -46.054,2.528 -46.054,2.528l-6.509,22.017c0,-0 -2.421,5.086 3.003,3.638c5.036,-1.349 47.156,-9.251 52.637,-8.117c5.878,1.46 12.386,9.301 10.505,16.44c-2.239,8.855 -44.276,35.661 -69.877,33.792c-0,0 -13.45,0.867 -24.822,-17.29c-10.587,-17.298 4.013,-50.055 4.013,-50.055c0,0 -6.694,-15.294 -1.843,-20.474c-0,-0 2.887,-2.619 11.301,-3.213l10.303,-21.316c0,0 -11.734,0.813 -18.717,-7.824c-6.504,-8.187 -7.049,-11.957 -2.062,-14.213c5.333,-2.636 54.204,-11.553 87.831,-10.423c0,0 11.689,-1.146 21.827,19.126c0,-0 4.913,8.199 -3.435,10.171Zm-436.507,19.868c0.763,6.945 -1.023,20.07 -1.332,21.802c-0.565,3.993 -3.572,13.194 -4.075,14.32c-2.426,5.593 -4.822,10.18 -7.363,14.75c-4.347,7.832 -14.691,20.239 -20.833,25.547c-22.829,19.74 -58.176,30.971 -88.496,34.675c-20.577,2.483 -44.219,2.12 -66.021,-1.914c-7.502,-1.365 -18.667,-3.939 -18.667,-3.939c-0,0 0.037,4.467 -0.322,7.602c-0.173,1.435 -1.254,5.205 -1.856,6.426c-1.584,3.275 -4.191,4.966 -7.973,5.691c-4.57,0.85 -9.412,1.131 -13.631,-0.672c-6.934,-2.916 -9.421,-9.4 -10.629,-16.877c-0.974,-5.981 -1.997,-16.379 -1.997,-16.379c0,0 -5.184,-2.45 -9.507,-4.611c-13.277,-6.542 -25.885,-14.469 -36.918,-22.619c-3.057,-2.281 -16.189,-13.277 -19.085,-16.007c-8.129,-7.717 -15.438,-15.389 -21.002,-25.242c-4.322,-7.693 -5.568,-14.523 -2.28,-22.673c4.537,-11.367 20.828,-19.921 31.977,-24.801c8.187,-3.613 33.635,-11.92 44.207,-13.462c4.99,-0.71 12.736,-2.1 13.215,-2.409c0.193,-0.152 0.33,-0.276 0.466,-0.437c0.247,-0.342 0.66,-11.594 0.577,-15.71c-0.103,-4.042 2.995,-30.617 3.989,-36.234c0.519,-3.04 2.821,-14.737 5.172,-17.81c1.538,-2.075 4.252,-1.906 6.471,-0.544c12.122,7.539 15.809,33.689 16.709,46.994c0.54,8.101 0.808,20.297 0.808,20.297c-0,0 13.908,-0.412 22.466,-0.169c8.311,0.19 17.48,1.506 26.109,2.879c11.049,1.769 32.583,6.471 44.932,12.732c10.171,5.156 19.691,13.842 22.776,23.04c2.866,8.426 2.437,14.258 -1.926,21.864c-4.909,8.587 -14.193,14.972 -23.605,15.504c-2.801,0.165 -13.343,-1.237 -16.585,-3.749c-1.274,-0.998 -1.208,-2.809 -0.289,-4.034c0.347,-0.429 5.276,-3.048 8.184,-4.578c1.46,-0.792 2.664,-1.646 3.802,-2.685c2.417,-2.128 4.591,-4.467 4.348,-7.214c-0.33,-3.568 -4.104,-5.766 -7.701,-7.181c-16.865,-6.698 -50.538,-12.258 -66.809,-13.223c-6.372,-0.371 -15.43,-0.693 -15.43,-0.693l1.914,89.861c-0,0 7.49,1.423 13.392,2.384c3.387,0.512 17.74,1.803 21.555,1.898c29.037,0.767 61.443,-1.836 88.092,-14.412c11.701,-5.502 22.433,-12.361 30.558,-21.641c10.712,-12.275 16.321,-29.078 14.836,-46.628c-1.629,-19.171 -15.12,-41.926 -25.894,-55.78c-28.459,-36.605 -77.252,-66.718 -120.18,-84.371c-43.823,-18.012 -87.135,-28.373 -133.643,-30.109c-11.99,-0.442 -38.135,0.165 -51.35,3.819c-1.885,0.532 -3.791,1.163 -5.544,1.559c-1.381,0.338 -3.563,1.258 -4.161,1.741c-0.334,0.268 -0.66,0.639 -0.66,0.639c-0,0 0.812,0.45 1.592,0.78c1.398,0.61 7.292,0.977 10.34,1.534c2.731,0.515 5.568,1.947 6.694,3.947c1.068,1.897 1.2,3.399 -0.074,4.982c-2.994,3.642 -14.263,3.028 -19.229,2.244c-5.155,-0.825 -11.577,-2.4 -12.757,-6.892c-1.369,-5.288 1.147,-10.472 3.857,-15.265c5.456,-9.589 13.264,-14.576 24.701,-17.698c16.247,-4.471 36.762,-7.597 52.101,-8.183c34.721,-1.312 67.585,4.76 101.225,14.972c19.253,5.824 44.462,15.595 62.915,24.479c13.244,6.385 34.106,18.123 45.828,25.799c3.695,2.442 25.324,18.333 28.686,21.126c7.007,5.733 16.18,13.969 22.817,20.556c12.844,12.729 28.822,32.242 36.584,47.725c1.865,3.708 3.312,7.358 5.721,11.656c0.829,1.473 4.376,10.278 4.962,12.823c0.585,2.516 1.439,6.216 1.563,6.364c0.169,1.349 1.815,8.918 1.683,11.834Zm-243.211,-10.283c-0,0 -13.265,0.937 -22.396,1.951c-11.615,1.25 -33.438,5.016 -46.034,9.515c-3.778,1.353 -11.454,4.566 -12.122,8.452c-0.701,4.029 1.798,7.176 4.578,10.435c1.604,1.889 10.703,10.641 13.256,12.769c10.691,8.93 32.378,22.697 48.348,29.383c5.486,2.269 14.564,5.519 14.564,5.519c-0,-0 -0.677,-25.844 -0.557,-51.301c0.07,-13.425 0.363,-26.723 0.363,-26.723Zm271.13,-34.992c0.528,0.086 1.34,0.326 2.041,0.594c6.088,2.318 8.592,7.948 10.093,14.139c3.473,14.365 4.958,46.153 5.535,58.597c0.425,9.342 0.656,18.527 1.052,27.758c0.33,7.82 0.953,18.21 -0.676,25.535c-0.594,2.631 -2.356,5.7 -4.88,7.263c-2.887,1.856 -9.466,1.992 -13.083,1.246c-8.913,-1.84 -11.808,-7.573 -13.079,-16.383c-3.023,-21.035 -1.567,-62.309 0.215,-79.727c0.594,-5.754 2.763,-24.186 5.766,-31.916c1.027,-2.606 3.209,-7.853 7.016,-7.106Zm-15.508,-26.797c-1.172,1.241 -2.413,4.227 -3.696,6.389c-0.689,1.163 -1.959,2.652 -2.801,3.246c-2.957,2.177 -5.46,2.276 -8.315,-0.235c-4,-3.543 -6.314,-9.013 -6.479,-14.341c-0.083,-2.318 0.313,-4.892 -0.128,-6.851c-0.726,-3.308 -4.038,-6.715 -5.82,-9.874c-2.095,-3.729 -3.79,-10.221 -4.001,-14.416c-0.717,-13.074 6.175,-25.118 15.129,-34.621c9.016,-9.606 20.808,-17.591 33.64,-23.027c12.126,-5.106 29.898,-8.587 43.217,-3.976c4.334,1.485 10.373,5.176 13.408,9.041c0.644,0.8 1.172,1.67 1.832,2.095c0.594,0.375 2.14,0.524 3.374,0.751c4.248,0.738 10.364,3.951 12.86,6.092c5.019,4.33 7.766,8.471 9.041,14.477c2.553,12.085 -4.409,25.341 -12.337,33.413c-13.569,13.887 -26.974,23.65 -44.338,30.451c-7.627,2.978 -19.501,5.762 -28.154,4.982c-2.69,-0.222 -5.449,-0.932 -8.064,-1.105c-1.336,-0.111 -6.22,-1.374 -6.739,-1.728c-0.648,-0.499 -1.485,-0.932 -1.629,-0.763Zm28.912,-21.237c11.359,-0.784 21.997,-4.051 31.9,-9.545c9.713,-5.436 24,-16.036 22.519,-28.496c-0.449,-4.03 -3.089,-7.074 -6.421,-8.496c-4.335,-1.877 -6.591,-1.576 -12.127,0.07c-4.021,1.175 -5.832,1.889 -9.626,4.062c-11.141,6.472 -26.937,20.326 -35.516,31.38c-1.98,2.611 -3.981,5.527 -5.552,7.523c-0.99,1.233 -1.757,2.363 -1.662,2.664c0.342,1.254 12.052,1.139 16.485,0.838Zm-39.962,-10.695c-0,-0 3.77,-5.651 6.929,-9.94c5.75,-7.812 16.156,-18.643 23.992,-25.35c2.401,-2.046 5.226,-4.368 5.226,-4.368c0,0 -4.421,0.458 -6.925,0.97c-5.947,1.159 -14.667,6.949 -19.022,10.699c-7.189,6.149 -15.096,16.155 -11.52,25.044c0.52,1.258 1.32,2.945 1.32,2.945Zm137.858,103.331c0.652,0.091 0.792,0.112 1.423,0.198c10.559,1.436 20.932,3.333 28.876,6.888c7.358,3.25 11.672,7.363 15.611,14.692c5.993,11.12 6.381,26.69 0.969,38.478c-4.042,8.768 -12.918,16.127 -21.022,20.024c-8.418,4.079 -16.709,6.022 -26.216,7.107c-16.634,1.831 -34.592,-1.613 -49.56,-8.856c-8.855,-4.322 -19.666,-11.763 -25.118,-21.361c-4.014,-7.028 -3.882,-16.172 0.994,-22.849c7.778,-10.646 24.437,-12.989 36.984,-12.543c9.565,0.371 26.789,3.328 35.871,6.558c2.516,0.911 11.8,4.529 13.421,6.187c1.143,1.15 1.881,2.829 1.37,4.38c-2.075,6.348 -17.501,9.688 -21.955,10.361c-11.924,1.831 -18.107,-2.685 -31.664,-8.035c-3.366,-1.316 -7.849,-2.78 -11.277,-3.097c-6.149,-0.586 -13.586,1.138 -14.757,7.853c-0.586,3.464 3.473,6.702 6.57,8.067c7.272,3.118 13.182,4.244 20.338,4.339c21.143,0.347 44.9,-3.13 62.19,-15.384c2.367,-1.687 4.694,-4.162 4.718,-7.28c0.075,-6.294 -10.958,-10.142 -10.958,-10.142c-11.652,-4.859 -33.17,-7.222 -44.257,-8.134c-11.639,-1.006 -29.944,-2.512 -34.34,-3.159c-4.525,-0.644 -9.441,-1.559 -13.36,-3.316c-3.935,-1.778 -7.787,-5.758 -8.929,-10.163c-2.03,-7.94 0.556,-17.678 4.966,-24.021c11.552,-16.606 38.617,-22.92 58.836,-25.424c19.571,-2.433 51.206,-2.409 70.43,7.808c2.966,1.588 4.48,3.068 3.861,6.24c-1.254,5.956 -5.729,9.792 -11.153,11.475c-5.692,1.81 -17.467,2.52 -22.639,2.846c-23.172,1.295 -51.177,0.614 -73.248,6.632c-1.732,0.495 -4.718,1.303 -5.688,2.384c-3.456,3.753 6.414,4.821 8.526,5.254c0.631,0.149 0.751,0.17 1.406,0.244l48.781,5.749Zm-327.416,-210.878c92.084,-138.27 246.263,-220.823 412.416,-220.823c100.506,0 197.243,29.899 279.766,86.459c80.614,55.248 142.577,132.145 179.219,222.349c0.668,1.666 0.479,3.543 -0.524,5.024c-1.006,1.484 -2.672,2.379 -4.45,2.379l-15.397,0c-2.718,0 -5.172,-1.625 -6.232,-4.132c-35.537,-83.897 -94.34,-155.289 -170.063,-206.454c-77.603,-52.459 -166.755,-85.137 -260.765,-85.137c-77.834,0 -150.984,12.074 -233.347,54.52c-114.957,59.244 -177.649,154.605 -177.649,154.605c-1.716,-0.598 -3.04,-1.926 -3.655,-3.671c-0.585,-1.745 -0.334,-3.605 0.681,-5.119Z" style="fill:#fff;"/></g></svg>