<?xml version="1.0" encoding="UTF-8" standalone="no"?><!DOCTYPE svg PUBLIC "-//W3C//DTD SVG 1.1//EN" "http://www.w3.org/Graphics/SVG/1.1/DTD/svg11.dtd"><svg width="100%" height="100%" viewBox="0 0 1500 1500" version="1.1" xmlns="http://www.w3.org/2000/svg" xmlns:xlink="http://www.w3.org/1999/xlink" xml:space="preserve" xmlns:serif="http://www.serif.com/" style="fill-rule:evenodd;clip-rule:evenodd;stroke-linejoin:round;stroke-miterlimit:2;"><g id="vudu"><path id="border" d="M1500,375l0,750c0,206.968 -168.032,375 -375,375l-750,0c-206.968,0 -375,-168.032 -375,-375l0,-750c0,-206.968 168.032,-375 375,-375l750,0c206.968,0 375,168.032 375,375Zm-35.971,-0c-0,-187.115 -151.914,-339.029 -339.029,-339.029l-750,0c-187.115,0 -339.029,151.914 -339.029,339.029l0,750c0,187.115 151.914,339.029 339.029,339.029l750,-0c187.115,-0 339.029,-151.914 339.029,-339.029l-0,-750Z" style="fill:#fff;"/><path id="vudu1" serif:id="vudu" d="M957.256,956.613c-24.699,-2.47 -41.988,-20.582 -41.988,-45.281c0,-12.349 4.117,-23.052 13.173,-32.108c13.172,-13.173 37.871,-17.289 55.16,-8.233c6.586,2.47 9.056,5.763 13.996,10.703l3.293,4.939l-0.824,0.824c0,0.823 -4.116,2.47 -9.056,5.763l-9.056,4.116l-3.293,-3.293c-4.94,-5.763 -9.879,-7.41 -18.112,-7.41c-13.173,0.824 -21.406,10.703 -21.406,25.522c0,15.643 13.173,26.345 27.992,23.876c2.47,-0.824 5.763,-1.647 8.233,-2.47c3.293,-1.647 3.293,-1.647 3.293,-4.94l0,-3.293l-6.586,-0c-6.586,-0 -9.88,-0.823 -12.349,-0.823l-0.824,-0l0,-19.759l43.634,-0l0,17.289c-0.823,20.582 0,18.935 -10.702,26.345c-9.88,6.586 -20.582,9.056 -34.578,8.233Zm94.677,-0c-26.345,-1.647 -44.457,-24.699 -41.164,-51.044c2.47,-23.052 19.759,-37.871 43.634,-39.518c15.643,-0.823 27.169,3.293 37.048,13.173c9.056,9.056 13.173,18.935 13.173,32.108c-0,7.41 -1.647,13.173 -4.117,20.582c-9.056,17.289 -25.522,26.345 -48.574,24.699Zm16.466,-22.229c4.94,-2.47 9.88,-7.41 12.349,-12.349c1.647,-4.117 1.647,-5.763 1.647,-10.703c0,-10.703 -4.94,-18.112 -13.996,-23.052c-4.116,-1.647 -5.763,-1.647 -10.703,-1.647c-8.232,0 -13.172,1.647 -18.112,6.587c-8.233,9.056 -9.879,23.052 -3.293,32.931c3.293,3.293 9.056,8.233 13.173,9.056c4.116,2.47 13.995,1.647 18.935,-0.823Zm-689.09,21.405l0,-88.091l67.51,-0l-0,19.759l-43.634,-0l-0,8.233l0.823,9.056l30.461,-0l0,1.646c0,4.94 0,13.173 -0.823,13.996c-1.646,3.293 -4.94,4.117 -18.112,4.117l-12.349,-0l-0,30.461l-20.583,0c-1.646,0 -3.293,0.823 -3.293,0.823Zm69.156,-0.823l-10.702,0l0.823,-1.646c-0,-1.647 0.823,-4.117 2.47,-7.41c0.823,-3.293 8.233,-21.405 15.642,-41.988l13.996,-36.224l14.819,-0c7.41,-0 14.819,-0 14.819,0.823c0.824,0 4.117,9.056 8.233,20.582c4.117,10.703 11.526,29.639 15.643,42.811l9.056,23.052l-12.35,0c-13.172,-0.823 -13.995,-0.823 -16.465,-8.233l-1.647,-4.116l-34.578,-0l-1.646,6.586l-2.47,6.586l-2.47,0c-0.823,0 -6.586,-0.823 -13.173,-0.823Zm46.928,-32.931c0.823,-0 -1.647,-7.41 -4.117,-15.643l-4.94,-14.819l-0.823,0c-0.823,1.647 -9.879,29.638 -9.879,30.462l0.823,0.823l9.056,0c5.763,0 9.88,-0.823 9.88,-0.823Zm45.28,32.931l0,-44.457l0.824,-42.811l13.172,-0c10.703,-0 10.703,-0 14.819,5.763c2.47,3.293 9.88,13.996 17.289,23.052l13.173,17.289l-0,-19.759c-0,-13.996 0.823,-20.582 1.646,-22.229c1.647,-3.293 4.117,-4.116 13.173,-4.116l8.233,-0l-0,88.091l-3.293,-0.823l-10.703,0c-8.233,0 -8.233,0 -26.345,-24.698l-17.289,-23.876l-0.823,23.876l-0,24.698l-12.35,0l-10.702,0.823l-0.824,-0.823Zm104.558,0c-2.47,-0.823 -4.94,-3.293 -5.763,-4.94c-0.824,-0.823 -0.824,-19.758 -0.824,-41.987l0,-40.341l25.522,-0c27.168,0.823 30.462,0.823 40.341,7.409c10.703,7.41 17.289,18.113 18.936,32.109c1.646,21.405 -9.88,38.694 -29.639,45.28c-4.939,1.647 -8.233,1.647 -25.521,2.47l-23.052,0Zm37.871,-21.405c18.935,-5.763 22.228,-33.755 4.116,-42.811c-4.116,-2.47 -4.94,-3.293 -14.819,-3.293l-10.703,-0l0,47.75l8.233,0c5.763,0 10.703,-0.823 13.173,-1.646Zm62.569,21.405l-25.522,0l0,-1.646c0.824,-0.824 4.117,-9.88 8.233,-20.583c11.526,-31.284 16.466,-43.634 18.113,-48.573c1.646,-3.294 3.293,-7.41 4.116,-9.88c0.823,-3.293 2.47,-5.763 2.47,-5.763c0.823,-0.823 5.763,-0.823 14.819,-0.823l14.819,-0l3.293,9.056c1.647,4.94 4.117,12.349 5.763,16.466c1.647,3.293 4.94,12.349 7.41,20.582c3.293,7.409 8.233,19.759 10.703,26.345c2.469,7.41 4.939,13.996 4.939,13.996l0,1.646l-10.702,-0.823c-13.173,0 -14.82,-0.823 -18.113,-7.409l-1.646,-4.117l-33.755,0l-2.47,5.763c-0.823,3.293 -2.47,5.763 -2.47,5.763Zm31.285,-32.931c0.823,-0.824 -7.409,-28.815 -9.056,-29.639l-0.823,-0.823l-4.94,14.819c-2.47,8.233 -4.94,15.643 -4.94,15.643c0.824,0.823 19.759,0.823 19.759,-0Zm46.104,32.931l0,-87.268l13.173,-0c11.526,-0 11.526,-0 18.935,10.703c4.117,5.763 12.35,15.642 17.289,23.052l9.88,12.349l-0,-19.759c-0,-13.996 0.823,-20.582 1.646,-22.229c1.647,-3.293 4.117,-4.116 13.173,-4.116l8.233,-0l-0,88.091l-11.526,-0.823c-10.703,0 -10.703,0 -28.815,-23.875c-9.056,-13.173 -18.113,-24.699 -18.113,-24.699l-0.823,0l0,49.397l-11.526,0c-5.763,0 -10.703,-0.823 -11.526,-0.823Zm-567.243,-42.811l-0,-11.526l86.445,0l-0,11.526l-86.445,0Zm887.501,-0.823c-0.823,0 -0.823,-2.47 -0.823,-5.763l-0,-4.94l86.445,0l-0,11.526l-42.811,0c-23.052,0 -42.811,0 -42.811,-0.823Zm-525.256,-84.798c-27.992,-3.293 -51.867,-14.819 -70.802,-33.755c-16.466,-16.466 -26.346,-35.401 -31.285,-57.63c-0.824,-7.41 -0.824,-15.642 -1.647,-91.385c0,-93.854 -0.823,-88.091 5.763,-94.678c5.763,-5.763 8.233,-5.763 36.225,-5.763l23.875,0.824c-0,-0 -0.402,60.377 -0,90.561c0.412,30.873 0.823,90.562 2.47,94.678c4.116,11.526 9.879,18.936 19.759,25.522c7.409,4.94 14.819,7.409 23.052,8.233c20.582,0.823 41.164,-9.88 49.397,-26.345c5.763,-13.173 4.94,-5.763 5.763,-104.558l-0,-88.915l23.875,0c25.522,0 28.815,0.824 34.578,4.94c1.647,0.823 3.293,4.117 4.94,6.586c1.646,4.117 1.646,4.117 1.646,90.562c-0.823,93.854 0,88.915 -4.939,103.734c-4.94,14.819 -13.996,28.815 -25.522,41.164c-18.113,18.936 -39.518,30.462 -65.04,34.578c-9.056,1.647 -24.698,2.47 -32.108,1.647Zm513.73,-0c-40.341,-4.94 -75.742,-28.815 -92.208,-63.393c-3.293,-8.233 -5.763,-14.819 -8.233,-24.699c-1.646,-6.586 -1.646,-9.056 -2.47,-93.854c0,-84.799 0,-87.269 1.647,-90.562c1.647,-3.293 4.94,-6.586 9.056,-9.056c2.47,-0.823 5.763,-1.647 28.815,-1.647l25.522,0l0,89.739c0.823,84.798 0.823,90.561 1.647,94.677c4.939,13.173 14.819,24.699 26.345,30.462c9.056,4.116 14.819,4.94 24.698,4.94c18.113,-1.647 34.578,-11.526 41.988,-26.345c5.763,-11.526 4.94,-4.117 5.763,-102.911l0.823,-89.738l25.522,-0c23.875,-0 25.522,-0 28.815,1.646c3.293,1.647 7.41,5.763 9.056,9.88c0.823,1.646 0.823,23.875 0.823,90.561c-0.823,88.092 -0.823,88.092 -2.469,94.678c-5.763,21.405 -15.643,37.871 -31.285,53.514c-18.113,18.112 -40.341,27.991 -67.51,31.284c-10.702,1.647 -16.465,1.647 -26.345,0.824Zm121.846,-1.647c-5.763,-3.293 -8.232,-7.409 -8.232,-12.349c-0,-12.349 12.349,-19.759 22.228,-13.173c9.88,6.587 9.056,20.582 -0.823,25.522c-4.94,1.647 -9.879,2.47 -13.173,0Zm13.173,-3.293c4.116,-2.47 5.763,-5.763 4.94,-9.879c-0,-9.88 -9.88,-14.82 -18.113,-9.88c-8.232,4.94 -7.409,16.466 0.824,20.582c3.293,2.47 9.056,1.647 12.349,-0.823Zm-909.73,1.647c-1.647,-0 -4.117,-0.824 -6.587,-0.824c-13.995,-2.47 -26.345,-11.526 -34.578,-24.698c-3.293,-6.587 -4.116,-8.233 -9.056,-20.582c-1.646,-5.763 -13.172,-38.695 -26.345,-72.45c-12.349,-34.578 -23.875,-67.509 -26.345,-72.449c-1.647,-5.763 -9.056,-26.345 -15.642,-45.28c-7.41,-19.759 -13.173,-36.225 -13.173,-37.048c-0,-2.47 0.823,-4.117 3.293,-5.763c3.293,-0.824 51.044,-1.647 55.984,-0c5.763,1.646 10.702,7.409 13.172,15.642c3.293,7.41 12.349,32.932 15.643,42.811c1.646,3.293 6.586,17.289 11.526,32.108c4.939,13.996 14.819,41.988 22.228,62.57l13.173,37.871l2.47,-0l1.646,-3.293c0.824,-2.47 5.763,-15.643 10.703,-29.638c9.056,-25.522 11.526,-32.109 14.819,-41.165c0.823,-3.293 2.47,-7.409 3.293,-10.702c3.293,-7.41 30.462,-84.799 32.932,-91.385c3.293,-7.41 4.939,-10.703 9.879,-13.173c4.116,-1.646 4.116,-1.646 29.638,-2.47l27.992,0c2.47,0.824 4.94,4.117 4.94,6.587c-0,0.823 -3.293,11.526 -8.233,23.052c-4.117,12.349 -11.526,32.108 -16.466,45.28c-4.116,13.173 -9.879,27.169 -11.526,31.285c-0.823,3.293 -4.94,14.819 -8.233,23.876c-3.293,9.056 -10.702,27.991 -14.819,41.164c-15.642,40.341 -17.289,44.457 -27.992,74.919c-5.763,16.466 -10.702,29.638 -10.702,30.461c-2.47,1.647 -15.643,3.294 -28.815,4.117c-7.41,-0 -13.996,-0 -14.819,-0.823Zm423.992,-0c-5.763,-0.824 -11.526,-4.94 -13.173,-10.703c-1.647,-3.293 -1.647,-17.289 -1.647,-128.433c0,-120.199 0,-125.962 1.647,-128.432c1.647,-4.117 4.94,-7.41 8.233,-9.88c2.47,-0.823 8.233,-1.646 48.574,-1.646c47.75,-0 64.216,0.823 77.389,3.293c44.457,9.056 86.445,42.811 102.087,83.975c6.586,17.289 9.879,33.755 9.879,54.337c0,18.935 -2.47,32.108 -8.233,47.75c-9.056,22.229 -27.168,46.104 -48.573,62.57c-17.289,13.173 -36.225,20.582 -59.277,25.522c-10.703,1.647 -11.526,1.647 -62.57,1.647l-54.336,-0Zm93.031,-59.277c12.349,-0.823 18.935,-2.47 27.992,-6.586c17.289,-8.233 32.108,-23.876 39.517,-41.988c6.587,-16.466 7.41,-37.871 1.647,-55.983c-6.586,-25.522 -27.169,-46.104 -51.044,-52.691c-9.056,-2.469 -16.466,-3.293 -38.694,-3.293c-18.936,0 -23.052,0 -23.876,0.824c-0.823,1.646 -0.823,157.247 0,158.894c0.824,1.646 1.647,1.646 17.289,1.646c9.057,0 21.406,0 27.169,-0.823Zm380.358,56.807l-0,-16.466l4.116,-0.823c4.94,-0 8.233,1.646 8.233,4.939c-0,2.47 -1.647,4.94 -3.293,4.94l-0.823,0l1.646,3.293c1.647,1.647 2.47,3.293 2.47,3.293l-0,0.824l-1.647,-0c-0.823,-0 -2.469,-1.647 -3.293,-3.293c-0.823,-1.647 -2.47,-3.294 -3.293,-3.294l-1.646,0l-0,6.587l-2.47,-0Zm9.056,-10.703c1.646,-1.647 -0.823,-4.116 -4.117,-4.116l-2.469,-0l-0,2.469c-0,0.824 -0,2.47 0.823,2.47c0.823,0.824 4.94,0 5.763,-0.823Z" style="fill:#fff;fill-rule:nonzero;"/></g></svg>