<?xml version="1.0" encoding="UTF-8" standalone="no"?><!DOCTYPE svg PUBLIC "-//W3C//DTD SVG 1.1//EN" "http://www.w3.org/Graphics/SVG/1.1/DTD/svg11.dtd"><svg width="100%" height="100%" viewBox="0 0 1500 1500" version="1.1" xmlns="http://www.w3.org/2000/svg" xmlns:xlink="http://www.w3.org/1999/xlink" xml:space="preserve" xmlns:serif="http://www.serif.com/" style="fill-rule:evenodd;clip-rule:evenodd;stroke-linejoin:round;stroke-miterlimit:2;"><g id="hbo-max" serif:id="hbo max"><path id="border" d="M1500,375l0,750c0,206.968 -168.032,375 -375,375l-750,0c-206.968,0 -375,-168.032 -375,-375l0,-750c0,-206.968 168.032,-375 375,-375l750,0c206.968,0 375,168.032 375,375Zm-35.971,-0c-0,-187.115 -151.914,-339.029 -339.029,-339.029l-750,0c-187.115,0 -339.029,151.914 -339.029,339.029l0,750c0,187.115 151.914,339.029 339.029,339.029l750,-0c187.115,-0 339.029,-151.914 339.029,-339.029l-0,-750Z" style="fill:#fff;"/><path id="hbo-max1" serif:id="hbo max" d="M1324.68,762.012l4.309,0c0.082,1.214 1.232,2.359 3.407,2.359c2.066,0 3.051,-0.9 3.051,-2.127c-0,-1.159 -0.944,-1.691 -2.764,-2.072l-2.64,-0.573c-2.764,-0.545 -4.966,-2.045 -4.966,-5.29c-0,-3.723 3.119,-5.809 7.292,-5.809c4.515,-0 7.182,2.509 7.223,5.686l-4.172,-0c-0.082,-1.159 -1.054,-2.291 -3.065,-2.291c-1.765,0 -2.777,0.832 -2.777,2.059c-0,0.995 0.889,1.609 2.503,1.923l2.709,0.545c2.682,0.518 5.117,1.841 5.117,5.372c0,3.641 -2.791,6.013 -7.675,6.013c-5.705,0 -7.511,-3.095 -7.552,-5.795Zm22.013,5.454l-4.022,0l-0,-18.611l4.679,-0l4.788,10.512l0.137,0l4.802,-10.512l4.624,-0l0,18.611l-4.063,0l0,-11.521l-0.191,-0l-3.941,8.713l-2.654,-0l-3.954,-8.713l-0.205,-0l0,11.521Zm-547.131,313.935c-8.262,-0.59 -15.934,-1.77 -22.426,-3.541c-6.491,-1.77 -15.934,-4.721 -16.524,-5.311c-0.59,-0.59 -1.18,-0.59 -1.77,-0.59c-0.59,-0 -1.771,-0.59 -2.951,-1.181c-16.524,-7.671 -18.884,-8.852 -29.507,-16.524c-9.442,-7.081 -21.245,-18.294 -30.688,-31.277c-5.901,-8.262 -14.163,-23.016 -18.294,-34.819c-2.361,-5.901 -6.492,-18.294 -6.492,-21.245c-0.59,-0.59 -1.18,-3.541 -1.77,-5.311c-0,-1.771 -0.59,-4.131 -0.59,-5.312c-0.59,-1.18 -1.18,-5.311 -1.771,-8.852c-0.59,-3.541 -1.18,-7.672 -1.18,-8.852c0,-1.18 0,-5.311 -0.59,-8.852c-0.59,-8.852 -0.59,-25.966 -0,-34.819c0.59,-3.54 0.59,-7.671 0.59,-8.852c0,-1.77 0.59,-4.721 1.18,-7.672c1.181,-7.081 1.181,-8.262 1.771,-10.622c-0,-1.18 0.59,-3.541 0.59,-4.721c0.59,-1.771 1.18,-3.541 0.59,-3.541l0,-0.59l0.59,-0c0.59,-0.59 0.59,-1.181 0.59,-1.771c0,-0.59 0.591,-2.95 1.181,-4.721c0.59,-1.77 1.77,-5.311 2.36,-7.672c0.59,-2.36 1.771,-5.311 2.361,-7.082c0.59,-1.18 1.18,-2.95 1.18,-2.95c0,-1.181 8.262,-18.295 10.623,-21.836c10.622,-16.524 21.245,-29.507 32.458,-38.359c1.18,-1.18 2.95,-2.361 3.541,-2.951c2.95,-3.541 22.425,-14.163 33.638,-18.884c6.491,-2.951 8.852,-3.541 10.032,-3.541c0.59,-0 1.181,-0 1.771,-0.59l3.541,-1.181c1.18,0 5.311,-1.18 8.852,-1.77c11.212,-2.951 20.655,-4.131 35.998,-3.541c10.033,0 15.934,0 21.836,0.59c8.852,1.181 22.425,4.721 26.556,5.902c0.59,-0 3.541,1.18 6.492,2.36c2.951,1.181 7.672,2.951 10.032,4.131c5.312,2.361 17.705,8.852 20.065,10.623c5.312,4.131 7.082,5.311 7.672,5.311l0.59,0l0.59,-1.77c0.591,-4.131 5.312,-11.213 9.443,-14.754c3.541,-2.951 10.622,-6.491 15.343,-7.082c2.361,-0.59 10.623,-0.59 18.885,-0.59c15.934,0 15.934,0 18.885,2.951c1.18,0.59 1.18,326.94 -0,328.71c-1.771,2.951 -1.181,2.951 -20.065,2.951c-17.705,0 -18.295,0 -23.016,-1.77c-5.901,-1.771 -11.803,-5.902 -15.344,-11.213c-2.36,-2.951 -4.721,-10.033 -5.311,-13.573l0,-1.181l-4.131,2.951c-2.36,1.18 -6.491,4.131 -8.852,5.311c-2.361,1.181 -4.721,2.951 -4.721,2.951c-0,0.59 -0.59,0.59 -1.18,0.59c-0,0 -2.361,1.18 -5.312,2.361c-15.344,7.672 -33.638,12.393 -51.932,14.163c-8.853,0.59 -26.557,0.59 -35.409,-0.59Zm25.966,-61.965c21.245,-2.361 38.36,-9.442 52.523,-21.835c16.524,-15.934 25.966,-34.819 30.688,-61.966c1.18,-9.442 1.18,-37.769 -0,-46.621c-2.361,-14.163 -5.312,-23.016 -10.623,-33.048c-4.131,-9.442 -5.311,-11.803 -9.442,-16.524c-5.902,-8.262 -15.344,-16.524 -22.426,-21.245c-1.77,-0.59 -2.951,-1.181 -3.541,-1.771c-2.36,-1.77 -10.032,-5.311 -13.573,-6.491c-18.885,-5.902 -41.31,-6.492 -60.195,-0c-5.311,1.77 -15.343,5.901 -20.065,8.852c-14.753,9.442 -27.146,25.376 -34.228,43.671c-2.951,7.671 -6.492,20.655 -7.082,26.556c0,1.18 -0.59,4.721 -0.59,7.672c-1.77,10.622 -0.59,36.589 2.361,46.031c-0,1.771 0.59,3.541 0.59,4.721c1.18,5.902 8.262,24.786 10.032,25.967l1.181,2.36c1.77,3.541 7.671,11.803 12.983,17.705c14.753,15.343 33.638,23.605 56.063,25.966c7.082,0.59 8.262,0.59 15.344,-0Zm-609.029,60.785c-5.311,-1.771 -9.442,-4.721 -12.983,-8.852c-4.131,-4.131 -5.901,-7.082 -7.082,-12.984c-1.18,-4.721 -1.18,-5.901 -1.18,-104.455c0.59,-104.456 0.59,-101.505 2.951,-115.078c4.131,-20.065 11.803,-36.589 24.196,-52.523c3.541,-4.721 14.163,-15.344 19.475,-18.885c5.311,-4.131 12.983,-8.852 13.573,-8.852c0.59,0 1.18,-0.59 1.77,-0.59c1.181,-1.18 9.443,-4.721 15.934,-7.082c2.951,-1.18 5.312,-1.77 5.902,-2.36c1.18,-0 0.59,-0 9.442,-2.361c4.131,-1.18 9.442,-2.36 12.393,-2.36c2.361,-0.591 6.492,-0.591 8.852,-1.181c5.902,-0.59 22.426,-0.59 29.507,0c2.361,0.59 7.082,0.59 9.443,1.181c4.131,0.59 11.803,2.36 17.704,3.54c1.18,0.591 2.361,0.591 2.951,0.591c-0,0.59 0.59,0.59 1.77,0.59c0.59,0.59 2.361,1.18 4.131,1.77c16.524,5.902 30.688,14.754 41.31,24.786l4.721,4.721l3.541,-3.541c11.803,-10.622 25.376,-19.474 40.13,-24.786c3.541,-1.18 7.082,-2.95 8.262,-2.95c0.59,-0.59 4.131,-1.181 8.852,-2.361c15.934,-4.131 38.36,-5.311 54.294,-2.951c7.081,0.591 18.884,2.951 23.605,4.131c1.181,0.591 2.361,0.591 2.361,0.591c0.59,-0 1.18,0.59 1.77,0.59c0,-0 1.771,0.59 2.951,1.18c1.77,0.59 2.951,1.18 3.541,1.18c-0,0.59 0.59,0.59 1.18,0.59c0.59,0 1.771,0 2.361,0.591c0.59,-0 3.541,1.77 7.082,3.54c7.671,3.541 11.212,5.902 16.524,9.443c18.884,12.983 31.867,30.097 40.719,52.523l1.771,3.54l-0.59,0l1.18,2.951c1.18,2.951 3.541,12.983 5.311,21.245c0.591,5.312 1.181,11.803 1.181,118.619l-0,114.488c-0.59,0.59 -1.181,1.181 -2.361,1.771c-1.77,1.18 -3.541,1.18 -19.475,1.18c-17.704,-0.59 -18.294,-0.59 -21.835,-1.77c-10.623,-4.131 -17.114,-11.213 -20.065,-22.426c-0.59,-1.77 -0.59,-32.458 -0.59,-99.734c-0,-96.784 -0,-96.784 -1.18,-103.866c-1.181,-4.131 -2.361,-8.262 -2.361,-8.852l-1.18,-2.36c-0,-1.181 -3.541,-8.853 -6.492,-12.393c-6.491,-9.443 -16.524,-17.115 -28.327,-21.246c-8.852,-2.95 -21.835,-4.721 -31.277,-3.54c-3.541,0.59 -6.492,0.59 -7.082,0.59c-1.771,-0 -11.803,2.95 -14.754,4.131c-11.212,5.311 -18.884,11.212 -24.786,19.474c-5.311,7.082 -6.491,10.623 -9.442,21.246c-1.77,6.491 -1.77,6.491 -2.361,116.258c0,60.195 0,110.357 -0.59,110.947c0,0.59 -0.59,1.771 -1.18,2.361c-1.18,1.18 -2.361,1.18 -18.885,1.18c-15.934,0 -17.704,0 -21.835,-1.18c-5.311,-1.771 -8.262,-3.541 -12.393,-7.082c-4.131,-4.131 -5.311,-6.492 -7.672,-11.213c-1.18,-2.95 -1.18,-2.95 -1.77,-102.685c-0,-71.997 -0.591,-100.324 -1.181,-102.095c0,-1.18 -0.59,-2.95 -0.59,-4.131c-0.59,-1.18 -1.18,-4.131 -1.77,-6.491c-4.131,-14.164 -13.574,-25.377 -26.557,-33.048c-2.95,-1.771 -5.311,-2.951 -5.901,-2.951c-0.59,-0 -1.18,-0.59 -2.361,-1.18c-1.18,-0 -4.131,-1.181 -7.672,-2.361c-4.721,-1.18 -7.081,-1.18 -16.524,-1.18c-13.573,-0.59 -14.753,-0 -20.655,1.18c-12.393,2.951 -20.655,7.672 -28.917,15.934c-3.541,3.541 -5.901,6.491 -5.901,6.491c-0,0.591 -0.59,1.181 -1.18,1.771c-1.771,2.36 -5.902,10.622 -7.082,15.934c-3.541,10.622 -2.951,5.311 -3.541,122.75c-0,109.176 -0,109.176 -1.771,110.357c-1.18,1.18 -2.36,1.18 -18.884,1.18c-17.114,0 -18.295,0 -22.426,-1.18Zm777.81,0.59c-1.77,-1.18 -2.36,-2.951 -1.18,-5.311c0,-1.181 0.59,-2.361 1.18,-2.361l2.361,-3.541c1.77,-2.36 2.951,-4.131 2.951,-4.131c0.59,-0.59 2.95,-4.131 5.311,-8.262c2.951,-4.131 8.262,-11.803 11.213,-16.524c3.541,-5.311 10.622,-15.344 15.344,-22.425c4.721,-7.082 10.622,-16.524 13.573,-20.655c2.951,-4.131 8.852,-12.393 12.393,-18.295c4.131,-5.901 7.082,-10.623 7.672,-11.213c0.59,-0.59 1.18,-1.77 7.081,-10.032c1.181,-1.771 2.361,-4.131 2.951,-4.131c0,-0.59 2.361,-4.131 4.721,-8.262c2.951,-3.541 5.312,-7.082 5.312,-7.082c0.59,-0.59 7.081,-11.213 7.081,-11.803c0,-0.59 0.591,-1.18 0.591,-1.77c1.18,-1.18 2.36,-7.672 2.36,-11.213c0,-3.541 -1.77,-10.032 -3.541,-13.573c-1.18,-2.361 -10.032,-15.934 -15.343,-23.016c-1.181,-1.77 -2.951,-4.721 -4.132,-6.491l-7.081,-10.623c-0,-0 -3.541,-5.311 -8.262,-11.803c-4.131,-5.901 -9.443,-14.754 -12.393,-18.885c-2.951,-4.131 -8.852,-12.393 -12.983,-18.884c-4.131,-6.492 -11.213,-17.114 -15.344,-23.016c-4.131,-5.901 -9.443,-14.163 -11.803,-17.704c-2.361,-3.541 -4.721,-7.082 -5.311,-7.082c-0.591,-1.18 -4.722,-7.672 -5.902,-8.852c-0.59,-1.77 -0.59,-4.131 0,-5.311c1.18,-1.771 2.951,-1.771 26.557,-1.771c14.163,0 25.966,0 28.917,0.59c2.95,0.591 5.311,0.591 5.901,0.591c0.59,-0 1.18,0.59 1.771,0.59c-0,0.59 0.59,0.59 1.18,0.59c0.59,-0 1.77,0.59 2.951,1.18c1.18,0.59 2.36,1.18 2.95,1.18c1.181,0 9.443,5.902 11.803,8.853c1.181,1.18 5.312,7.081 9.443,12.393c9.442,14.753 15.933,24.196 24.195,37.179c4.722,5.901 10.033,14.163 12.984,18.294c2.36,4.131 4.721,7.672 5.311,8.262c0.59,0.59 2.36,2.951 4.131,5.902c5.901,8.262 9.442,10.622 16.524,11.212c4.131,0 5.311,0 7.672,-1.18c4.721,-2.361 7.082,-4.721 13.573,-14.754c2.951,-4.131 7.672,-11.802 10.623,-15.933c2.95,-4.131 6.491,-9.443 7.672,-11.213c1.77,-2.361 2.95,-4.131 2.95,-4.131l0.59,-0l0,-0.59c0,-0.59 0.591,-1.771 1.771,-2.951c1.18,-1.77 3.541,-5.901 6.491,-9.442c2.361,-3.541 4.722,-7.672 5.312,-8.262l1.18,-1.181l-0.59,0l0.59,-1.18c1.18,-1.18 2.951,-2.951 9.442,-12.983c4.722,-7.672 10.623,-13.573 14.754,-15.934c1.18,-0.59 2.361,-1.18 2.951,-1.77c1.77,-1.181 6.491,-2.951 7.081,-2.951c0.591,-0 1.181,-0 1.181,-0.59c0.59,-0.59 -1.181,-0.59 32.458,-1.181c27.146,0 28.917,0 30.097,1.181c1.77,1.18 1.18,4.131 -1.18,7.081l-22.426,33.639c-4.721,6.491 -8.262,11.803 -8.262,12.393c-0.59,-0 -1.77,2.36 -2.95,4.131c-2.951,4.131 -4.722,7.081 -11.803,17.704c-2.951,4.131 -6.492,9.442 -7.672,11.213c-1.771,2.36 -2.951,4.131 -2.951,4.131c0,-0 -3.541,5.311 -7.672,11.212c-7.672,11.213 -20.655,30.688 -25.376,37.77c-9.442,13.573 -10.623,16.524 -11.803,26.556c0,1.771 0,3.541 0.59,3.541l0.59,1.18l0,0.591c-1.18,1.18 2.951,10.622 7.672,16.524c0.59,0.59 1.771,2.36 2.361,4.131c1.18,1.77 4.721,6.491 7.672,10.622c16.524,24.786 28.327,41.9 35.408,53.113c2.361,3.541 4.721,7.082 5.312,7.672c-0,0 1.18,1.77 2.95,4.131l7.082,10.623c0,-0 1.18,1.77 2.951,4.131l7.082,10.622c0.59,0.59 5.311,7.082 8.262,12.393l8.262,12.393c7.671,11.213 7.081,10.033 7.081,12.393c-1.18,2.951 -1.77,2.951 -31.277,2.951c-25.377,-0.59 -27.737,-0.59 -31.278,-1.77c-10.623,-2.951 -19.475,-9.443 -24.786,-17.705c-1.18,-1.77 -2.951,-4.131 -2.951,-4.131l-2.36,-3.541c-1.181,-1.77 -2.361,-3.54 -2.951,-4.131l-4.721,-7.081c-0.59,-0.59 -2.361,-2.951 -4.131,-5.902c-1.771,-2.951 -4.721,-7.082 -5.902,-9.442c-1.77,-2.361 -3.541,-4.721 -3.541,-5.311c-1.18,-1.181 -10.032,-14.754 -23.015,-33.639c-5.311,-7.671 -8.262,-11.212 -12.393,-12.983c-6.492,-2.36 -14.164,-1.18 -19.475,4.131c-1.77,1.771 -5.311,7.082 -11.213,15.344c-1.18,1.77 -5.311,8.262 -9.442,14.754c-4.721,5.901 -10.623,14.753 -13.573,19.474c-7.082,10.623 -18.295,27.147 -22.426,33.048c-3.541,5.312 -8.262,10.033 -11.803,11.803c-5.901,2.951 -8.262,4.131 -11.803,5.312c-4.131,1.18 -6.491,1.18 -32.457,1.77c-19.475,0 -28.327,0 -28.918,-0.59Zm16.739,-375.236c-4.275,-0.61 -7.938,-1.221 -8.549,-1.221c-0.61,-0.61 -1.831,-0.61 -3.053,-0.61c-4.274,-0 -23.812,-4.885 -32.361,-8.549c-4.884,-1.831 -19.539,-7.937 -20.149,-8.548l-2.442,-1.221c-9.159,-5.495 -24.424,-15.875 -31.14,-21.981c-17.097,-15.876 -28.087,-29.308 -37.857,-46.405c-1.221,-2.442 -3.053,-5.495 -3.663,-6.716l-1.222,-1.832l-0.61,1.221c-0,1.221 -0.611,4.274 -0.611,6.716c-0.61,6.717 -3.053,14.655 -6.106,22.592c-2.442,6.106 -8.548,17.097 -10.38,19.539l-1.221,1.221c0,1.832 -15.264,18.318 -21.37,22.592c-1.832,1.221 -3.664,3.053 -3.664,3.053l0,0.61l-1.832,0l0,0.611c-0.61,0.611 -12.822,7.327 -20.149,10.991c-6.106,2.442 -18.928,5.495 -25.034,6.106c-2.442,-0 -4.885,0.61 -5.495,0.61c-0,0.611 -35.414,0.611 -78.766,0.611l-78.155,-0l-0.611,-1.221l-0,-172.797l0.611,-170.964l86.092,-0c81.819,-0 86.704,-0 90.367,0.61c1.832,0.611 4.275,1.832 5.496,1.832c3.663,0.611 6.716,2.442 13.433,5.495c10.99,5.496 17.707,10.38 26.865,19.539c13.433,13.433 23.203,29.308 28.087,47.015c0.611,2.443 2.443,14.044 2.443,17.707l-0,0.611l1.221,-2.442c1.221,-1.832 1.832,-3.053 1.221,-3.053l0,-0.611l0.611,-0.61c0.61,-0.611 1.832,-1.832 1.832,-3.664l1.221,-2.442l1.221,-0l0.61,-1.222c0.611,-1.831 4.885,-9.158 11.602,-17.707c6.106,-7.937 22.591,-24.423 31.14,-31.14c5.495,-4.274 10.38,-7.937 19.538,-13.432c0.611,-0 1.832,-1.222 3.664,-1.832c1.221,-0.611 2.442,-1.221 3.053,-1.832c1.832,-1.221 10.99,-5.495 15.875,-6.716c1.832,-1.222 4.274,-2.443 5.495,-2.443c0.611,-0.61 2.443,-1.221 4.275,-1.221c15.875,-4.885 14.654,-4.885 26.255,-6.716c3.663,-0.611 12.212,-1.222 18.317,-1.832c40.299,-2.443 78.156,7.937 111.127,30.529c3.053,1.832 6.106,4.274 6.717,4.885c1.221,0.61 3.663,3.053 6.716,4.885c6.106,4.884 15.876,14.654 20.76,21.37c1.832,2.443 4.274,5.495 4.885,6.106c2.442,2.442 10.38,14.654 14.044,20.76c2.442,4.274 6.105,11.601 9.769,21.371c3.663,7.327 6.716,20.76 9.769,33.582c0.611,6.106 2.443,23.202 2.443,30.529c-0,18.928 -3.664,42.131 -9.77,59.227c-6.716,18.318 -11.601,27.477 -23.813,45.794c-3.053,4.274 -12.211,15.876 -17.707,20.76c-9.158,9.77 -25.644,22.592 -37.856,29.309c-5.495,3.663 -15.875,8.548 -20.76,10.38c-1.832,0.61 -3.664,1.221 -4.274,1.831c-1.832,0.611 -8.548,3.053 -14.044,4.274c-5.495,1.832 -17.096,4.275 -19.539,4.275c-0.61,-0 -1.831,-0 -1.831,0.61c-0.611,0.611 -1.832,0.611 -3.053,0.611c-1.221,-0 -4.885,-0 -7.938,0.61c-6.716,0.611 -21.37,0.611 -31.75,0Zm-158.143,-153.257c-0.61,-3.053 -0.61,-35.414 0,-39.688c0.611,-1.832 0.611,-3.664 0.611,-3.664l-0,-0.611l-4.274,3.053c-9.77,8.549 -20.76,14.655 -28.087,16.486l-3.053,0.611l0.61,0.61c2.443,0.611 10.38,4.275 14.044,6.717c6.106,3.663 14.044,10.99 17.096,14.654c1.832,2.442 3.053,3.664 3.053,3.664l0.611,-0l-0.611,-1.832Zm-89.145,-60.448c6.105,-3.053 10.38,-7.938 14.043,-15.876c1.221,-3.053 1.221,-4.274 1.221,-10.99c0,-6.717 0,-7.938 -1.221,-11.601c-3.053,-7.327 -7.938,-12.212 -14.043,-15.265c-2.443,-1.221 -2.443,-1.221 -29.919,-1.832l-26.866,0l-0,57.395l26.255,0c26.866,0 26.866,0 30.53,-1.831Zm-2.443,131.276c6.717,-2.442 12.212,-7.938 15.265,-14.654c2.442,-4.885 2.442,-6.106 2.442,-14.044c0,-7.327 0,-7.327 -2.442,-12.822c-1.832,-4.274 -3.053,-6.106 -6.717,-9.159c-4.274,-4.274 -7.327,-5.495 -12.822,-6.716c-2.442,-0.611 -14.043,-0.611 -26.866,-0.611l-23.202,0l-0,59.838l25.645,-0c24.423,-0 25.644,-0.611 28.697,-1.832Zm283.313,-7.327c7.938,-1.832 13.433,-3.664 17.707,-5.495c6.106,-2.443 9.159,-4.275 10.991,-5.496c0.61,-0.61 1.831,-1.221 1.831,-1.221c1.221,0 12.212,-8.548 15.876,-12.822c3.663,-3.664 11.601,-12.823 11.601,-14.044c-0,0 0.61,-1.221 1.831,-2.442c2.443,-4.274 7.328,-15.875 9.159,-21.371c4.274,-15.264 4.274,-32.361 0,-47.625c-1.221,-4.885 -6.106,-17.708 -7.937,-18.929c-0,-0.61 -0.611,-1.221 -0.611,-1.221c0,-0.61 -1.832,-3.053 -3.663,-6.106c-5.496,-7.937 -15.876,-18.317 -23.203,-23.202c-10.38,-6.717 -19.539,-10.38 -30.529,-13.433c-6.106,-1.221 -8.548,-1.221 -18.318,-1.221c-10.38,-0 -12.822,-0 -18.317,1.221c-30.53,7.327 -53.732,27.476 -64.723,56.174c-1.221,3.053 -4.274,14.044 -4.274,15.265c0,0.61 0,3.663 -0.61,7.327c-0.611,4.885 -0.611,7.937 -0,15.264c0.61,4.275 1.221,9.159 1.221,10.38c1.221,6.106 3.053,12.212 3.663,12.212c0.611,0.611 0.611,1.221 0.611,1.832c-0,1.221 5.495,12.212 6.716,13.433c0.611,1.221 1.222,1.832 1.222,2.442c-0,0 0.61,1.221 1.221,1.832l1.831,1.832l-0.61,-0l1.221,1.221c7.938,9.769 13.433,15.265 22.592,21.371c18.317,12.211 42.13,17.096 63.501,12.822Zm-22.592,-18.318c-12.822,-2.442 -18.317,-3.663 -24.423,-6.716c-19.539,-10.38 -32.972,-28.087 -36.636,-50.068c-1.831,-9.159 -1.221,-24.424 1.222,-31.751c0.61,-1.221 1.221,-3.053 1.831,-3.663c0,-2.443 4.274,-10.38 7.327,-14.655c3.053,-5.495 14.044,-15.875 18.929,-18.928c7.327,-4.884 13.433,-7.327 21.981,-9.769c4.274,-1.221 6.716,-1.221 16.486,-1.221c10.99,-0 11.601,-0 18.317,1.831c12.212,3.664 22.592,9.77 31.14,18.318c10.38,10.991 16.486,23.813 18.318,39.688c1.221,6.717 1.221,8.548 0.61,14.044c-0.61,3.053 -0.61,6.716 -1.221,7.327c0,2.442 -3.053,10.99 -5.495,16.486c-9.159,19.538 -26.255,32.971 -47.626,37.856c-5.495,1.221 -17.707,1.832 -20.76,1.221Zm-674.699,107.464l-0,-345.593l95.252,0l-0,128.834l61.058,0l0,-128.834l94.031,0l-0,345.593l-93.42,-0l-0.611,-67.165l0,-67.165l-60.448,0l0,134.33l-95.862,-0Z" style="fill:#fff;"/></g></svg>