<?xml version="1.0" encoding="UTF-8" standalone="no"?><!DOCTYPE svg PUBLIC "-//W3C//DTD SVG 1.1//EN" "http://www.w3.org/Graphics/SVG/1.1/DTD/svg11.dtd"><svg width="100%" height="100%" viewBox="0 0 1500 1500" version="1.1" xmlns="http://www.w3.org/2000/svg" xmlns:xlink="http://www.w3.org/1999/xlink" xml:space="preserve" xmlns:serif="http://www.serif.com/" style="fill-rule:evenodd;clip-rule:evenodd;stroke-linejoin:round;stroke-miterlimit:2;"><g id="laemmle"><path id="border" d="M1500,375l0,750c0,206.968 -168.032,375 -375,375l-750,0c-206.968,0 -375,-168.032 -375,-375l0,-750c0,-206.968 168.032,-375 375,-375l750,0c206.968,0 375,168.032 375,375Zm-35.971,-0c-0,-187.115 -151.914,-339.029 -339.029,-339.029l-750,0c-187.115,0 -339.029,151.914 -339.029,339.029l0,750c0,187.115 151.914,339.029 339.029,339.029l750,-0c187.115,-0 339.029,-151.914 339.029,-339.029l-0,-750Z" style="fill:#fff;"/><path id="laemmle1" serif:id="laemmle" d="M383.379,1050.49c-2.25,-6 -9,-33.75 -10.5,-43.5c-0.75,-1.5 0.75,-3 5.25,-9c8.25,-9 17.25,-20.25 24.75,-31.5l6.75,-9.75l3,4.5c3.75,6 12.75,15.75 18.75,22.5l6,6l-1.5,2.25c-3,4.5 -15.75,21.75 -21.75,28.5c-7.5,9 -17.25,18.75 -24.75,25.5l-6,5.25l-0,-0.75Zm-109.5,-30c-4.5,-0 -11.25,-0.75 -15,-1.5l-6.75,-0.75l-0,-0.75c-0,-0.75 16.5,-28.5 18,-30c0.75,-0.75 3,-1.5 8.25,-1.5c15.75,-1.5 33.75,-5.25 51.75,-10.5c12,-4.5 12,-4.5 24,-3.75c12,-0 27.75,-0.75 38.25,-2.25c3,-0.75 6,-1.5 6,-1.5l-0,0.75l-5.25,6c-8.25,9.75 -24,24 -33.75,32.25c-8.25,6.75 -8.25,6.75 -15.75,8.25c-9,2.25 -18.75,3.75 -27.75,4.5c-10.5,0.75 -32.25,1.5 -42,0.75Zm-6.75,-45.75c-11.25,-3 -21.75,-7.5 -33.75,-13.5c-10.5,-5.25 -27.75,-16.5 -33,-21l-3,-3l9,-7.5c4.5,-3.75 9,-7.5 9.75,-7.5c0.75,0.75 6,0.75 12.75,1.5c12,-0 12,-0 15.75,3.75c12.75,11.25 29.25,21.75 44.25,28.5c9,3.75 24.75,9 29.25,10.5c1.5,-0 3,0.75 3.75,0.75l-0,0.75l-5.25,1.5c-11.25,3 -23.25,6 -37.5,7.5c-2.25,0.75 -6,-0 -12,-2.25Zm67.5,-18c-25.5,-3 -56.25,-12.75 -70.5,-24c-8.25,-6 -22.5,-20.25 -30,-28.5c-15.75,-20.25 -28.5,-45.75 -36.75,-72.75c-3.75,-13.5 -7.5,-35.25 -9,-49.5l-0,-7.5l-0.75,3c-1.5,6 -1.5,31.5 -0.75,43.5c0.75,11.25 1.5,19.5 3,24l-0,2.25l-0.75,-0.75c-0.75,-1.5 -6,-15 -9,-23.25c-4.5,-15 -9,-34.5 -10.5,-51.75c-0.75,-7.5 -0.75,-7.5 4.5,-18.75c6.75,-13.5 21,-37.5 22.5,-37.5l0.75,-0l-0,15c-0,20.25 3,45.75 6.75,58.5c1.5,3.75 1.5,3.75 -1.5,10.5c-1.5,3 -3,9.75 -4.5,13.5c-2.25,7.5 -2.25,7.5 -0,15l2.25,6.75c0.75,-0 2.25,-3.75 3.75,-8.25c5.25,-13.5 19.5,-39.75 21.75,-41.25l0.75,-0.75l-0.75,5.25c-0.75,5.25 -1.5,30 -0.75,40.5c-0,6.75 -0,8.25 -2.25,18c-1.5,5.25 -3.75,12.75 -3.75,16.5c-1.5,6.75 -1.5,6.75 1.5,9.75l2.25,3.75l4.5,-9c3.75,-7.5 11.25,-19.5 15.75,-26.25l1.5,-1.5l0.75,5.25c3,9.75 7.5,23.25 12,32.25c3.75,8.25 3.75,8.25 3,16.5l-0,15c0.75,7.5 0.75,7.5 4.5,10.5l3.75,2.25l-0,-0.75c-0,-0 1.5,-3.75 3,-7.5c6.75,-16.5 9,-21 14.25,-26.25c4.5,-5.25 4.5,-5.25 -4.5,-47.25c-15,-74.25 -24.75,-123 -24.75,-123.75l-0,-1.5l26.25,-4.5c14.25,-3 25.5,-5.25 25.5,-5.25c0.75,-0 1.5,6 2.25,12.75c6,34.5 11.25,60 17.25,85.5c3,15.75 6,28.5 6,28.5c0.75,-0 21.75,-3.75 34.5,-6.75l14.25,-3l0.75,0.75c0.75,0.75 0.75,3 0.75,5.25c-0,6 1.5,13.5 4.5,29.25l3,15l-0.75,0.75c-0.75,-0 -3,0.75 -5.25,1.5c-3,0.75 -5.25,1.5 -6,1.5l-0.75,0.75l3.75,6c4.5,6.75 12.75,15.75 19.5,21c3.75,3.75 3.75,3.75 2.25,14.25c-0.75,5.25 -2.25,13.5 -3,17.25c-0.75,4.5 -1.5,8.25 -1.5,8.25l0.75,-0l11.25,-5.25c12,-6 21.75,-11.25 30.75,-18c3.75,-3 9,-5.25 12.75,-7.5c9.75,-3.75 25.5,-12 35.25,-18l8.25,-4.5l-4.5,4.5c-21.75,21.75 -55.5,43.5 -81.75,52.5c-12.75,3.75 -30,7.5 -39.75,8.25c-10.5,0.75 -30.75,0.75 -38.25,-0Zm59.25,-9.75l3,-1.5l-4.5,-2.25c-6,-3.75 -14.25,-10.5 -20.25,-15.75c-5.25,-4.5 -5.25,-4.5 -4.5,-14.25c0.75,-6 1.5,-15.75 2.25,-21.75c0.75,-6.75 1.5,-12 1.5,-12c-0,-0.75 -36.75,7.5 -39,8.25l3,5.25c9.75,21 26.25,38.25 46.5,50.25l6,3.75l-0.75,1.5l-0.75,0.75l2.25,-0.75c1.5,-0 3.75,-0.75 5.25,-1.5Zm-66.75,-0.75c-3,-0.75 -3,-0.75 -3.75,-4.5c-0.75,-5.25 0.75,-37.5 1.5,-45c0.75,-3.75 1.5,-7.5 1.5,-7.5c-0.75,-0 -6.75,0.75 -13.5,3l-12.75,2.25l2.25,3.75c3,5.25 9.75,15 12.75,19.5c2.25,2.25 3.75,4.5 3.75,5.25c-0.75,1.5 -3.75,21 -3.75,21c0.75,0.75 12.75,3.75 14.25,3.75l1.5,-0l-3.75,-1.5Zm-101.25,-31.5c-0.75,-0 -6,-0.75 -10.5,-1.5c-8.25,-1.5 -8.25,-1.5 -13.5,-6.75c-15,-15.75 -27.75,-35.25 -38.25,-57.75l-3,-6.75l-0,-0.75l0.75,-0l8.25,3c4.5,2.25 11.25,4.5 15,6c6.75,1.5 6.75,1.5 10.5,9.75c7.5,17.25 20.25,36 32.25,48.75l6,6.75l-3,-0c-1.5,-0 -3.75,-0 -4.5,-0.75Zm171,-46.5c0.75,-3.75 1.5,-13.5 3.75,-52.5c-0,-12 0.75,-37.5 1.5,-57.75c-0,-20.25 0.75,-45 1.5,-54.75l-0,-18.75l34.5,-6.75c18.75,-3.75 34.5,-6.75 36,-7.5l1.5,-0l16.5,35.25c21.75,44.25 33.75,69 51.75,103.5c8.25,15 14.25,27.75 14.25,27.75l-0,0.75l-9.75,3c-5.25,1.5 -13.5,3.75 -18.75,5.25c-6,1.5 -15,3.75 -21,6c-5.25,2.25 -10.5,3.75 -10.5,3.75c-0,-0 -3.75,-6.75 -8.25,-15.75l-6.75,-15l-3.75,-0c-1.5,0.75 -9.75,2.25 -17.25,3.75l-14.25,2.25l-0,2.25c-0.75,1.5 -0.75,8.25 -1.5,15.75c-0,7.5 -0,13.5 -0.75,15l-0,1.5l-11.25,-0c-10.5,0.75 -13.5,0.75 -24,3.75c-6.75,1.5 -12,3 -12.75,3l-0.75,-0l-0,-3.75Zm62.25,-78.75l10.5,-2.25l-11.25,-21.75l-11.25,-21l-0,15.75c0.75,9 0.75,19.5 0.75,24l-0,7.5l0.75,-0c-0,-0 5.25,-0.75 10.5,-2.25Zm108,48c-0.75,-0.75 -2.25,-11.25 -4.5,-22.5c-5.25,-33 -10.5,-63 -15,-85.5c-5.25,-29.25 -13.5,-71.25 -13.5,-72c-0,-0 6.75,-0.75 14.25,-2.25c6.75,-1.5 21.75,-5.25 32.25,-7.5c16.5,-3.75 48,-10.5 53.25,-11.25l1.5,-0l0.75,3.75c1.5,5.25 8.25,40.5 9,42l-0,1.5l-1.5,-0c-4.5,-0 -20.25,3 -30.75,6.75c-6.75,1.5 -12,3 -12,3c-0,0.75 0.75,4.5 2.25,9.75l1.5,9.75l1.5,-0c1.5,-0.75 30,-6.75 31.5,-6.75l0.75,-0l1.5,6.75c-0,3.75 1.5,12 2.25,18c1.5,6 2.25,12.75 2.25,15l-0,3l-1.5,-0c-12,3 -29.25,7.5 -30,7.5c-0,0.75 0.75,4.5 1.5,9l2.25,8.25l3.75,-0c5.25,-0 13.5,-2.25 27.75,-6.75c6.75,-2.25 12,-3.75 12.75,-3.75l0.75,-0l1.5,12.75c1.5,13.5 3,19.5 7.5,31.5c1.5,3.75 2.25,7.5 2.25,7.5c-0,0.75 -7.5,1.5 -16.5,3c-25.5,4.5 -37.5,7.5 -71.25,17.25c-9,2.25 -17.25,4.5 -17.25,4.5l-0.75,-0l-0,-2.25Zm123.75,-28.5c-0,-2.25 -13.5,-66 -20.25,-93c-3,-13.5 -15.75,-70.5 -18,-81l-0,-2.25l3.75,-0c9,-1.5 27.75,-6 42.75,-9.75c22.5,-6.75 35.25,-9.75 36,-9.75c-0,-0 2.25,6.75 4.5,15c6.75,22.5 10.5,32.25 21.75,56.25l10.5,21.75l-0,-3.75c0.75,-1.5 0.75,-12.75 0.75,-23.25c-0,-20.25 -0,-21 -3,-45c-1.5,-12.75 -3,-24.75 -3,-25.5l-0,-2.25l6,-0c24.75,-2.25 27,-2.25 50.25,-9.75c9.75,-3 17.25,-5.25 18,-5.25l0.75,-0l2.25,12c6,30 13.5,63.75 19.5,88.5c5.25,21.75 18.75,72.75 20.25,76.5l-0,1.5l-6.75,0.75c-3.75,-0 -13.5,2.25 -21.75,5.25c-8.25,2.25 -15,3.75 -15,3.75c-0.75,-0 -6.75,-24 -13.5,-53.25c-6.75,-29.25 -12.75,-53.25 -13.5,-53.25l0.75,21.75c-0,12.75 -0,28.5 -0.75,39.75c-0.75,18 -3,48.75 -3.75,48.75c-0,0.75 -9.75,3 -21.75,6c-15.75,3.75 -21,5.25 -21.75,4.5c-0.75,-1.5 -20.25,-33 -24.75,-42c-2.25,-4.5 -9,-17.25 -15,-28.5l-10.5,-21l-0.75,-0c-0,0.75 9,53.25 10.5,59.25c6.75,30 9,39 8.25,39.75c-0.75,0.75 -39,8.25 -41.25,8.25l-1.5,-0l-0,-0.75Zm213.75,-44.25c-0.75,-1.5 -39.75,-176.25 -39.75,-177c0.75,-0.75 2.25,-1.5 5.25,-1.5c6.75,-1.5 23.25,-4.5 40.5,-9c9,-1.5 21,-4.5 26.25,-6l9.75,-2.25l6.75,21.75c7.5,21 15.75,41.25 26.25,63.75l3.75,7.5l-0.75,-36.75c-0,-27.75 -0,-40.5 -1.5,-51c-0.75,-7.5 -0.75,-13.5 -0.75,-14.25l4.5,-0c13.5,-0 37.5,-4.5 60.75,-12c5.25,-1.5 9,-2.25 9,-2.25c0.75,-0 5.25,22.5 10.5,49.5c15.75,72 20.25,95.25 25.5,113.25c2.25,8.25 3.75,15.75 3.75,15.75c-0,-0 -9.75,2.25 -20.25,4.5l-20.25,4.5l-0.75,-0.75c-0,-0 -6.75,-24 -13.5,-52.5l-13.5,-52.5l-0.75,3c-0,2.25 -0,18.75 -0.75,37.5c-0.75,30.75 -3,71.25 -3.75,72c-0,-0 -9.75,2.25 -20.25,5.25c-11.25,2.25 -21,4.5 -21.75,5.25l-0.75,-0l-8.25,-15c-13.5,-22.5 -22.5,-39 -33.75,-59.25l-9.75,-18.75l-0.75,-0c-0,-0 4.5,22.5 10.5,48.75c6,27 10.5,48.75 10.5,49.5c-0,-0 -9.75,2.25 -20.25,4.5c-11.25,2.25 -21,4.5 -21,5.25l-0.75,-0l-0,-0.75Zm192.75,-133.5c-9.75,-48.75 -18,-89.25 -18,-90l-0,-0.75l25.5,-5.25l24.75,-5.25l0.75,0.75c-0,-0 6.75,27.75 13.5,61.5c7.5,33.75 14.25,61.5 14.25,61.5c-0,0.75 4.5,-0 9.75,-0.75c4.5,-1.5 13.5,-3 19.5,-3.75c5.25,-0.75 12,-2.25 15,-2.25c3,-0.75 5.25,-1.5 5.25,-1.5c-0,0.75 5.25,54 5.25,54c-0.75,0.75 -94.5,21 -96,21l-1.5,-0l-18,-89.25Zm116.25,-24.75c-9,-48.75 -16.5,-88.5 -16.5,-88.5c-0,-0.75 6,-1.5 13.5,-3c6.75,-1.5 23.25,-6 36,-9c30.75,-8.25 50.25,-12.75 51.75,-12.75l1.5,-0l3,23.25c1.5,13.5 3,24 3,24c-0,0.75 -9.75,3 -20.25,5.25c-11.25,3 -21,5.25 -21,5.25c-0.75,0.75 1.5,12.75 3.75,17.25l1.5,3l0.75,-0c1.5,-1.5 30,-8.25 30,-7.5c0.75,0.75 9,41.25 9,41.25c-0,0.75 -7.5,2.25 -16.5,4.5c-9,2.25 -16.5,3.75 -17.25,3.75l-0.75,0.75l3,9.75c0.75,5.25 2.25,9 2.25,9.75c-0,-0 9.75,-2.25 21,-5.25c11.25,-2.25 21,-4.5 21.75,-4.5c1.5,0.75 14.25,48 12.75,48.75c-0.75,0.75 -102,22.5 -104.25,22.5l-1.5,-0l-16.5,-88.5Zm-962.25,69c-0.75,-6.75 -3,-15 -3.75,-19.5c-1.5,-4.5 -2.25,-8.25 -2.25,-9l-0,-0.75l14.25,-3c7.5,-2.25 15,-3.75 16.5,-3.75l3,-0l0.75,2.25c0.75,2.25 0.75,3.75 -0,3.75c-0,-0 -3.75,1.5 -8.25,2.25c-4.5,0.75 -8.25,2.25 -9.75,2.25l-1.5,0.75l0.75,3.75c0.75,1.5 1.5,3 2.25,3.75l15,-3c0.75,0.75 1.5,7.5 1.5,8.25c-0.75,-0 -3,0.75 -6,1.5c-3,-0 -7.5,1.5 -9.75,1.5l-4.5,1.5l0.75,3c-0,1.5 0.75,3 0.75,3c-0,0.75 6,-0.75 12.75,-2.25c6,-0.75 12,-2.25 12,-2.25l0.75,-0l0.75,5.25c0.75,2.25 1.5,5.25 0.75,5.25c-0,-0 -5.25,0.75 -12,2.25c-7.5,1.5 -14.25,3 -16.5,3c-2.25,0.75 -4.5,1.5 -5.25,1.5l-1.5,-0l-1.5,-11.25Zm47.25,-0c-5.25,-2.25 -6.75,-3.75 -8.25,-9l-0.75,-1.5l3.75,-0c2.25,-0.75 5.25,-0.75 6.75,-1.5l3,-0l-0,1.5l0.75,2.25l3,-0.75l6,-0l3.75,-0.75l-0,-3c-0.75,-1.5 -0.75,-3 -1.5,-3.75l-0,-1.5l-5.25,0.75c-8.25,1.5 -15.75,0.75 -18.75,-1.5c-4.5,-3 -6.75,-11.25 -3.75,-15.75c2.25,-5.25 12.75,-9.75 23.25,-9.75c6.75,-0 11.25,3 12,8.25l0.75,2.25l-3,-0c-2.25,0.75 -4.5,0.75 -6.75,1.5l-3,-0l-0,-2.25l-0.75,-1.5l-4.5,-0c-2.25,0.75 -5.25,1.5 -6.75,1.5l-1.5,0.75l0.75,2.25c-0,0.75 -0,2.25 0.75,3l-0,1.5l1.5,-0.75c0.75,-0 5.25,-0 9.75,-0.75c8.25,-0 9,-0 12,1.5c9.75,4.5 9.75,17.25 0.75,23.25c-5.25,3.75 -18.75,6 -24,3.75Zm47.25,-9c-0.75,-0.75 -1.5,-7.5 -3,-15c-1.5,-7.5 -2.25,-14.25 -2.25,-14.25c-0,-0 -3,0.75 -6,1.5c-3,-0 -5.25,0.75 -6,0.75c-0,-0.75 -1.5,-10.5 -1.5,-11.25c0.75,-0 3.75,-0.75 7.5,-1.5c3.75,-0.75 10.5,-1.5 16.5,-3l9.75,-2.25l-0,1.5c-0,0.75 -0,3 0.75,4.5l-0,3.75l-4.5,0.75l-5.25,-0l0.75,3c-0,1.5 1.5,8.25 3,15.75c0.75,7.5 2.25,13.5 2.25,14.25l-0,0.75l-2.25,-0c-1.5,0.75 -4.5,0.75 -6,1.5l-3.75,-0l-0,-0.75Zm56.25,-14.25c-0.75,-1.5 -1.5,-6.75 -1.5,-12c-0.75,-5.25 -1.5,-11.25 -2.25,-13.5c-0.75,-2.25 -0.75,-3.75 -0.75,-4.5l-3,0.75l-3,-0l-0,-1.5c-0.75,-0.75 -0.75,-2.25 -0.75,-3l-0,-1.5l6.75,-2.25c3.75,-1.5 6.75,-2.25 7.5,-2.25l1.5,-0.75l-0,0.75c0.75,0.75 0.75,4.5 1.5,8.25c0.75,6.75 3.75,24 6,30.75l-0,2.25l-1.5,-0c-0.75,0.75 -3.75,0.75 -6,1.5l-4.5,-0l-0,-3Zm30.75,-4.5c-3,-1.5 -4.5,-4.5 -5.25,-7.5l-0,-3l2.25,-0c1.5,-0.75 3.75,-0.75 5.25,-0.75l3,-0l-0,1.5c-0,0.75 -0,1.5 0.75,2.25l0.75,0.75l3.75,-0.75l4.5,-0.75l-0,-1.5c-0.75,-0.75 -0.75,-2.25 -0.75,-4.5l-0.75,-3l-4.5,1.5c-10.5,3.75 -18,-1.5 -18,-12.75c-0,-4.5 1.5,-8.25 4.5,-11.25c3.75,-3 7.5,-3.75 13.5,-3.75c6,-0 10.5,2.25 12.75,6c2.25,3 4.5,13.5 4.5,20.25c-0,7.5 -1.5,10.5 -4.5,13.5c-5.25,5.25 -16.5,6.75 -21.75,3.75Zm10.5,-24l3.75,-0l-0,-0.75c-0,-0.75 -0.75,-3 -1.5,-6l-0.75,-5.25l-0.75,-0c-0,-0 -2.25,0.75 -4.5,0.75l-4.5,0.75l-0,0.75c-0,0.75 0.75,3 0.75,6l0.75,5.25l1.5,-0c1.5,-0.75 3.75,-0.75 5.25,-1.5Zm28.5,16.5c-3,-1.5 -4.5,-4.5 -5.25,-8.25l-0.75,-2.25l5.25,-0.75c3,-0 5.25,-0.75 6,-0.75l0.75,-0l0.75,3l-0,3l3.75,-0c1.5,-0.75 3.75,-1.5 3.75,-1.5c0.75,-0 0.75,-2.25 -0,-5.25l-1.5,-3.75l-9,-0l-0,-3.75c-0.75,-3.75 -0,-4.5 3,-4.5c2.25,-0 3,-0.75 2.25,-6l-0.75,-3.75l-7.5,-0l-0,3.75l0.75,3.75l-2.25,-0c-1.5,0.75 -3.75,0.75 -5.25,0.75l-3,0.75l-0,-5.25c-0,-3.75 0.75,-5.25 2.25,-7.5c2.25,-3 7.5,-5.25 12.75,-6c9,-0.75 14.25,4.5 14.25,12.75c-0,3 -0,3.75 -2.25,6l-3,2.25l3,0.75c8.25,0.75 10.5,11.25 5.25,17.25c-4.5,5.25 -17.25,8.25 -23.25,5.25Zm36.75,-8.25c-3,-1.5 -4.5,-3.75 -5.25,-7.5c-0.75,-3.75 -0,-7.5 3.75,-10.5l2.25,-3l-0.75,-0c-6.75,-0 -10.5,-9.75 -6.75,-15.75c3,-4.5 14.25,-8.25 21,-6.75c6,1.5 9,4.5 9,10.5c-0,3.75 -2.25,8.25 -4.5,9l-0.75,-0l-0,1.5l2.25,-0c4.5,-0 8.25,4.5 8.25,10.5c-0,4.5 -1.5,6.75 -5.25,9.75c-6,3.75 -18,5.25 -23.25,2.25Zm12,-7.5l4.5,-0.75l-0,-1.5c-0,-0.75 -0,-3 -0.75,-5.25l-0.75,-3.75l-1.5,-0c-0.75,-0 -8.25,1.5 -9,2.25c-0,-0 -0,1.5 0.75,3c-0,1.5 0.75,3.75 0.75,4.5l0.75,2.25l0.75,-0c-0,-0 2.25,-0.75 4.5,-0.75Zm0.75,-18.75c-0,-0.75 -0.75,-8.25 -1.5,-9l-0.75,-0.75l-7.5,1.5l-0,1.5c0.75,0.75 0.75,2.25 1.5,4.5l0.75,3l3.75,-0c1.5,-0.75 3.75,-0.75 3.75,-0.75Zm801.75,-105.75c-0.75,-0 -0.75,-0.75 -0.75,-2.25c-0,-2.25 -0.75,-3 -2.25,-3l-0.75,-0l-0.75,-1.5l-0,-0.75l1.5,-0c0.75,-0.75 2.25,-0.75 3.75,-1.5l2.25,-0l-0,0.75c-0,-0 -0.75,0.75 -0.75,1.5c-0.75,-0 -0.75,1.5 -0.75,3.75l0.75,3.75l-0.75,-0c-0.75,-0 -1.5,-0 -1.5,-0.75Zm5.25,-3.75l-0,-5.25c1.5,-1.5 3,-0.75 4.5,2.25l0.75,3l0.75,-3.75l-0,-3l3,-0l1.5,3.75c0.75,4.5 0.75,5.25 -0.75,5.25l-0.75,-0l-1.5,-6l-0,1.5c-0,2.25 -1.5,5.25 -2.25,5.25l-0.75,-0l-0.75,-2.25c-0.75,-1.5 -1.5,-2.25 -1.5,-3l-0.75,-0l-0,0.75c0.75,0.75 0.75,2.25 0.75,3l0.75,2.25l-2.25,-0l-0.75,-3.75Z" style="fill:#fff;fill-rule:nonzero;"/></g></svg>