<svg clip-rule="evenodd" fill-rule="evenodd" stroke-linejoin="round" stroke-miterlimit="2" version="1.1" viewBox="0 0 323 316" xml:space="preserve" xmlns="http://www.w3.org/2000/svg"><g id="logo-reversed"><path id="purple" d="m255.97 98.582 50.528 29.45c19.759 12.218 22.772 43.894 3.045 58.339-1.306 0.956-1.669 1.143-3.045 1.994l-211.46 123.25c-20.39 11.178-49.732-2.05-52.308-26.51-0.17-1.62-0.149-2.03-0.192-3.657v-75.944l39.281 44.477c0.957 1.022 1.176 1.301 2.22 2.236 8.328 7.461 21.181 8.867 30.855 3.623 2.538-1.376 3.845-2.101 7.364-5.859l133.71-151.4zm-213.43 27.524v-91.158c0.157-5.959 0.676-7.615 1.716-10.81 4.16-12.777 16.21-22.552 29.651-23.926 3.531-0.36 4.361-0.16 5.489-0.127 5.352 0.439 8.473 0.765 15.644 4.697l113.41 66.102-106.41 120.49-52.82-59.809c-0.972-1.036-1.193-1.319-2.254-2.266-1.36-1.214-2.847-2.282-4.426-3.192z" fill="#ae4ed8"/><path d="m273.15 15.484c-6.822 0.146-13.173 3.763-18.539 8.122 0 0-150.55 170.37-150.55 170.37-2.244 1.422-2.767 1.18-4.476-0.423l-52.792-59.777c-7.647-8.212-20.66-10.857-30.074-4.225-11.039 7.777-13.899 25.205-5.424 35.604l72.969 82.623c9.019 9.693 25.483 10.582 35.295 0.291l170.64-193.2c11.502-13.738 4.956-37.738-16.734-39.38-0.16-1e-3 -0.159-1e-3 -0.318 1e-3z" fill="#fff"/><path id="white" d="m273.73 8.911c10.767 0.815 21.135 7.423 25.65 17.273 4.871 10.623 3.463 23.816-4.197 32.965l-170.49 193.05c-11.657 12.375-33.197 13.003-45.303-7e-3l-73.111-82.785c-12.406-15.222-5.705-42.336 13.736-48.817 11.037-3.679 23.736 0.275 31.645 8.768l50.385 57.052 148.09-167.63c6.746-5.697 14.382-9.919 23.599-9.87zm-0.583 6.573c-6.822 0.146-13.173 3.763-18.539 8.122 0 0-150.55 170.37-150.55 170.37-2.244 1.422-2.767 1.18-4.476-0.423l-52.792-59.777c-7.647-8.212-20.66-10.857-30.074-4.225-11.039 7.777-13.899 25.205-5.424 35.604l72.969 82.623c9.019 9.693 25.483 10.582 35.295 0.291l170.64-193.2c11.502-13.738 4.956-37.738-16.734-39.38-0.16-1e-3 -0.159-1e-3 -0.318 1e-3z" fill-rule="nonzero"/></g></svg>
