<?xml version="1.0" encoding="UTF-8" standalone="no"?>
<!DOCTYPE svg PUBLIC "-//W3C//DTD SVG 1.1//EN" "http://www.w3.org/Graphics/SVG/1.1/DTD/svg11.dtd">
<svg width="100%" height="100%" viewBox="0 0 7452 1316" version="1.1" xmlns="http://www.w3.org/2000/svg" xmlns:xlink="http://www.w3.org/1999/xlink" xml:space="preserve" xmlns:serif="http://www.serif.com/" style="fill-rule:evenodd;clip-rule:evenodd;stroke-linejoin:round;stroke-miterlimit:2;">
    <g transform="matrix(3.125,0,0,3.125,0,0)">
        <g transform="matrix(1,0,0,1,4.58743,0)">
            <g id="logo-reversed">
                <path d="M48.247,168.034L48.247,46.598C48.455,38.652 49.147,36.443 50.534,32.184C56.081,15.148 72.148,2.115 90.069,0.283C94.777,-0.198 95.883,0.07 97.387,0.114C104.524,0.699 108.685,1.134 118.246,6.376L269.199,94.36L327.261,28.657C327.38,28.522 327.504,28.39 327.631,28.262C334.419,21.453 345.284,16.219 355.562,15.981C355.871,15.973 356.181,15.982 356.49,16.007C389.406,18.647 399.531,55.115 382.101,76.061C382.096,76.068 382.091,76.074 382.086,76.08L333.063,131.584L400.189,170.71C426.534,187 430.552,229.235 404.249,248.494C402.507,249.77 402.024,250.019 400.189,251.154L118.246,415.488C91.059,430.393 51.937,412.754 48.503,380.142C48.275,377.982 48.303,377.435 48.247,375.266L48.247,274.433L3.137,223.358C3.052,223.261 2.968,223.162 2.887,223.062C-9.935,207.217 -5.66,180.736 11.12,168.914C22.304,161.035 36.813,161.553 48.247,168.034ZM355.77,24.978C380.63,26.972 388.347,54.485 375.183,70.305C375.164,70.328 151.83,323.185 147.736,327.82C136.422,339.619 117.508,338.591 107.099,327.477C107.076,327.453 9.883,217.4 9.883,217.4C0.138,205.358 3.55,185.256 16.304,176.272C27.07,168.687 41.914,171.894 50.683,181.261C50.698,181.276 121.047,260.934 121.047,260.934C121.137,261.036 121.232,261.133 121.331,261.227C123.393,263.16 124.934,263.955 126.441,264.155C127.98,264.36 129.821,264.04 132.583,262.289C132.928,262.071 133.24,261.804 133.511,261.498L334.005,34.616C339.3,29.304 347.752,25.164 355.77,24.978ZM1764.43,112.121C1765.28,112.968 1765.64,113.128 1766.03,114.312C1766.17,114.746 1766.17,115.214 1766.24,115.666C1766.24,155.816 1766.31,195.966 1766.24,236.116C1766.17,251.196 1762.04,266.219 1753.55,278.844C1741.56,296.681 1721.31,308.316 1700.08,312.605C1669.68,318.746 1636.06,313.147 1612.77,292.33C1597.25,278.452 1588.66,257.823 1588.57,236.116L1588.57,235.838L1588.57,115.666L1588.78,114.312C1588.99,113.904 1589.13,113.46 1589.4,113.09C1589.95,112.341 1590.72,111.784 1591.6,111.498C1592.03,111.357 1592.5,111.355 1592.95,111.284L1630.29,111.284C1631.19,111.427 1632.13,111.586 1632.86,112.121C1633.61,112.665 1634.17,113.432 1634.45,114.312C1634.6,114.746 1634.6,115.214 1634.67,115.666C1634.67,155.355 1634.57,195.044 1634.67,234.734C1634.74,245.684 1637.83,257.03 1645.66,264.716C1655.73,274.592 1671.26,277.017 1685.9,275.224C1695.69,274.024 1705.27,269.776 1711.49,262.134C1717.66,254.549 1720.12,244.321 1720.14,234.489L1720.14,115.666C1720.28,114.758 1720.44,113.825 1720.98,113.09C1721.52,112.341 1722.29,111.784 1723.17,111.498C1723.6,111.357 1724.07,111.355 1724.52,111.284L1761.86,111.284L1763.21,111.498C1763.62,111.706 1764.03,111.913 1764.43,112.121ZM1471.78,106.456C1494.28,106.547 1517.05,111.934 1536.08,123.995C1541.63,127.511 1546.67,131.843 1550.88,136.884C1550.88,136.884 1551.38,137.498 1551.61,138.02C1552.27,139.5 1552.02,141.311 1551.03,142.546C1550.78,142.857 1550.45,143.095 1550.16,143.369L1521.71,163.755C1521.32,163.954 1520.96,164.214 1520.54,164.352C1519.28,164.773 1517.84,164.569 1516.75,163.849C1515.54,163.052 1514.8,161.782 1513.82,160.731C1507.02,153.497 1497.57,149.306 1487.63,146.945C1459.9,140.364 1428.24,150.753 1413.02,174.827C1405.3,187.031 1402.4,201.927 1403.46,216.442C1404.53,230.969 1409.87,245.342 1419.89,256.033C1427.62,264.284 1437.85,270.094 1448.73,273.058C1457.38,275.417 1466.46,276.112 1475.38,275.542C1491.48,274.513 1507.47,267.775 1517.53,255.341L1518.47,254.479C1519.65,253.906 1520.91,253.536 1522.13,253.881C1522.54,253.996 1522.91,254.228 1523.29,254.401L1553.22,273.446C1554.06,274.164 1554.38,274.288 1554.86,275.323C1555.64,277.045 1555.32,278.766 1553.24,281.066C1540.39,295.272 1523.27,305.51 1504.67,310.515C1493.42,313.542 1481.73,314.756 1470.11,314.786C1434.01,314.877 1397.05,302.271 1374.08,272.711C1363.36,258.901 1356.46,242.194 1354.21,224.84C1351.45,203.586 1354.48,181.632 1364.68,162.609C1373.66,145.865 1387.73,132.032 1404.34,122.748C1424.36,111.558 1447.46,106.588 1470.67,106.457C1471.04,106.456 1471.41,106.455 1471.78,106.456ZM998.803,160.193C993.272,153.397 986.061,148.435 977.171,145.306C968.281,142.176 959.589,140.612 951.094,140.612C940.228,140.612 930.35,142.4 921.461,145.976C912.571,149.553 904.915,154.47 898.495,160.729C892.074,166.988 887.135,174.32 883.678,182.724C880.221,191.129 878.492,200.249 878.492,210.084C878.492,220.456 880.172,229.934 883.53,238.517C886.888,247.101 891.679,254.477 897.902,260.646C904.125,266.816 911.583,271.599 920.275,274.997C928.968,278.395 938.747,280.093 949.612,280.093C960.873,280.093 970.849,278.082 979.542,274.058C988.234,270.035 995.247,264.715 1000.58,258.098L1030.51,277.143C1021.23,287.693 1009.87,295.874 996.433,301.686C982.999,307.498 967.293,310.404 949.316,310.404C932.919,310.404 917.855,307.945 904.125,303.027C890.395,298.11 878.591,291.225 868.713,282.373C858.836,273.522 851.131,262.971 845.599,250.722C840.068,238.472 837.302,224.927 837.302,210.084C837.302,194.884 840.216,181.16 846.044,168.91C851.872,156.661 859.873,146.245 870.047,137.661C880.221,129.078 892.222,122.461 906.051,117.812C919.88,113.162 934.894,110.838 951.094,110.838C957.811,110.838 964.824,111.419 972.133,112.581C979.443,113.744 986.456,115.532 993.173,117.946C999.89,120.36 1006.21,123.355 1012.14,126.932C1018.07,130.508 1023.1,134.8 1027.25,139.807L998.803,160.193ZM2254.66,309.958L2217.32,309.958C2216.41,309.814 2215.48,309.655 2214.74,309.121C2214,308.577 2213.44,307.81 2213.15,306.93C2213.01,306.495 2213.01,306.027 2212.94,305.576L2212.94,115.666C2213.01,115.214 2213.01,114.746 2213.15,114.312C2213.59,112.984 2214.68,111.917 2215.97,111.498C2216.4,111.357 2216.87,111.355 2217.32,111.284C2241.7,111.284 2266.08,111.267 2290.46,111.284C2310.81,111.326 2331.65,114.465 2348.27,125.427C2356.78,131.035 2363.88,138.842 2367.93,148.449C2370.54,154.645 2371.73,161.394 2371.92,168.137C2372.32,182.828 2367.52,197.687 2356.45,208.164C2348.22,215.957 2337.81,221.074 2326.78,224.126L2326.68,224.154L2379.21,303.149L2379.78,304.37C2379.95,305.727 2379.86,307.161 2379.06,308.214C2378.51,308.939 2377.76,309.476 2376.89,309.751C2376.47,309.887 2376.01,309.889 2375.56,309.958L2330.52,309.958C2329.39,309.811 2328.27,309.501 2327.47,308.72C2327.2,308.459 2327,308.134 2326.77,307.841L2279.45,229.488L2259.04,229.488L2259.04,305.576C2258.97,306.027 2258.97,306.495 2258.83,306.93C2258.4,308.257 2257.3,309.324 2256.01,309.743C2255.58,309.885 2255.11,309.886 2254.66,309.958ZM1941.73,309.958L1815.2,309.958C1814.75,309.886 1814.28,309.885 1813.84,309.743C1812.52,309.312 1811.45,308.22 1811.03,306.93C1810.89,306.495 1810.89,306.027 1810.82,305.576L1810.82,115.666C1810.96,114.758 1811.12,113.825 1811.65,113.09C1812.2,112.341 1812.96,111.784 1813.84,111.498C1814.28,111.357 1814.75,111.355 1815.2,111.284L1852.54,111.284C1852.99,111.355 1853.44,111.427 1853.89,111.498C1854.3,111.706 1854.74,111.852 1855.11,112.121C1855.86,112.665 1856.42,113.432 1856.7,114.312C1856.85,114.746 1856.85,115.214 1856.92,115.666L1856.92,271.151L1941.73,271.151L1943.09,271.366C1943.49,271.573 1943.94,271.719 1944.31,271.988C1945.06,272.532 1945.61,273.299 1945.9,274.179C1946.04,274.614 1946.04,275.082 1946.12,275.533L1946.12,305.576C1946.04,306.027 1946.04,306.495 1945.9,306.93C1945.47,308.257 1944.38,309.324 1943.09,309.743C1942.65,309.885 1942.18,309.886 1941.73,309.958ZM1154.08,309.958L1116.74,309.958C1116.29,309.886 1115.82,309.885 1115.39,309.743C1114.06,309.312 1113,308.22 1112.58,306.93C1112.43,306.495 1112.43,306.027 1112.36,305.576L1112.36,149.554L1052.44,149.554L1051.09,149.339C1050.68,149.132 1050.23,148.986 1049.86,148.717C1049.12,148.173 1048.56,147.406 1048.27,146.526C1048.13,146.091 1048.13,145.623 1048.06,145.172L1048.06,115.666C1048.13,115.214 1048.13,114.746 1048.27,114.312C1048.7,112.984 1049.8,111.917 1051.09,111.498C1051.52,111.357 1051.99,111.355 1052.44,111.284L1218.38,111.284C1218.84,111.355 1219.29,111.427 1219.74,111.498C1220.15,111.706 1220.59,111.852 1220.96,112.121C1221.71,112.665 1222.27,113.432 1222.55,114.312C1222.69,114.746 1222.7,115.214 1222.77,115.666L1222.77,145.172C1222.62,146.08 1222.46,147.012 1221.93,147.747C1221.39,148.496 1220.62,149.053 1219.74,149.339C1219.31,149.481 1218.84,149.482 1218.38,149.554L1158.46,149.554L1158.46,305.576L1158.25,306.93C1158.04,307.337 1157.89,307.782 1157.63,308.151C1157.08,308.9 1156.32,309.457 1155.44,309.743C1155,309.885 1154.53,309.886 1154.08,309.958ZM2003.67,309.958L1961.88,309.958C1960.79,309.799 1960.45,309.87 1959.49,309.249C1958.1,308.343 1957.29,306.55 1957.56,304.879C1957.62,304.465 1957.81,304.078 1957.93,303.677L2049.2,113.768C2049.9,112.722 2050.76,111.794 2051.94,111.455C2052.33,111.342 2052.75,111.341 2053.15,111.284L2085.45,111.284C2085.86,111.341 2086.26,111.399 2086.67,111.456C2087.05,111.624 2087.45,111.742 2087.79,111.961C2088.73,112.554 2088.82,112.883 2089.41,113.783L2179.79,303.692C2180.42,305.73 2180.02,308.082 2178.22,309.251C2177.27,309.87 2176.93,309.8 2175.84,309.958L2133.16,309.958C2131.89,309.774 2130.65,309.38 2129.84,308.432C2129.57,308.115 2129.39,307.727 2129.17,307.374L2110.77,266.504L2025.5,266.504L2007.68,307.329C2007,308.431 2006.13,309.414 2004.92,309.775C2004.51,309.896 2004.08,309.897 2003.67,309.958ZM1300.77,309.958L1263.43,309.958C1262.98,309.886 1262.51,309.885 1262.07,309.743C1260.75,309.312 1259.68,308.22 1259.26,306.93C1259.12,306.495 1259.12,306.027 1259.05,305.576L1259.05,115.666C1259.19,114.758 1259.35,113.825 1259.88,113.09C1260.43,112.341 1261.19,111.784 1262.07,111.498C1262.51,111.357 1262.98,111.355 1263.43,111.284L1300.77,111.284C1301.22,111.355 1301.67,111.427 1302.12,111.498C1302.53,111.706 1302.97,111.852 1303.34,112.121C1304.09,112.665 1304.65,113.432 1304.93,114.312C1305.08,114.746 1305.08,115.214 1305.15,115.666L1305.15,305.576C1305.08,306.027 1305.08,306.495 1304.93,306.93C1304.5,308.257 1303.41,309.324 1302.12,309.743C1301.68,309.885 1301.22,309.886 1300.77,309.958ZM1471.88,136.231C1489.57,136.359 1507.71,141.831 1519.74,154.245L1519.82,154.329L1541.06,139.11C1540.91,138.961 1540.76,138.814 1540.61,138.667C1535.48,133.652 1529.31,129.83 1522.85,126.646C1500.62,115.69 1474.65,113.221 1450.42,116.658C1417.85,121.279 1386.6,138.247 1371.16,169.158C1362.26,186.974 1360.12,207.769 1363.46,227.444C1367.67,252.244 1382.75,274.754 1404.41,288.486C1427.52,303.133 1456.29,307.972 1483.5,305.389C1505.96,303.257 1528.05,294.222 1544.07,278.011L1521.78,263.823C1511.08,275.301 1495.93,282.118 1480.16,283.916C1465.16,285.623 1449.71,283.939 1435.65,277.659C1417.68,269.636 1403.71,253.791 1397.92,234.654C1390.96,211.666 1394.13,185.441 1408.36,166.122C1422.45,146.984 1446.51,136.39 1470.92,136.231C1471.24,136.229 1471.56,136.229 1471.88,136.231ZM1625.9,120.048L1597.33,120.048C1597.33,158.729 1597.27,197.409 1597.33,236.09C1597.42,255.834 1605.41,275.528 1621.81,288.473C1637.61,300.944 1658.29,306.197 1678.49,306.017C1697.77,305.844 1717.4,300.753 1732.69,288.624C1748.28,276.262 1757.44,256.869 1757.48,235.831L1757.48,120.048L1728.9,120.048L1728.9,234.498C1728.87,248.582 1724.47,262.877 1713.84,272.315C1702.01,282.828 1684.88,285.816 1668.63,284.016C1656.21,282.639 1643.94,277.174 1635.98,266.981C1628.92,257.943 1625.93,246.099 1625.9,234.499L1625.9,120.048ZM578.9,305.576L541.563,305.576L541.563,115.666L610.015,115.666C622.066,115.666 632.932,116.649 642.612,118.616C652.292,120.583 660.589,123.802 667.504,128.273C674.418,132.743 679.752,138.466 683.506,145.44C687.259,152.414 689.136,160.819 689.136,170.654C689.136,181.204 686.963,190.056 682.617,197.209C678.271,204.362 672.393,210.129 664.985,214.51C657.577,218.891 648.934,222.065 639.056,224.032C629.178,225.999 618.708,226.983 607.645,226.983L578.9,226.983L578.9,305.576ZM780.406,305.576L743.069,305.576L743.069,115.666L780.406,115.666L780.406,305.576ZM2290.22,120.048L2221.7,120.048L2221.7,301.193L2250.28,301.193L2250.28,225.105L2250.49,223.751C2250.7,223.344 2250.85,222.899 2251.11,222.53C2251.66,221.781 2252.43,221.224 2253.3,220.938C2253.74,220.796 2254.21,220.795 2254.66,220.723L2281.92,220.723C2283.06,220.87 2284.17,221.18 2284.97,221.961C2285.24,222.222 2285.44,222.547 2285.67,222.84L2332.99,301.193L2367.39,301.193L2315.91,223.777C2315.44,222.812 2315.21,222.577 2315.18,221.475C2315.13,219.868 2316.07,218.23 2317.52,217.469C2318.31,217.057 2319.17,216.957 2319.99,216.777C2333.4,213.804 2346.55,207.779 2354.91,196.865C2361.22,188.612 2363.59,177.728 2363.12,167.313C2362.74,159.05 2360.42,150.964 2355.36,144.051C2345.8,130.975 2328.88,124.453 2313.22,121.886C2305.62,120.639 2297.92,120.048 2290.22,120.048ZM1848.15,120.048L1819.58,120.048L1819.58,301.193L1937.35,301.193L1937.35,279.916L1852.54,279.916C1852.09,279.844 1851.62,279.842 1851.18,279.701C1849.86,279.27 1848.79,278.177 1848.37,276.888C1848.23,276.453 1848.23,275.985 1848.15,275.533L1848.15,120.048ZM1296.38,120.048L1267.81,120.048L1267.81,301.193L1296.38,301.193L1296.38,120.048ZM1214,120.048L1056.82,120.048L1056.82,140.789L1116.74,140.789C1117.19,140.861 1117.66,140.863 1118.1,141.004C1119.42,141.435 1120.49,142.528 1120.91,143.817C1121.05,144.252 1121.05,144.72 1121.13,145.172L1121.13,301.193L1149.7,301.193L1149.7,145.172C1149.77,144.72 1149.77,144.252 1149.91,143.817C1150.35,142.49 1151.44,141.423 1152.73,141.004C1153.16,140.863 1153.63,140.861 1154.08,140.789L1214,140.789L1214,120.048ZM2082.69,120.048L2055.91,120.048L1968.85,301.193L2000.8,301.193L2018.62,260.369L2019.28,259.294C2019.6,259.014 2019.88,258.686 2020.23,258.455C2021.19,257.828 2021.53,257.9 2022.63,257.739L2113.61,257.739C2114.88,257.923 2116.11,258.317 2116.93,259.266C2117.2,259.582 2117.38,259.971 2117.6,260.323L2136,301.193L2168.9,301.193L2082.69,120.048ZM2100.57,237.535L2035.37,237.535C2034.3,237.383 2033.97,237.451 2033.03,236.856C2031.62,235.964 2030.83,234.242 2031.02,232.625C2031.07,232.218 2031.24,231.832 2031.34,231.436L2064.23,154.184C2064.92,153.062 2065.79,152.065 2067.01,151.701C2067.83,151.459 2068.7,151.582 2069.55,151.709C2070.56,152.189 2070.91,152.222 2071.65,153.115C2071.92,153.444 2072.09,153.845 2072.31,154.21L2104.61,231.462C2104.88,232.503 2105.07,232.782 2104.89,233.876C2104.62,235.473 2103.37,236.905 2101.78,237.363C2101.39,237.476 2100.97,237.477 2100.57,237.535ZM2042,228.77L2093.98,228.77L2068.23,167.173C2059.49,187.706 2050.74,208.238 2042,228.77ZM2285.18,201.86L2254.66,201.86C2253.75,201.716 2252.82,201.557 2252.08,201.023C2251.34,200.479 2250.78,199.712 2250.49,198.831C2250.35,198.397 2250.35,197.929 2250.28,197.477L2250.28,144.099C2250.35,143.647 2250.35,143.179 2250.49,142.744C2250.92,141.417 2252.01,140.35 2253.3,139.931C2253.74,139.79 2254.21,139.788 2254.66,139.716C2266,139.716 2277.34,139.703 2288.67,139.717C2301.47,139.76 2314.74,141.255 2324.58,149.099C2326.06,150.279 2327.43,151.591 2328.68,153.016C2334.27,159.415 2335.74,168.719 2333.84,177.159C2331.74,186.53 2323.86,193.939 2314.7,197.505C2305.41,201.12 2295.11,201.851 2285.18,201.86ZM606.163,144.099L578.9,144.099L578.9,198.55L604.978,198.55C611.102,198.55 616.93,198.148 622.461,197.343C627.993,196.538 632.932,195.108 637.278,193.051C641.624,190.995 645.081,188.178 647.65,184.602C650.218,181.026 651.502,176.376 651.502,170.654C651.502,165.11 650.218,160.595 647.65,157.108C645.081,153.621 641.674,150.894 637.426,148.927C633.179,146.96 628.339,145.663 622.906,145.037C617.473,144.412 611.893,144.099 606.163,144.099ZM2259.04,148.481L2259.04,193.095C2273.95,193.095 2289.06,194.272 2303.33,191.627C2311.45,190.122 2319.8,186.766 2323.73,179.488C2325.65,175.935 2326.08,171.702 2325.76,167.846C2325.49,164.531 2324.31,161.318 2322.02,158.719C2316.66,152.621 2307.93,150.128 2300.01,149.186C2296.24,148.738 2292.45,148.494 2288.65,148.481C2278.78,148.469 2268.91,148.481 2259.04,148.481Z" style="fill:white;"/>
            </g>
        </g>
    </g>
</svg>
