<svg viewBox="0 0 100 100" xmlns="http://www.w3.org/2000/svg" fill-rule="evenodd" clip-rule="evenodd" stroke-linejoin="round" stroke-miterlimit="2"><path d="M25.033 2.01c1.629.133 2.578.233 4.76 1.429L94.13 40.938c6.012 3.718 6.929 13.355.927 17.75-.398.291-.508.348-.927.607l-64.337 37.5c-6.204 3.401-15.131-.624-15.915-8.066-.052-.493-.045-.618-.058-1.113V12.617c.047-1.813.205-2.317.522-3.289 1.265-3.888 4.932-6.862 9.021-7.28 1.075-.109 1.327-.048 1.67-.038z" fill="#ae4ed8"/><path d="M84.119 5.695c1.986.142 2.625.448 3.707 1.061 3.919 2.223 5.338 7.994 2.702 11.806-.246.356-.323.434-.6.766L38.075 78.042c-1.071 1.144-1.468 1.364-2.241 1.783-2.943 1.595-6.853 1.168-9.387-1.102-.318-.285-.385-.37-.676-.681L3.548 52.879c-3.918-4.711-.945-13.351 5.809-13.633a8.296 8.296 0 015.809 2.077c.323.289.39.375.686.69L31.923 60.21 77.624 8.462s3.252-2.807 6.495-2.767z" fill="#fff" fill-rule="nonzero"/><path d="M84.159 4.695c3.276.248 6.431 2.259 7.805 5.255 1.481 3.233 1.053 7.247-1.278 10.03L38.814 78.716c-3.547 3.765-10.101 3.956-13.784-.002L2.785 53.526c-3.774-4.631-1.735-12.881 4.18-14.853 3.358-1.119 7.222.084 9.628 2.668L31.923 58.7 76.979 7.698c2.053-1.733 4.376-3.018 7.18-3.003zm-.177 2c-2.076.044-4.008 1.145-5.641 2.471L32.535 61.001c-.682.432-.841.359-1.362-.129L15.111 42.685c-2.327-2.499-6.286-3.304-9.15-1.286-3.359 2.366-4.229 7.669-1.65 10.833l22.201 25.139c2.744 2.949 7.753 3.219 10.739.088L89.17 18.676c3.5-4.18 1.508-11.482-5.091-11.982l-.097.001z" fill-rule="nonzero"/></svg>