<?xml version="1.0" encoding="UTF-8" standalone="no"?><!DOCTYPE svg PUBLIC "-//W3C//DTD SVG 1.1//EN" "http://www.w3.org/Graphics/SVG/1.1/DTD/svg11.dtd"><svg width="100%" height="100%" viewBox="0 0 1500 1500" version="1.1" xmlns="http://www.w3.org/2000/svg" xmlns:xlink="http://www.w3.org/1999/xlink" xml:space="preserve" xmlns:serif="http://www.serif.com/" style="fill-rule:evenodd;clip-rule:evenodd;stroke-linejoin:round;stroke-miterlimit:2;"><g id="amc"><path d="M1500,375l0,750c0,206.968 -168.032,375 -375,375l-750,0c-206.968,0 -375,-168.032 -375,-375l0,-750c0,-206.968 168.032,-375 375,-375l750,0c206.968,0 375,168.032 375,375Zm-35.971,0c0,-187.115 -151.914,-339.029 -339.029,-339.029l-750,0c-187.115,0 -339.029,151.914 -339.029,339.029l0,750c0,187.115 151.914,339.029 339.029,339.029l750,0c187.115,0 339.029,-151.914 339.029,-339.029l0,-750Z" style="fill:#fff;"/><path id="amc1" serif:id="amc" d="M1256.79,845.819c0,-10.742 8.74,-19.489 19.588,-19.489c10.799,-0 19.502,8.747 19.502,19.489c0,10.855 -8.703,19.595 -19.502,19.595c-10.848,-0 -19.588,-8.74 -19.588,-19.595Zm36.734,-0c0,-9.459 -7.68,-17.133 -17.146,-17.133c-9.515,-0 -17.189,7.674 -17.189,17.133c0,9.565 7.674,17.246 17.189,17.246c9.466,-0 17.146,-7.681 17.146,-17.246Zm-7.42,10.948l-3.168,-0l-6.248,-10.08l-4.909,-0l0,10.08l-2.654,-0l0,-21.851l9.503,-0c1.848,-0 3.689,0.111 5.331,1.078c1.631,0.93 2.455,2.87 2.455,4.711c0,4.296 -3.019,5.883 -6.912,5.982l6.602,10.08Zm-10.234,-12.169c3.068,-0 7.835,0.508 7.835,-3.948c0,-3.373 -2.975,-3.782 -5.678,-3.782l-6.248,-0l0,7.73l4.091,-0Zm-490.28,-201.574c49.479,-41.892 101.363,-41.037 145.487,-19.291c41.036,21.634 55.746,52.758 56.385,98.165l-0.031,111.462c0,-0 -0.397,31.446 -32.637,31.446c-30.647,-0 -32.079,-31.242 -32.079,-31.242l-0.434,-110.123c0,-0 -1.86,-51.159 -53.019,-51.159c-51.432,-0 -55.511,50.893 -55.511,50.893l0,108.399c0,-0 0,32.823 -32.563,32.823c-31.8,-0 -32.457,-32.823 -32.457,-32.823l-0.018,-108.077c0,-0 -0.961,-51.215 -55.325,-51.215c-54.085,-0 -52.703,51.959 -52.703,51.959l0,111.17c0,-0 -3.781,29.253 -32.296,29.253c-29.575,-0 -32.563,-29.519 -32.563,-29.519l-0.21,-112.181c0,-41.359 7.99,-82.395 66.83,-105.628c26.729,-10.563 58.089,-10.34 86.226,-3.943c18.757,6.819 34.961,15.987 50.737,29.631l2.982,2.609l3.199,-2.609Zm-313.892,189.666c0,33.307 -31.447,32.135 -31.447,32.135l-185.773,-0.961c-14.605,0 -19.936,-14.92 -20.364,-27.709c0.428,-26.649 10.78,-55.566 21.963,-77.597c32.823,-64.691 96.776,-119.055 163.712,-138.557c36.077,-10.526 73.754,-14.071 112.98,-10.873c7.457,1.066 14.065,5.759 18.969,10.235c6.608,8.523 8.635,19.185 8.213,30.269l0.124,182.581c0,0 2.61,31.918 -30.294,31.918c-31.973,0 -33.622,-33.003 -33.622,-33.003l0,-145.419c-0.038,-10.761 -0.038,-13.96 -6.881,-14.493c-32.823,-2.132 -64.481,12.522 -92.09,26.643c-33.381,17.078 -64.586,56.223 -78.658,91.185c-1.649,6.075 -0.849,11.294 5.97,11.294l115.218,0c0,0 31.98,0.112 31.98,32.352Zm768.262,-79.147c32.519,3.391 28.459,33.889 28.459,33.889c-17.568,55.226 -69.26,88.96 -130.3,88.96c-75.484,0 -136.685,-61.201 -136.685,-136.697c0,-75.496 61.201,-136.691 136.685,-136.691c61.306,0 113.178,29.903 130.523,85.488c0,0 8.275,33.443 -27.709,37.627c-26.636,0 -30.74,-21.727 -30.74,-21.727c-10.296,-29.81 -38.613,-40.788 -71.932,-40.788c-42.028,0 -76.097,34.063 -76.097,76.091c0,42.028 34.069,76.091 76.097,76.091c32.898,0 60.929,-14.623 71.548,-43.869c0,0 6.521,-18.901 30.151,-18.374Z" style="fill:#fff;"/></g></svg>