<?xml version="1.0" encoding="UTF-8" standalone="no"?><!DOCTYPE svg PUBLIC "-//W3C//DTD SVG 1.1//EN" "http://www.w3.org/Graphics/SVG/1.1/DTD/svg11.dtd"><svg width="100%" height="100%" viewBox="0 0 1500 1500" version="1.1" xmlns="http://www.w3.org/2000/svg" xmlns:xlink="http://www.w3.org/1999/xlink" xml:space="preserve" xmlns:serif="http://www.serif.com/" style="fill-rule:evenodd;clip-rule:evenodd;stroke-linejoin:round;stroke-miterlimit:2;"><g id="netflix"><path d="M1500,375l0,750c0,206.968 -168.032,375 -375,375l-750,0c-206.968,0 -375,-168.032 -375,-375l0,-750c0,-206.968 168.032,-375 375,-375l750,0c206.968,0 375,168.032 375,375Zm-35.971,-0c-0,-187.115 -151.914,-339.029 -339.029,-339.029l-750,0c-187.115,0 -339.029,151.914 -339.029,339.029l0,750c0,187.115 151.914,339.029 339.029,339.029l750,-0c187.115,-0 339.029,-151.914 339.029,-339.029l-0,-750Z" style="fill:#fff;"/><path id="netflix1" serif:id="netflix" d="M303.797,585.012l-0.538,308.777c-18.086,1.835 -37.933,4.374 -56.001,6.438c-23.046,-64.511 -37.258,-104.556 -60.372,-172.439c-0.046,68.968 -0.094,111.366 -0.143,180.332c-16.796,2.191 -34.764,4.48 -51.54,6.868l-0,-329.976l49.702,0c22.32,72.205 44.587,117.677 66.827,186.366c0.1,-70.385 0.2,-115.977 0.299,-186.366l51.766,0Zm193.348,0c-0.026,14.835 0.353,36.154 0.324,50.991c-11.88,0.103 -23.564,0.117 -35.2,0.117l-7.312,0c-2.451,-0.003 -4.898,-0.003 -7.349,-0.003c-13.95,0 -27.928,0.02 -42.188,0.194c-0.054,27.284 -0.108,42.25 -0.162,69.535c22.671,-0.433 47.001,-0.479 70.039,-0.888c-0.029,14.911 -0.057,36.318 -0.083,51.23c-23.248,0.398 -47.285,0.054 -70.044,0.444c-0.054,27.284 -0.108,49.847 -0.162,77.128c31.141,-2.092 61.035,-4.093 92.285,-6.014c-0.026,14.835 -0.054,36.162 -0.08,50.997c-48.057,2.77 -96.079,6.336 -144.048,10.699c0.194,-101.475 0.388,-202.951 0.581,-304.43l143.399,0Zm193.285,0.231c-0.006,14.487 -0.014,36.062 -0.02,50.553c-17.849,0.037 -36.29,0.088 -54.139,0.159c-0.074,81.358 -0.151,155.635 -0.228,236.993c-16.898,0.43 -34.975,0.959 -51.87,1.588c0.105,-81.808 0.213,-156.531 0.321,-238.339c-1.779,0.009 -3.555,0.014 -5.334,0.014c-6.933,0 -13.864,-0.071 -20.795,-0.136c-6.939,-0.072 -13.875,-0.137 -20.812,-0.137c-2.288,0 -4.579,0.006 -6.871,0.023c0.026,-14.741 0.049,-35.974 0.074,-50.712c52.634,-0.003 107.041,-0.006 159.674,-0.006Zm177.583,-0.231c0.014,14.568 0.028,36.621 0.045,51.185c-14.043,-0.065 -27.965,-0.077 -41.874,-0.077c-5.71,0 -11.417,0.003 -17.126,0.003c-5.662,0.003 -11.326,0.006 -17.007,0.006c-5.596,-0 -11.211,-0.003 -16.841,-0.009c0.008,26.061 0.014,40.768 0.022,66.825c2.63,0.009 5.283,0.012 7.95,0.012c6.971,-0 14.066,-0.026 21.188,-0.052c7.13,-0.022 14.288,-0.048 21.375,-0.048c6.615,0 13.164,0.023 19.574,0.085c0.014,14.534 0.029,36.148 0.04,50.681c-6.788,-0.094 -13.73,-0.122 -20.738,-0.122c-6.8,-0 -13.659,0.028 -20.49,0.054c-6.831,0.028 -13.634,0.057 -20.329,0.057c-2.874,-0 -5.729,-0.006 -8.555,-0.017c0.011,40.537 0.022,77.53 0.037,118.064c-11.34,-0.089 -22.942,-0.131 -34.455,-0.131c-5.652,-0 -11.282,0.008 -16.847,0.031c0.014,-95.513 0.029,-191.028 0.043,-286.547l143.988,0Zm33.608,0.234c16.862,-0 34.902,-0 51.766,0.003c0.131,82.584 -0.325,157.493 -0.194,240.084c29.124,1.212 59.419,3.264 88.52,4.975c0.028,14.835 0.057,36.168 0.085,51.002c-45.979,-3.179 -94.354,-5.037 -140.39,-6.751c-0.125,-96.441 0.339,-192.878 0.213,-289.313Zm182.658,0.005c16.861,0 34.904,0 51.765,0.003c0.194,101.134 0.054,202.331 -0.005,303.394c-16.853,-1.5 -34.304,-2.897 -51.171,-4.201c-0.196,-99.731 -0.39,-199.465 -0.589,-299.196Zm96.142,0.006c18.643,0.003 37.881,0.003 56.527,0.006c12.535,32.245 20.931,53.703 33.447,86.857c13.434,-31.864 23.074,-53.376 37.09,-86.852c18.646,0.003 37.881,0.006 56.527,0.006c-22.711,54.162 -45.02,103.613 -66.882,155.416c21.953,55.161 45.833,115.932 67.667,174.298c-18.011,-2.565 -41.39,-5.921 -59.424,-8.26c-12.917,-35.886 -24.689,-62.744 -37.64,-97.511c-12.97,32.638 -24.76,57.099 -37.719,88.878c-18.062,-2.012 -36.765,-4.622 -54.845,-6.407c21.826,-49.34 44.064,-100.443 65.912,-151.881c-21.023,-53.55 -39.959,-104.122 -60.66,-154.55Z" style="fill:#fff;"/></g></svg>