<?xml version="1.0" encoding="UTF-8" standalone="no"?><!DOCTYPE svg PUBLIC "-//W3C//DTD SVG 1.1//EN" "http://www.w3.org/Graphics/SVG/1.1/DTD/svg11.dtd"><svg width="100%" height="100%" viewBox="0 0 1500 1500" version="1.1" xmlns="http://www.w3.org/2000/svg" xmlns:xlink="http://www.w3.org/1999/xlink" xml:space="preserve" xmlns:serif="http://www.serif.com/" style="fill-rule:evenodd;clip-rule:evenodd;stroke-linejoin:round;stroke-miterlimit:2;"><g id="prime-video" serif:id="prime video"><path id="border" d="M1500,375l0,750c0,206.968 -168.032,375 -375,375l-750,0c-206.968,0 -375,-168.032 -375,-375l0,-750c0,-206.968 168.032,-375 375,-375l750,0c206.968,0 375,168.032 375,375Zm-35.971,-0c-0,-187.115 -151.914,-339.029 -339.029,-339.029l-750,0c-187.115,0 -339.029,151.914 -339.029,339.029l0,750c0,187.115 151.914,339.029 339.029,339.029l750,-0c187.115,-0 339.029,-151.914 339.029,-339.029l-0,-750Z" style="fill:#fff;"/><path id="prime-video1" serif:id="prime video" d="M726.566,1241.97c-24.614,-1.026 -45.126,-2.564 -57.947,-4.616c-3.589,-0.513 -7.692,-1.025 -8.717,-1.025c-1.026,-0 -6.667,-1.026 -12.307,-2.052c-5.641,-1.025 -12.308,-2.051 -14.359,-2.051c-2.051,-0.513 -6.154,-1.025 -8.718,-1.538c-2.564,-0.513 -6.666,-1.539 -8.717,-2.051c-7.692,-1.026 -20.513,-4.103 -27.692,-6.154c-3.589,-1.026 -8.205,-2.051 -9.23,-2.051c-1.026,-0.513 -5.128,-1.539 -8.718,-2.564c-3.59,-1.026 -7.179,-1.539 -7.692,-2.051c-11.282,-3.077 -42.563,-13.333 -50.768,-16.923c-2.564,-1.026 -5.641,-2.051 -6.666,-2.564c-1.539,-0.513 -3.077,-1.026 -3.077,-1.026c-0.513,0 -2.564,-1.025 -5.128,-2.051c-2.564,-1.025 -5.128,-2.051 -6.154,-2.564c-1.538,-0.513 -3.589,-1.538 -5.128,-2.051c-3.077,-1.539 -5.641,-2.564 -16.409,-7.179c-7.693,-3.59 -32.307,-15.385 -42.05,-21.025c-5.128,-2.564 -10.257,-5.641 -12.308,-6.667c-2.051,-1.025 -3.589,-2.051 -3.589,-2.051c-0,-0 -1.026,-1.026 -2.052,-1.538c-1.538,-0.513 -5.64,-3.077 -9.23,-5.129c-10.256,-6.153 -11.795,-7.179 -17.948,-10.768c-3.077,-2.052 -5.641,-4.103 -6.154,-4.103c-1.538,-1.025 -18.461,-12.82 -21.025,-14.358c-1.025,-1.026 -4.102,-3.077 -6.153,-4.616c-6.667,-5.128 -17.949,-13.333 -24.615,-18.461c-11.795,-9.743 -15.897,-12.82 -17.435,-14.358c-1.026,-0.513 -4.616,-4.103 -8.718,-7.692c-18.974,-16.41 -30.768,-27.692 -32.82,-30.768c-4.102,-9.231 3.59,-16.923 12.308,-12.308c3.589,1.539 5.128,2.564 8.205,4.616c1.538,1.025 5.64,3.589 9.743,5.64c3.589,2.052 7.179,4.616 8.205,5.128c1.025,0.513 3.077,2.052 5.128,3.077c2.051,1.026 4.102,2.051 4.615,2.564c0.513,0.513 1.538,1.026 1.538,1.026c0,-0 3.077,1.538 5.641,3.077c9.231,5.128 39.486,20.512 49.229,25.127c0.513,0.513 6.154,3.077 12.308,5.641c6.153,3.077 11.794,5.641 13.333,6.154c1.025,-0 2.564,1.025 3.589,1.538c1.026,0.513 2.564,1.026 4.103,1.538c1.025,0.513 2.051,1.026 2.564,1.026c-0,0 2.564,1.538 5.641,2.564c3.076,1.026 6.666,2.564 8.205,3.59c1.538,0.513 3.076,1.025 3.076,1.025c0.513,0 1.539,0.513 2.564,1.026c2.052,1.026 10.256,4.102 15.897,6.154c1.026,0.512 3.077,1.025 4.103,1.538c8.205,3.077 34.87,12.307 49.742,16.41c3.077,1.025 8.205,2.564 11.281,3.589c3.077,1.026 7.18,2.052 9.744,2.564c2.564,1.026 6.666,2.052 9.23,2.564c12.82,3.59 48.204,12.308 57.947,13.846c1.539,0 5.641,1.026 9.231,1.539c7.692,1.538 28.204,5.128 36.409,6.153c3.077,0.513 8.205,1.539 12.307,2.051c3.59,0.513 8.718,1.539 11.795,1.539c3.076,0.513 10.256,1.025 16.409,1.538c5.641,1.026 14.359,1.539 18.974,2.051c4.103,0.513 12.82,1.026 18.461,1.026c34.358,2.564 75.895,2.564 110.253,0c5.641,0 13.846,-1.026 18.461,-1.026c4.102,0 13.333,-1.025 19.999,-2.051c6.667,-0.513 13.846,-1.538 15.897,-1.538c2.051,-0.513 8.718,-1.539 14.872,-2.051c6.153,-1.026 13.333,-2.052 15.384,-2.564c5.641,-1.026 28.717,-5.128 41.024,-7.692c3.59,-0.513 15.384,-3.59 24.615,-5.641c11.281,-2.564 11.794,-2.564 17.435,-4.103c2.051,-1.025 5.641,-1.538 7.179,-2.051c1.026,-0.513 4.616,-1.026 7.18,-2.051c2.564,-0.513 8.717,-2.564 13.333,-3.59c4.615,-1.538 10.256,-3.077 12.82,-4.102c2.564,-0.513 7.692,-2.564 11.281,-3.59c3.59,-1.026 8.718,-3.077 11.282,-3.59c2.051,-1.025 5.128,-2.051 7.179,-2.564c3.59,-1.025 13.846,-5.128 16.41,-5.64c0.513,-0.513 2.564,-1.539 4.102,-2.052c1.539,-0.512 4.616,-1.538 6.667,-2.564c2.564,-0.512 4.615,-1.538 4.615,-1.538c0.513,-0 1.539,-0.513 2.051,-0.513c2.564,-1.025 13.846,-6.154 17.436,-7.179c1.025,-0.513 3.589,-1.539 5.641,-2.564c1.538,-0.513 3.589,-1.539 4.102,-1.539c0.513,-0.512 4.102,-2.051 7.692,-3.589c12.82,-5.641 16.41,-6.667 22.563,-4.615c5.641,2.051 9.231,6.666 9.231,12.82c-0,4.102 -1.026,7.692 -4.102,11.281c-2.565,3.077 -22.051,17.949 -36.41,27.179c-2.564,1.538 -5.128,3.59 -5.64,3.59c-0.513,0.512 -2.564,2.051 -4.616,3.589c-2.564,1.026 -6.153,3.077 -7.692,4.616c-2.051,1.025 -3.589,2.051 -4.102,2.051c-0,-0 -1.026,1.025 -2.564,1.538c-11.795,7.692 -44.101,24.102 -64.101,32.82c-4.102,1.538 -7.692,3.589 -7.692,3.589c-0.513,0 -2.051,1.026 -3.589,1.539c-1.539,0.512 -6.667,2.564 -11.282,4.102c-9.231,3.59 -17.436,6.667 -21.538,8.205c-6.666,2.564 -33.332,11.282 -33.845,11.282c-0.513,-0 -3.077,1.025 -6.154,1.538c-8.205,2.564 -21.025,6.154 -22.05,6.154c-0.513,-0 -3.59,1.025 -7.692,2.051c-4.103,1.026 -9.231,2.051 -11.282,2.564c-2.051,0.513 -6.154,1.538 -8.718,2.051c-13.333,2.564 -23.076,4.615 -26.666,5.128c-1.538,0 -7.179,1.026 -12.307,2.051c-5.128,1.026 -11.282,1.539 -13.846,2.052c-2.564,-0 -9.23,1.025 -14.871,1.538c-5.641,1.026 -13.333,2.051 -17.948,2.051c-4.615,0.513 -12.82,1.026 -18.461,1.539c-12.82,0.513 -49.742,1.025 -61.537,0.513Zm434.346,-34.358c-2.051,-1.539 -3.077,-4.103 -3.077,-6.154c0.513,-1.026 1.538,-4.615 3.077,-8.205c1.025,-3.59 3.077,-8.718 4.102,-11.794c1.026,-3.59 2.564,-6.667 2.564,-7.692c0.513,-0.513 1.026,-2.052 1.026,-2.564c0.513,-1.026 1.025,-3.59 2.051,-6.154c1.026,-2.564 2.051,-5.128 2.051,-5.641c0.513,-1.026 1.026,-3.59 2.052,-6.666c3.076,-8.205 9.743,-29.743 9.743,-32.82c0.513,-0.513 1.025,-4.102 2.051,-7.692c1.026,-3.077 1.538,-7.692 2.051,-9.743c0,-1.539 1.026,-5.641 1.026,-8.718c2.051,-13.846 0.513,-24.102 -3.59,-28.204c-1.538,-2.051 -5.641,-4.615 -7.692,-5.641c-14.358,-5.128 -42.05,-6.154 -76.921,-2.564c-5.128,0.513 -11.794,1.026 -14.871,1.538c-3.077,0.513 -10.256,1.026 -15.897,2.052c-11.281,1.538 -13.846,1.025 -15.897,-0.513c-3.589,-4.103 -0.513,-9.744 7.692,-15.897c5.641,-4.103 18.461,-11.282 26.153,-14.359c2.052,-1.025 4.103,-2.051 5.641,-2.564c1.026,-0.513 2.564,-1.025 4.103,-1.538c1.025,-0 3.589,-1.026 5.128,-1.539c8.205,-3.076 26.153,-6.666 42.05,-8.717c10.769,-1.539 33.332,-1.539 44.614,-0c6.153,0.513 16.409,2.564 19.999,3.077c4.615,1.025 14.359,4.615 16.41,6.153c1.025,0.513 2.051,1.026 2.564,1.026c0.513,-0 4.102,4.102 4.615,5.641c2.564,6.153 3.077,18.973 1.538,31.794c-1.025,12.307 -2.051,18.973 -4.102,26.153c-0.513,2.564 -1.026,6.153 -1.538,8.204c-0.513,1.539 -1.026,5.129 -2.052,7.693c-1.025,2.564 -1.538,5.64 -1.538,6.153c-0.513,2.564 -6.666,19.487 -9.743,27.179c-4.103,8.718 -14.872,29.743 -16.41,31.281c-0,0.513 -1.026,1.538 -1.538,2.564c-3.077,5.641 -12.821,17.948 -21.025,26.153c-9.231,9.23 -13.333,11.282 -16.41,8.718Zm-41.025,-269.736c-3.589,-0.512 -8.717,-1.538 -10.768,-2.051c-2.052,-0.513 -5.128,-1.025 -6.154,-1.538c-3.077,-1.026 -13.333,-5.128 -16.41,-6.667c-7.179,-4.102 -13.333,-8.717 -18.974,-14.358c-7.179,-7.692 -7.179,-7.179 -10.256,-12.307c-4.102,-6.154 -5.641,-8.205 -7.692,-13.333l-2.564,-4.616l0.513,0l-1.538,-3.589c-1.539,-3.59 -2.052,-5.128 -3.59,-12.308c-1.538,-6.153 -3.077,-13.332 -3.077,-15.384c0,-1.025 0,-4.615 -0.513,-7.692c-0.512,-7.692 -0.512,-18.973 0,-26.153c0.513,-3.077 0.513,-6.666 0.513,-7.692c0,-2.564 1.539,-9.743 2.564,-14.358c0.513,-2.052 1.539,-4.616 1.539,-6.154c0.512,-1.026 1.025,-4.102 2.051,-6.154c1.025,-2.051 1.538,-4.102 2.051,-4.615c0,-1.026 4.615,-10.769 6.154,-12.82c0.512,-0.513 2.051,-3.077 4.102,-5.641c10.769,-16.41 28.717,-28.717 50.255,-34.358c17.435,-4.102 44.101,-4.102 61.024,0.513c24.101,5.641 39.998,17.948 53.844,38.973c1.539,2.564 6.667,12.307 6.667,12.82c-0,0.513 1.025,2.564 1.538,5.128c1.026,2.052 2.051,4.616 2.051,5.641c0.513,1.026 1.026,4.103 1.539,6.667c2.051,6.153 2.564,9.743 2.564,13.333c0.512,1.025 0.512,6.666 1.025,12.307c0.513,7.692 0.513,11.282 0,18.461c-1.025,14.871 -1.538,18.461 -3.077,25.127c-1.025,3.077 -1.538,6.667 -2.051,7.692c0,0.513 -1.025,3.077 -2.051,5.641c-0.513,2.564 -1.538,4.615 -1.538,4.615c-0,1.026 -5.128,11.282 -7.692,14.872c-3.077,5.128 -6.667,9.743 -7.18,9.743l-0.513,0l0,0.513c0,1.025 -10.768,11.282 -15.384,14.358c-17.948,11.795 -35.896,16.41 -61.023,16.41c-6.667,0 -12.821,-0.513 -17.949,-1.026Zm29.743,-44.614c8.205,-2.051 15.384,-7.179 20.512,-15.384c1.539,-2.051 2.564,-3.589 2.564,-4.102c0,-0 0.513,-2.051 1.539,-3.59c2.051,-5.128 2.564,-6.153 4.615,-17.948c1.538,-7.179 2.051,-26.153 1.026,-34.871c-0.513,-7.692 -3.077,-19.486 -4.616,-23.076c-0.512,-1.538 -1.538,-4.102 -2.051,-5.128c-3.077,-7.692 -10.769,-15.384 -18.461,-18.974c-5.641,-2.564 -17.948,-3.589 -26.153,-2.051c-5.128,1.026 -11.282,4.615 -15.384,8.205c-3.59,3.077 -7.179,8.205 -8.718,11.795c-0.512,1.025 -1.538,3.076 -2.051,4.615c-1.026,2.564 -3.077,10.256 -4.102,16.41c-2.564,13.845 -2.052,33.845 0.512,47.178c0.513,2.051 1.026,5.128 1.539,6.153c0.513,3.59 4.102,11.795 7.179,16.41c3.077,5.128 7.179,8.205 11.795,11.282c8.205,4.615 18.461,5.641 30.255,3.076Zm-489.215,43.589c-21.538,-4.103 -38.974,-15.384 -50.255,-32.307c-1.539,-2.051 -3.077,-4.615 -3.59,-5.128c-1.538,-2.051 -6.666,-12.82 -6.666,-13.333c-0,0 -1.026,-2.051 -1.539,-4.615c-1.025,-2.051 -2.051,-4.615 -2.051,-5.641c-0.513,-0.513 -1.026,-3.589 -1.538,-5.641c-2.052,-6.153 -2.564,-9.23 -3.59,-17.948c-1.026,-9.23 -1.026,-31.281 0,-38.973c0.513,-2.564 1.026,-6.666 1.026,-9.23c0.512,-6.154 5.64,-24.615 7.179,-26.154c0.513,-0.512 0.513,-1.025 0.513,-1.538c-0,-1.026 6.666,-14.358 7.179,-14.358l0.513,-0l-0,-0.513c-0,-1.026 5.128,-8.205 8.717,-12.308c11.795,-13.845 28.717,-23.076 46.153,-25.127c10.256,-1.538 25.127,-1.026 33.845,1.026c9.743,2.051 19.999,6.666 28.717,12.307l4.615,3.077l0,-48.717c0.513,-48.716 0.513,-48.716 1.539,-50.767c2.051,-3.59 1.538,-3.59 28.204,-3.59c24.102,0 24.102,0 25.64,1.026c1.026,1.025 1.539,2.051 2.051,4.102c0.513,3.59 1.026,282.043 0,285.119c-0.512,1.026 -1.025,2.564 -1.538,3.077c-2.564,2.564 -3.077,2.564 -23.589,2.564c-18.974,0 -19.487,0 -21.538,-1.025c-1.538,-1.026 -2.564,-2.052 -3.59,-3.59c-1.025,-2.051 -3.076,-7.179 -3.589,-10.256c-0,-1.538 -0,-2.564 -0.513,-2.564l0,-0.513l-3.59,2.564c-4.102,3.59 -12.307,8.718 -15.897,10.769c-7.179,3.59 -16.922,6.666 -26.153,8.205c-4.615,0.513 -22.563,0.513 -26.665,-0Zm42.05,-43.589c3.076,-0.512 6.153,-1.025 7.179,-1.538c6.666,-2.051 16.922,-6.666 18.974,-8.205c1.025,-1.025 1.025,-1.025 1.025,-54.357c0,-52.819 0,-52.819 -3.077,-54.357c-4.102,-2.564 -12.82,-5.641 -16.409,-6.154c-10.769,-2.051 -13.846,-2.051 -20.513,-2.051c-8.717,0.513 -12.82,1.538 -18.46,4.615c-9.231,4.615 -15.385,13.333 -18.974,27.179c-2.564,10.769 -3.077,14.358 -3.077,31.794c-0,16.409 0.513,21.537 2.564,29.229c0.513,2.052 1.026,4.616 1.538,5.128c0,1.539 4.616,11.282 5.128,11.795c0,-0 1.026,1.538 2.052,2.564c2.564,4.102 7.692,8.205 13.333,10.769c4.102,2.051 5.64,2.564 10.256,3.077c6.666,1.025 11.281,1.025 18.461,0.512Zm213.839,43.076c-2.564,0 -9.743,-1.026 -15.897,-2.051c-5.128,-1.026 -14.871,-4.103 -20.512,-7.179c-4.102,-1.539 -12.307,-6.154 -13.333,-7.18c-0.513,-0.512 -1.538,-1.538 -2.564,-2.051c-5.128,-4.102 -14.359,-13.846 -17.948,-19.486c-3.077,-4.103 -8.718,-16.41 -9.743,-18.974c-0,-1.026 -0.513,-1.539 -0.513,-2.051l-0.513,-0l-0,-0.513c0.513,-0 -0,-1.539 -0.513,-2.564c-1.025,-3.59 -3.077,-11.795 -3.077,-14.872c-0.512,-1.025 -0.512,-4.615 -1.025,-6.666c-0.513,-3.077 -0.513,-9.743 -0.513,-18.461c-0.513,-18.461 1.026,-28.204 4.102,-39.486c0.513,-2.051 1.026,-4.615 1.539,-5.128c0.513,-3.59 7.179,-18.461 11.281,-24.615c2.564,-3.589 7.693,-10.769 11.795,-14.358c9.743,-9.743 20.512,-15.897 34.358,-20.512c19.999,-6.667 43.588,-7.692 65.639,-2.052c13.846,3.59 28.204,13.333 35.896,24.102c2.564,3.59 7.179,11.795 7.179,13.846c0.513,0.513 1.026,2.564 1.539,4.102c2.564,7.18 3.589,21.538 2.051,29.743c-1.026,4.615 -4.615,15.897 -5.641,16.41c0,-0 -1.025,1.538 -2.051,3.077c-2.051,4.102 -8.718,10.769 -14.871,14.871c-4.103,3.077 -15.384,8.205 -18.461,8.718c-1.026,0.512 -4.616,1.025 -8.718,2.051c-10.769,2.564 -23.589,3.59 -39.999,3.59c-6.666,-0.513 -14.871,-0.513 -17.948,-1.026c-5.128,-0.513 -14.871,-2.564 -16.41,-3.077l-0.512,0l-0,3.59c1.025,9.743 6.153,23.076 10.768,29.23c4.616,6.153 12.821,11.281 23.589,14.358c3.59,1.026 14.359,2.051 23.077,2.051c15.384,0 27.691,-1.538 46.665,-6.666c4.102,-1.026 6.666,-1.539 7.692,-1.539c1.538,0.513 3.59,2.564 4.615,4.616c1.026,2.051 1.026,18.973 0.513,24.614c-0.513,5.128 -1.538,7.18 -4.102,8.718c-4.103,3.077 -23.589,9.23 -32.82,10.769c-3.077,-0 -7.179,1.025 -10.256,1.538c-4.615,0.513 -29.743,1.026 -34.358,0.513Zm13.333,-123.073c4.615,-1.026 11.282,-3.077 13.846,-4.102c2.051,-1.539 7.692,-7.18 8.717,-9.231c1.539,-4.102 2.052,-10.256 1.539,-15.897c-0.513,-5.641 -2.051,-8.718 -5.641,-12.307c-2.564,-2.564 -7.179,-5.641 -11.795,-6.667c-3.589,-1.025 -18.973,-1.025 -23.076,0c-4.102,1.026 -11.281,4.616 -13.333,6.154c-7.692,7.179 -8.717,8.718 -11.794,15.384c-3.077,6.667 -4.103,10.256 -5.641,20l-1.026,3.589l0.513,0c0.513,0.513 9.231,2.051 14.871,2.564c8.205,1.026 26.666,1.026 32.82,0.513Zm-588.7,119.483c-1.025,-0.512 -2.564,-1.538 -3.589,-1.538c-1.026,-1.026 -4.103,-5.128 -4.103,-5.641c0,-0.513 -0.512,-1.538 -0.512,-2.051c-1.026,-1.538 -3.077,-7.179 -3.59,-7.692c-0,-0.513 -1.026,-4.615 -1.538,-4.615c-0,-0.513 -1.026,-2.564 -2.052,-4.616c-0.513,-2.564 -1.538,-5.64 -2.051,-6.666c-0.513,-1.026 -1.538,-3.59 -2.051,-5.128c-1.539,-3.59 -5.641,-14.871 -6.667,-17.435c-0.512,-1.026 -1.025,-2.564 -1.025,-2.564c-0,-0.513 -1.026,-3.077 -2.051,-5.641c-1.026,-2.564 -2.052,-4.616 -2.052,-5.128c0,-0.513 -0.512,-2.564 -1.538,-4.616c-1.026,-2.051 -3.59,-9.23 -6.154,-15.384c-0.513,-2.051 -1.538,-4.615 -2.051,-5.641c-1.026,-3.076 -1.538,-4.102 -2.051,-5.128c-0,-0.512 -0.513,-2.564 -1.539,-5.128c-1.025,-2.564 -2.564,-5.641 -3.076,-7.179c-0.513,-2.051 -1.539,-4.102 -2.052,-4.615c0,-1.026 -1.025,-3.077 -1.538,-4.615c-1.538,-4.103 -5.128,-13.846 -5.641,-15.385c-0.513,-1.025 -1.025,-2.564 -1.538,-3.076c-0,-1.026 -1.026,-3.59 -2.051,-6.154c-1.026,-2.564 -2.052,-5.128 -2.052,-5.128c0,-0.513 -1.025,-2.564 -1.538,-5.128c-1.026,-2.564 -3.077,-6.667 -4.103,-9.743c-5.128,-13.846 -6.153,-16.923 -6.666,-17.949c-0.513,-1.025 -1.026,-2.564 -1.538,-3.589c-0.513,-1.539 -1.539,-4.103 -2.052,-6.667c-1.025,-4.102 -1.025,-4.615 -0.512,-6.153c1.538,-4.103 1.025,-3.59 26.665,-4.103c26.153,0 26.666,0 30.256,3.59c2.051,2.051 2.564,3.077 3.589,6.154c0.513,1.538 2.052,6.153 3.077,9.23c1.026,3.59 1.539,6.666 1.539,7.179c0.513,1.026 1.025,4.103 2.051,7.18c1.026,3.589 2.051,6.666 2.564,7.692c-0,0.512 1.026,3.589 2.051,6.666c0.513,3.077 1.539,5.641 1.539,6.154c-0,0.513 0.512,3.077 1.538,5.641c1.026,2.564 2.051,6.153 2.051,7.179c0.513,1.025 1.539,4.615 2.564,7.692c0.513,3.077 1.539,6.154 1.539,6.154c-0,0.512 1.025,3.589 1.538,6.666c1.026,3.077 2.051,6.666 2.564,7.692c0.513,1.026 1.026,4.615 2.051,7.179c1.026,2.052 1.539,5.128 1.539,6.154c0.513,1.026 1.025,3.59 2.051,5.641c0.513,2.051 1.538,6.154 2.564,9.23c1.538,6.154 3.077,11.282 5.128,17.436c0.513,2.564 1.538,5.641 2.051,7.179c0,1.538 0.513,3.077 1.026,3.59l-0,0.512l0.513,-0.512c-0,-0 0.512,-1.026 0.512,-1.539c0.513,-1.025 1.026,-4.102 2.052,-7.179c2.564,-7.692 4.102,-13.846 6.153,-19.999c1.026,-3.077 2.052,-7.18 2.564,-8.718c0.513,-2.051 1.026,-4.615 1.539,-5.128c-0,-0.513 1.025,-3.59 2.051,-6.667c0.513,-3.076 1.538,-5.64 1.538,-6.153c0,-0.513 0.513,-2.564 1.539,-5.128c1.025,-2.564 2.051,-6.154 2.564,-8.718c0.513,-2.051 1.538,-5.641 2.564,-7.692c0.513,-2.051 1.025,-4.615 1.025,-5.128c0.513,-0.513 1.026,-3.59 2.052,-7.179c1.025,-3.077 2.051,-6.154 2.051,-6.667c0.513,-1.025 1.538,-4.102 2.564,-7.179c0.513,-3.077 1.538,-5.641 1.538,-6.154c0,-0.513 1.026,-3.077 1.539,-6.153c1.025,-3.077 2.051,-6.154 2.051,-6.667c0.513,-1.025 1.026,-3.59 2.051,-6.154c0.513,-2.564 2.051,-6.666 2.564,-8.204c1.026,-4.616 3.59,-10.769 5.128,-12.308c3.077,-2.051 3.59,-2.051 28.717,-2.051c23.076,0 23.589,0 25.128,1.026c2.051,1.538 2.564,3.589 1.538,7.179c-0.513,3.077 -1.538,5.641 -5.641,15.897c-0.513,2.051 -2.051,5.128 -2.564,7.179c-1.025,2.051 -2.051,5.128 -2.564,7.179l-1.538,3.077l0.513,0l-2.052,4.615c-1.025,2.564 -2.051,5.129 -2.051,6.154c-0.513,0.513 -1.025,1.539 -1.025,2.564c-1.026,2.051 -4.616,11.282 -6.154,15.897c-0.513,1.538 -1.538,3.59 -1.538,4.615c-0.513,0.513 -1.539,2.564 -2.052,4.103c-0.513,1.538 -2.051,5.128 -3.077,8.717c-1.025,3.077 -3.076,7.18 -4.102,9.744c-4.102,11.281 -5.641,15.384 -7.692,19.999c-1.026,3.077 -2.051,5.641 -2.051,5.641c-0,0.513 -2.051,6.154 -2.564,7.692c-0.513,0.513 -1.026,2.051 -1.026,2.564c-0.513,0.513 -1.538,3.59 -2.564,6.666c-1.026,3.077 -3.077,7.693 -4.102,10.257c-1.026,2.564 -2.564,6.666 -3.59,9.23c-1.026,2.564 -1.538,4.615 -2.051,5.641c-0,0.513 -0.513,2.051 -1.026,3.59c-1.025,1.538 -2.051,4.615 -3.077,7.179c-0.512,2.051 -1.538,4.615 -2.051,5.641c-0.513,1.025 -1.025,2.564 -1.025,3.076c-0.513,1.026 -1.539,4.103 -3.077,7.693c-3.077,6.666 -5.128,9.743 -9.231,10.768c-3.077,1.026 -42.563,0.513 -45.127,0Zm157.944,0c-0.513,-0.512 -2.051,-1.538 -3.077,-2.564c-1.538,-2.051 -1.538,-2.051 -1.538,-99.996c0.513,-97.433 0.513,-97.433 2.051,-98.972c2.564,-2.564 3.59,-2.564 28.204,-2.564c21.025,0 22.564,0.513 23.589,1.026c1.026,0.513 2.052,2.051 2.564,2.564c0.513,1.538 1.026,8.718 1.026,96.92c0,65.126 0,95.894 -0.513,97.946c-0.513,2.564 -2.051,4.615 -4.615,5.64c-2.564,1.026 -45.64,0.513 -47.691,0Zm18.461,-236.402c-4.615,-0.513 -10.256,-2.564 -12.82,-4.103c-6.154,-3.589 -10.769,-8.718 -13.333,-15.384c-1.025,-3.59 -1.538,-10.769 -1.025,-17.435c0.512,-5.641 4.102,-12.308 8.204,-15.897c4.103,-3.59 7.18,-5.641 13.333,-7.692c6.154,-1.539 15.384,-1.539 21.538,-0c9.231,2.564 15.897,7.692 19.487,14.871c2.564,5.128 2.564,6.666 2.564,14.871c-0,8.205 -0,10.256 -2.564,14.872c-5.128,10.256 -14.872,15.897 -28.205,16.409c-3.589,0 -6.666,0 -7.179,-0.512Zm-252.812,-76.921c-1.026,-0.513 -2.052,-1.539 -2.564,-2.564c-1.026,-1.539 -1.026,-1.539 -1.539,-131.278c0,-93.843 0,-130.252 0.513,-132.304c0.513,-2.564 2.564,-4.615 5.128,-5.64l17.948,-0c16.41,-0 16.41,-0 18.461,1.025c2.564,1.539 4.103,3.59 5.128,7.179c0.513,1.539 1.026,4.103 1.539,6.154l1.025,3.59l1.026,-0.513c0.513,-0.513 3.077,-2.564 6.153,-5.128c3.077,-2.051 6.667,-4.615 8.205,-5.641c1.539,-1.026 3.59,-2.051 4.616,-2.564c14.358,-8.205 33.332,-11.282 52.818,-9.231c20,2.565 37.435,13.846 49.23,31.794c7.179,10.256 11.281,20.513 14.358,33.845c2.564,11.795 2.564,13.333 2.564,30.256c0.513,22.563 0,24.615 -3.077,37.435c-7.179,32.306 -25.64,55.895 -50.767,65.639c-8.205,3.076 -11.795,3.589 -22.051,4.102c-9.23,0 -19.999,-0.513 -23.589,-1.538c-0.513,-0 -3.59,-1.026 -5.641,-1.539c-10.256,-3.077 -16.922,-6.666 -24.102,-12.307c-2.051,-1.538 -4.102,-2.564 -4.102,-2.564l0,42.563c0,30.768 0,43.075 -0.513,44.614c-0.513,1.025 -1.538,2.564 -2.051,3.589c-1.538,1.539 -1.538,1.539 -24.102,1.539c-16.922,-0 -23.076,-0 -24.614,-0.513Zm102.048,-116.92c6.153,-2.051 8.717,-3.589 13.333,-8.204c3.076,-2.564 5.128,-5.641 6.153,-7.692c2.564,-4.616 5.641,-13.333 6.154,-17.949c0.513,-2.051 0.513,-5.64 1.025,-7.692c1.026,-6.666 1.026,-28.204 0,-36.409c-1.025,-6.153 -2.564,-13.333 -4.102,-16.922c-0.513,-1.026 -0.513,-2.052 -0.513,-2.052c0,0 -0.513,-1.025 -1.538,-2.564c-3.59,-7.179 -10.256,-13.845 -16.41,-16.409c-6.666,-2.564 -7.692,-2.564 -18.974,-2.564c-9.743,-0 -10.769,-0 -15.384,1.025c-2.564,1.026 -5.641,2.051 -7.179,2.051c-1.026,0.513 -4.615,2.052 -7.692,3.59c-5.641,3.077 -5.641,3.077 -5.641,52.819c0,39.999 0,50.255 0.513,50.768c1.025,1.025 9.23,5.128 13.846,6.666c8.204,2.564 11.794,3.077 23.076,3.077c8.717,-0.513 10.256,-0.513 13.333,-1.539Zm787.155,44.614c-9.231,-1.025 -18.974,-2.564 -25.128,-4.615c-8.205,-2.564 -8.205,-2.564 -13.846,-5.128c-10.256,-5.128 -18.461,-11.282 -24.614,-18.974c-4.103,-4.615 -7.692,-9.743 -7.692,-10.768l-0,-0.513l-0.513,-0c-0.513,-0 -2.564,-4.103 -5.128,-9.744c-1.539,-3.589 -5.641,-15.897 -5.641,-17.948c-0.513,-1.025 -1.026,-4.615 -1.538,-7.692c-1.539,-9.23 -2.052,-19.486 -2.052,-29.23c0.513,-12.307 2.564,-25.127 5.128,-33.332c0.513,-2.564 1.539,-5.641 2.052,-6.666c-0,-1.539 1.025,-3.59 1.538,-5.128c1.026,-1.539 1.538,-3.59 2.051,-4.616c0.513,-1.025 1.539,-3.077 2.564,-4.615c1.026,-1.538 1.539,-3.077 1.539,-3.59c-0,0 2.051,-2.564 4.102,-6.153c5.128,-7.179 10.769,-13.333 16.41,-16.923c2.051,-2.051 4.615,-4.102 5.641,-4.615c2.051,-1.538 11.794,-6.666 14.871,-7.692c1.026,-0.513 2.051,-1.026 2.564,-1.026c0.513,-0.512 8.718,-2.564 14.359,-4.102c13.333,-3.077 39.486,-2.564 51.793,1.026c2.051,0.512 5.128,1.538 6.154,1.538c2.564,0.513 10.256,4.615 14.871,7.179c7.692,5.128 13.333,10.769 17.435,17.436c1.026,1.538 2.051,3.076 2.564,3.589c0.513,1.026 4.103,9.743 4.103,11.282c0.512,1.025 1.025,3.589 1.538,5.641c1.026,6.666 1.026,18.461 -0.513,26.153c-1.025,5.641 -4.102,12.82 -7.179,17.435c-2.564,3.077 -8.718,9.743 -12.307,12.307c-14.872,9.744 -35.897,14.359 -63.075,14.359c-12.82,-0 -20,-0.513 -29.23,-2.564c-3.59,-0.513 -7.179,-1.026 -7.692,-1.026l-1.026,0l0,2.052c0.513,1.025 1.026,4.102 1.539,6.666c2.051,12.307 7.692,23.076 15.384,28.717c2.051,1.538 3.589,2.564 7.692,4.615c6.666,3.59 17.948,5.128 31.281,5.128c14.871,0 25.64,-1.538 47.178,-6.666c4.615,-1.026 5.641,-1.026 7.692,-0.513c2.564,1.538 3.077,3.59 3.077,17.948c-0,17.436 -0,17.436 -12.307,22.051c-2.052,1.025 -8.718,2.564 -14.359,4.102c-16.923,4.103 -35.896,6.154 -51.28,4.615Zm11.281,-119.483c12.82,-2.564 18.461,-5.641 22.051,-13.333c1.538,-3.077 1.538,-3.59 1.538,-10.769c0,-7.179 0,-7.692 -1.025,-10.769c-3.077,-5.641 -7.18,-9.23 -14.872,-11.794c-2.564,-0.513 -4.102,-0.513 -11.794,-0.513c-8.718,0 -9.231,0 -13.846,1.538c-12.307,4.103 -19.486,11.795 -24.615,26.153c-1.538,4.616 -3.589,13.333 -3.589,16.41l-0,0.513l2.564,0.513c8.718,1.538 16.922,2.564 29.23,2.564c6.153,-0 11.281,-0.513 14.358,-0.513Zm-672.799,113.33c-0.513,-0 -2.051,-1.026 -2.564,-2.051c-1.539,-1.539 -2.051,-2.564 -2.051,-4.616c-0.513,-1.538 -0.513,-43.075 -0.513,-91.792c-0,-88.715 0.513,-89.74 1.538,-91.279c0.513,-1.025 1.539,-2.051 3.077,-2.564c1.538,-1.025 3.077,-1.538 16.923,-1.538c16.409,-0 19.486,-0 22.05,2.564c2.051,1.538 4.103,5.128 4.103,8.205c0.512,1.025 1.538,5.128 2.564,9.23c0.512,3.59 1.538,7.179 1.538,7.692c-0,0.513 0.513,1.026 0.513,1.539l0.513,-0l2.564,-3.077c1.538,-2.051 5.128,-5.128 8.204,-7.692c2.564,-2.564 5.129,-4.616 5.641,-5.128c1.026,-1.026 7.692,-5.641 7.692,-5.641c0.513,-0 2.052,-1.026 4.103,-2.051c1.538,-1.026 3.589,-2.052 4.102,-2.052c0,0 1.539,-0.512 2.564,-1.025c4.103,-2.051 7.18,-2.564 13.333,-3.59c10.769,-1.025 18.974,-0.513 21.538,1.539c2.051,2.051 2.051,5.128 2.051,25.127c0,16.41 -0.513,18.461 -1.025,19.999c-2.052,3.077 -2.052,3.077 -19.487,3.077c-14.871,0 -15.897,0 -22.563,1.026c-11.282,2.564 -15.385,3.589 -18.974,4.615c-2.051,1.026 -4.615,2.051 -5.641,2.051l-1.538,0.513l-0,65.126c-0,35.897 -0,65.639 -0.513,66.665c-0,1.025 -1.026,2.564 -2.051,3.589c-1.539,2.052 -1.539,2.052 -24.102,2.052c-12.308,-0 -23.076,-0 -23.589,-0.513Zm150.764,-0c-0.513,-0.513 -2.051,-1.026 -2.564,-2.051c-1.025,-1.539 -1.025,-1.539 -1.025,-94.356c-0,-74.357 -0,-92.305 0.512,-93.331c0.513,-0.513 1.539,-2.051 2.564,-2.564c2.052,-1.025 2.052,-1.025 23.589,-1.025c21.025,-0 22.051,-0 24.102,1.025c3.59,2.051 3.59,-6.154 3.59,95.382c-0,79.484 -0,90.253 -1.026,92.817c-1.025,4.616 0,4.103 -25.64,4.616c-12.82,-0 -23.076,-0.513 -24.102,-0.513Zm103.074,-0c-1.026,-0 -2.051,-1.026 -3.077,-1.539c-1.025,-1.538 -1.538,-2.564 -1.538,-5.128c-0.513,-2.051 -0.513,-43.588 -0.513,-92.817c0.513,-89.228 0.513,-89.228 1.538,-90.767c0.513,-0.512 1.539,-1.538 2.564,-2.051c1.539,-1.025 3.077,-1.538 16.923,-1.538c17.948,-0 19.999,-0 23.076,3.077c1.539,2.051 2.051,3.076 3.59,7.692c1.025,2.564 1.538,5.128 1.538,5.64c0,0.513 0,1.026 0.513,1.539l0.513,1.025l4.102,-2.564c2.051,-1.025 4.103,-2.564 4.615,-3.076c1.026,-1.026 15.897,-8.718 19.487,-9.744c1.026,-0.512 3.077,-1.538 5.128,-2.051c12.82,-5.641 32.307,-8.205 48.204,-6.154c7.179,1.026 13.845,3.59 21.025,7.693c3.076,2.051 11.281,10.256 13.845,14.358l1.026,1.538l3.077,-2.051c1.538,-1.025 4.102,-2.564 5.641,-3.589c1.025,-0.513 3.589,-2.052 5.641,-3.077c1.538,-1.026 3.076,-1.539 3.589,-2.051c1.026,-1.026 9.743,-4.616 9.743,-4.616c0.513,0 2.052,-0.512 4.103,-1.538c6.154,-2.564 17.948,-5.641 25.64,-6.667c12.307,-1.025 27.179,-0.512 33.845,1.539c6.154,2.051 9.743,3.59 13.846,6.154c10.769,7.692 17.948,18.461 20.512,32.819c1.026,6.154 1.026,6.154 1.539,78.459c-0,67.178 -0,72.818 -1.026,75.382c-1.026,4.616 -0,4.103 -25.128,4.616c-15.384,-0 -23.076,-0 -24.101,-0.513c-1.539,-0.513 -2.564,-1.026 -3.59,-2.564c-1.026,-2.051 -1.026,-2.051 -1.026,-68.716c-0.512,-61.537 -0.512,-66.665 -1.025,-69.229c-2.051,-6.666 -5.128,-10.769 -9.231,-12.82c-5.128,-3.077 -8.205,-3.589 -16.922,-3.589c-4.103,0.512 -8.718,1.025 -10.769,1.025c-10.256,2.564 -13.333,3.077 -18.461,5.641c-1.538,0.513 -4.103,1.539 -5.641,2.051l-3.077,1.026l0,71.28c0,71.792 0,71.792 -1.025,73.331c-2.052,3.077 -3.077,3.077 -27.179,3.077c-24.615,-0.513 -23.589,-0 -25.64,-3.59c-0.513,-1.538 -1.026,-6.154 -1.026,-68.203c0,-50.768 -0.513,-67.177 -1.025,-68.716c-0.513,-1.538 -0.513,-3.077 -1.026,-3.589c-0,-1.539 -1.026,-3.077 -3.077,-6.154c-3.589,-4.615 -10.256,-7.179 -18.974,-7.179c-8.717,-0 -24.101,3.076 -30.255,5.64c-1.539,1.026 -3.59,1.539 -4.103,1.539c-0.512,0.513 -2.564,1.026 -4.102,2.051c-2.564,1.539 -2.564,1.539 -2.564,71.793c0,67.177 0,70.767 -1.026,72.818c-1.538,3.59 0,3.077 -25.127,3.59c-12.307,-0 -23.076,-0 -23.589,-0.513Zm-89.741,-224.609c-3.589,-1.538 -7.692,-3.076 -10.769,-5.64c-3.077,-2.052 -4.102,-3.59 -6.666,-6.667c-3.077,-5.128 -3.59,-8.205 -3.59,-16.41c0,-7.179 0,-9.743 2.051,-13.845c4.616,-9.231 13.846,-14.872 26.153,-15.897c6.154,-0.513 15.385,1.538 19.487,3.589c4.615,2.564 9.743,7.692 12.307,12.82c1.026,2.565 2.564,9.231 2.564,13.333c0,3.077 -0.512,4.616 -2.051,11.282c0,1.539 -1.538,4.103 -4.102,7.179c-2.564,3.59 -7.692,7.18 -13.846,9.744c-3.077,1.025 -17.435,1.538 -21.538,0.512Z" style="fill:#fff;fill-rule:nonzero;"/></g></svg>