<?xml version="1.0" encoding="UTF-8" standalone="no"?><!DOCTYPE svg PUBLIC "-//W3C//DTD SVG 1.1//EN" "http://www.w3.org/Graphics/SVG/1.1/DTD/svg11.dtd"><svg width="100%" height="100%" viewBox="0 0 1500 1500" version="1.1" xmlns="http://www.w3.org/2000/svg" xmlns:xlink="http://www.w3.org/1999/xlink" xml:space="preserve" xmlns:serif="http://www.serif.com/" style="fill-rule:evenodd;clip-rule:evenodd;stroke-linejoin:round;stroke-miterlimit:2;"><g id="cinemark"><path id="border" d="M1500,375l0,750c0,206.968 -168.032,375 -375,375l-750,0c-206.968,0 -375,-168.032 -375,-375l0,-750c0,-206.968 168.032,-375 375,-375l750,0c206.968,0 375,168.032 375,375Zm-35.971,-0c-0,-187.115 -151.914,-339.029 -339.029,-339.029l-750,0c-187.115,0 -339.029,151.914 -339.029,339.029l0,750c0,187.115 151.914,339.029 339.029,339.029l750,-0c187.115,-0 339.029,-151.914 339.029,-339.029l-0,-750Z" style="fill:#fff;"/><path id="cinemark1" serif:id="cinemark" d="M1230.37,1065.48c0,0 -465.663,0.001 -466.166,0c-150.533,-0.285 -361.93,-151.797 -361.93,-396.676c-0,-224.61 191.566,-390.884 399.571,-390.884c164.573,-0 231.635,75.281 231.635,75.281l-92.654,205.577c-0,-0 -41.296,-63.7 -138.981,-63.7c-97.686,-0 -179.518,63.796 -179.518,176.622c0,112.826 83.905,173.726 141.877,173.726l466.166,0l0,220.054Zm26.399,136.59c-6.081,-0 -11.186,-4.655 -11.186,-11.031c0,-6.336 5.105,-10.954 11.186,-10.954c6,0 11.116,4.618 11.116,10.954c0,6.376 -5.116,11.031 -11.116,11.031Zm0,-20.182c-5.061,0 -8.98,3.957 -8.98,9.151c-0,5.316 3.919,9.191 8.98,9.191c4.947,0 8.885,-3.875 8.885,-9.191c0,-5.194 -3.938,-9.151 -8.885,-9.151Zm-2.349,10.012l-0,5.515l-1.925,0l0,-12.712l4.854,0c2.974,0 4.492,1.142 4.492,3.628c0,2.268 -1.448,3.258 -3.298,3.498l3.59,5.586l-2.164,0l-3.314,-5.515l-2.235,-0Zm-0,-5.534l-0,3.916l2.301,-0c1.615,-0 3.085,-0.115 3.085,-2.051c-0,-1.588 -1.415,-1.865 -2.767,-1.865l-2.619,-0Zm-343,-55.942l30.159,54.39l-22.431,0l-4.629,-8.922l-29.355,0l-3.886,8.922l-23.167,0l30.12,-54.39l23.189,-0Zm-21.649,35.734l20.119,0l-10.048,-20.835l-10.071,20.835Zm-425.81,-8.899l1.54,27.555l-23.185,0l0,-54.39l19.321,-0l17.769,14.899l15.464,13.41l-1.551,-28.309l23.178,-0l-0,54.39l-19.299,0l-17.792,-14.917l-15.445,-12.638Zm163.057,16.384l-0,11.171l-49.467,0l0,-54.39l48.698,-0l0,11.925l-25.501,-0l-0,8.94l23.174,-0l-0,11.91l-23.174,0l-0,10.444l26.27,-0Zm-246.533,-43.219l0,54.39l-22.409,0l-0,-54.39l22.409,-0Zm666.207,31.286c2.165,1.84 13.898,23.115 13.898,23.115l-22.421,0l-8.504,-15.667c-1.418,-2.139 -3.975,-4.496 -5.079,-5.179c-1.537,-0.828 -3.262,-1.227 -5.198,-1.227l-5.701,0l0,22.073l-22.793,0l-0,-54.42l35.354,0c6.546,0 11.559,0.429 15.021,1.308c3.483,0.901 6.269,2.542 8.371,4.965c2.161,2.442 3.221,5.36 3.221,8.844c0,3.029 -0.812,5.626 -2.449,7.806c-1.637,2.187 -3.883,3.957 -6.727,5.338c-0.381,0.178 -0.82,0.366 -1.297,0.547c-1.644,0.621 0.432,-0.732 4.304,2.497Zm-18.021,-9.232c0.942,-0.835 2.889,-2.168 2.823,-5.626c-0.052,-2.937 -1.677,-4.736 -3.118,-5.567c-1.463,-0.817 -3.007,-1.397 -6.868,-1.397l-7.821,0l0,14.378l7.456,0c0.96,0 5.474,0.03 7.528,-1.788Zm-747.491,69.596c-27.082,0 -49.063,-21.844 -49.063,-48.553c-0,-26.687 21.981,-48.332 49.063,-48.332c10.547,-0 20.293,3.288 28.276,8.885l-11.05,24.788c-4.181,-4.736 -10.34,-7.751 -17.226,-7.751c-12.564,0 -22.635,10.03 -22.635,22.41c0,12.383 7.733,21.726 20.304,21.726l409.235,-0l-0,-64.823l24.718,-0l35.553,37.264l36.304,-37.264l24.747,-0l0,64.823l379.496,-0l-57.187,-36.514l0,26.081l-22.42,0l-0,-55.17l22.42,0l0,24.622l30.105,-24.622l24.74,0l-28.59,23.872l105.852,68.558l-483.02,0l0.794,-49.174l-33.241,33.54l-32.465,-33.54l0.769,49.174l-434.315,0l-0.015,-0.018c-0.373,-0 -0.739,0.018 -1.149,0.018Z" style="fill:#fff;"/></g></svg>