<?xml version="1.0" encoding="UTF-8" standalone="no"?><!DOCTYPE svg PUBLIC "-//W3C//DTD SVG 1.1//EN" "http://www.w3.org/Graphics/SVG/1.1/DTD/svg11.dtd"><svg width="100%" height="100%" viewBox="0 0 1500 1500" version="1.1" xmlns="http://www.w3.org/2000/svg" xmlns:xlink="http://www.w3.org/1999/xlink" xml:space="preserve" xmlns:serif="http://www.serif.com/" style="fill-rule:evenodd;clip-rule:evenodd;stroke-linejoin:round;stroke-miterlimit:2;"><g id="hulu"><path id="border" d="M1500,375l0,750c0,206.968 -168.032,375 -375,375l-750,0c-206.968,0 -375,-168.032 -375,-375l0,-750c0,-206.968 168.032,-375 375,-375l750,0c206.968,0 375,168.032 375,375Zm-35.971,-0c-0,-187.115 -151.914,-339.029 -339.029,-339.029l-750,0c-187.115,0 -339.029,151.914 -339.029,339.029l0,750c0,187.115 151.914,339.029 339.029,339.029l750,-0c187.115,-0 339.029,-151.914 339.029,-339.029l-0,-750Z" style="fill:#fff;"/><path id="hulu1" serif:id="hulu" d="M855.845,904.924l74.727,-0l-0,-309.849l-74.727,0l-0,309.849Zm-131.656,-88.149c0,11.059 -8.959,20.017 -20.001,20.017l-43.463,0c-11.089,0 -20.032,-8.958 -20.032,-20.017l-0,-125.017l-74.71,0l-0,131.252c-0,53.643 34.316,81.913 85.062,81.913l73.143,-0l0,-0.391c46.738,-0 74.724,-33.252 74.724,-81.522l0,-131.252l-74.723,0l0,125.017Zm421.443,-125.017l-0,125.017c-0,11.059 -8.958,20.017 -20.001,20.017l-43.464,0c-11.074,0 -20.016,-8.958 -20.016,-20.017l-0,-125.017l-74.725,0l-0,131.252c-0,53.643 34.315,81.913 85.062,81.913l73.142,-0l-0,-0.391c46.738,-0 74.71,-33.252 74.71,-81.522l-0,-131.252l-74.708,0Zm-718.104,0l-47.912,0c-16.821,0 -25.248,4.535 -25.248,4.535l0,-101.218l-74.708,0l0,309.85l74.709,-0l0,-125.034c0,-11.058 8.959,-20.017 20.016,-20.017l43.479,0c11.057,0 20.001,8.959 20.001,20.017l0,125.034l74.725,-0l0,-134.713c0,-56.652 -37.777,-78.454 -85.062,-78.454Z" style="fill:#fff;fill-rule:nonzero;"/></g></svg>