<?xml version="1.0" encoding="UTF-8" standalone="no"?><!DOCTYPE svg PUBLIC "-//W3C//DTD SVG 1.1//EN" "http://www.w3.org/Graphics/SVG/1.1/DTD/svg11.dtd"><svg width="100%" height="100%" viewBox="0 0 4309 489" version="1.1" xmlns="http://www.w3.org/2000/svg" xmlns:xlink="http://www.w3.org/1999/xlink" xml:space="preserve" xmlns:serif="http://www.serif.com/" style="fill-rule:evenodd;clip-rule:evenodd;stroke-linejoin:round;stroke-miterlimit:2;"><path d="M2866.1,13.278c1.992,1.985 2.835,2.36 3.75,5.135c0.328,1.018 0.328,2.115 0.492,3.174c-0,94.101 0.164,188.203 -0,282.305c-0.164,35.343 -9.844,70.554 -29.742,100.143c-28.102,41.806 -75.563,69.075 -125.321,79.128c-71.25,14.393 -150.047,1.27 -204.633,-47.52c-36.375,-32.526 -56.507,-80.876 -56.718,-131.751l-0,-282.305l0.492,-3.174c0.492,-0.956 0.82,-1.996 1.453,-2.864c1.289,-1.755 3.094,-3.061 5.156,-3.731c1.008,-0.33 2.11,-0.335 3.164,-0.501l87.516,-0c2.109,0.335 4.312,0.707 6.023,1.961c1.758,1.275 3.071,3.073 3.727,5.135c0.351,1.018 0.351,2.115 0.516,3.174c-0,93.021 -0.235,186.042 -0,279.066c0.164,25.664 7.406,52.256 25.757,70.27c23.602,23.147 60,28.83 94.313,24.628c22.945,-2.813 45.398,-12.769 59.976,-30.68c14.461,-17.777 20.227,-41.749 20.274,-64.793l-0,-278.491c0.328,-2.128 0.703,-4.315 1.969,-6.038c1.265,-1.755 3.07,-3.061 5.132,-3.731c1.008,-0.33 2.11,-0.335 3.164,-0.501l87.516,-0l3.164,0.501c0.961,0.488 1.922,0.973 2.86,1.46Zm-685.899,-13.277c52.734,0.213 106.102,12.839 150.703,41.107c13.008,8.241 24.821,18.394 34.688,30.209c-0,-0 1.172,1.439 1.711,2.662c1.547,3.469 0.961,7.713 -1.36,10.608c-0.586,0.729 -1.359,1.287 -2.039,1.929l-66.679,47.78c-0.915,0.466 -1.758,1.075 -2.743,1.399c-2.953,0.986 -6.328,0.508 -8.882,-1.179c-2.836,-1.868 -4.571,-4.845 -6.868,-7.308c-15.937,-16.955 -38.086,-26.777 -61.382,-32.311c-64.993,-15.424 -139.196,8.925 -174.868,65.349c-18.093,28.603 -24.89,63.515 -22.406,97.535c2.508,34.047 15.024,67.734 38.508,92.791c18.117,19.338 42.094,32.956 67.594,39.902c20.273,5.529 41.554,7.158 62.461,5.822c37.734,-2.411 75.211,-18.204 98.789,-47.346l2.203,-2.02c2.765,-1.343 5.719,-2.21 8.578,-1.402c0.961,0.27 1.828,0.814 2.719,1.219l70.148,44.637c1.969,1.683 2.719,1.973 3.844,4.399c1.828,4.036 1.078,8.07 -3.797,13.46c-30.117,33.295 -70.242,57.291 -113.836,69.021c-26.367,7.095 -53.766,9.94 -81,10.01c-84.609,0.214 -171.234,-29.332 -225.07,-98.613c-25.125,-32.367 -41.297,-71.524 -46.571,-112.198c-6.468,-49.814 0.633,-101.268 24.539,-145.853c21.047,-39.244 54.024,-71.665 92.954,-93.425c46.921,-26.226 101.062,-37.875 155.461,-38.182c0.867,-0.002 1.734,-0.004 2.601,-0.002Zm-1108.54,125.946c-12.963,-15.928 -29.864,-27.558 -50.7,-34.891c-20.836,-7.336 -41.208,-11.002 -61.118,-11.002c-25.467,0 -48.618,4.191 -69.452,12.572c-20.836,8.384 -38.78,19.908 -53.827,34.577c-15.049,14.67 -26.625,31.854 -34.727,51.551c-8.102,19.699 -12.155,41.074 -12.155,64.125c0,24.309 3.938,46.524 11.808,66.64c7.87,20.119 19.099,37.406 33.685,51.865c14.585,14.461 32.064,25.671 52.436,33.635c20.374,7.964 43.294,11.944 68.759,11.944c26.393,-0 49.774,-4.714 70.148,-14.145c20.372,-9.429 36.809,-21.897 49.308,-37.406l70.149,44.637c-21.75,24.726 -48.375,43.9 -79.868,57.522c-31.486,13.622 -68.297,20.433 -110.431,20.433c-38.43,0 -73.737,-5.763 -105.916,-17.29c-32.18,-11.524 -59.846,-27.661 -82.997,-48.408c-23.149,-20.744 -41.208,-45.473 -54.174,-74.182c-12.963,-28.711 -19.446,-60.457 -19.446,-95.245c0,-35.625 6.83,-67.791 20.489,-96.501c13.66,-28.709 32.412,-53.122 56.257,-73.24c23.846,-20.117 51.973,-35.625 84.385,-46.521c32.411,-10.899 67.601,-16.346 105.569,-16.346c15.743,0 32.18,1.362 49.31,4.085c17.133,2.726 33.57,6.917 49.313,12.575c15.743,5.657 30.555,12.677 44.454,21.061c13.898,8.381 25.687,18.44 35.414,30.175l-66.673,47.78Zm2943.41,351.012l-87.516,-0c-2.132,-0.338 -4.312,-0.71 -6.046,-1.962c-1.735,-1.275 -3.047,-3.073 -3.727,-5.135c-0.328,-1.02 -0.328,-2.116 -0.492,-3.174l-0,-445.101c0.164,-1.059 0.164,-2.156 0.492,-3.174c1.031,-3.112 3.586,-5.613 6.609,-6.595c1.008,-0.33 2.11,-0.335 3.164,-0.501c57.141,-0 114.282,-0.04 171.422,-0c47.696,0.098 96.539,7.455 135.493,33.147c19.945,13.144 36.585,31.442 46.078,53.958c6.117,14.522 8.906,30.34 9.351,46.144c0.938,34.432 -10.312,69.258 -36.258,93.813c-19.289,18.265 -43.687,30.258 -69.539,37.411l-0.234,0.066l123.117,185.144l1.336,2.862c0.399,3.18 0.188,6.541 -1.687,9.009c-1.289,1.7 -3.047,2.958 -5.086,3.603c-0.985,0.318 -2.063,0.323 -3.118,0.485l-105.562,-0c-2.648,-0.345 -5.273,-1.071 -7.148,-2.902c-0.633,-0.611 -1.102,-1.373 -1.641,-2.06l-110.906,-183.64l-47.836,0l-0,178.331c-0.164,1.058 -0.164,2.154 -0.492,3.174c-1.008,3.11 -3.586,5.611 -6.61,6.593c-1.008,0.333 -2.109,0.335 -3.164,0.504Zm-733.43,-0l-296.554,-0c-1.055,-0.169 -2.157,-0.171 -3.188,-0.504c-3.094,-1.01 -5.601,-3.57 -6.586,-6.593c-0.328,-1.02 -0.328,-2.116 -0.492,-3.174l0,-445.101c0.328,-2.128 0.703,-4.315 1.945,-6.038c1.289,-1.755 3.071,-3.061 5.133,-3.731c1.031,-0.33 2.133,-0.335 3.188,-0.501l87.515,-0c1.055,0.166 2.11,0.335 3.164,0.501c0.961,0.488 1.993,0.83 2.86,1.46c1.758,1.275 3.07,3.073 3.726,5.135c0.352,1.018 0.352,2.115 0.516,3.174l-0,364.418l198.773,-0l3.188,0.504c0.937,0.485 1.992,0.827 2.859,1.458c1.758,1.275 3.047,3.072 3.727,5.135c0.328,1.019 0.328,2.116 0.515,3.173l0,70.413c-0.187,1.058 -0.187,2.154 -0.515,3.174c-1.008,3.11 -3.563,5.611 -6.586,6.593c-1.031,0.333 -2.133,0.335 -3.188,0.504Zm-1846.05,-0l-87.516,-0c-1.055,-0.169 -2.156,-0.171 -3.164,-0.504c-3.117,-1.01 -5.602,-3.57 -6.586,-6.593c-0.351,-1.02 -0.351,-2.116 -0.516,-3.174l0,-365.676l-140.437,-0l-3.164,-0.504c-0.961,-0.485 -2.016,-0.827 -2.883,-1.458c-1.734,-1.275 -3.047,-3.072 -3.726,-5.135c-0.329,-1.019 -0.329,-2.116 -0.493,-3.173l0,-69.155c0.164,-1.059 0.164,-2.156 0.493,-3.174c1.007,-3.112 3.585,-5.613 6.609,-6.595c1.008,-0.33 2.109,-0.335 3.164,-0.501l388.922,-0c1.078,0.166 2.133,0.335 3.187,0.501c0.961,0.488 1.993,0.83 2.86,1.46c1.758,1.275 3.07,3.073 3.726,5.135c0.328,1.018 0.352,2.115 0.516,3.174l-0,69.155c-0.352,2.128 -0.727,4.312 -1.969,6.035c-1.265,1.755 -3.07,3.061 -5.133,3.731c-1.007,0.333 -2.109,0.335 -3.187,0.504l-140.438,-0l0,365.676l-0.492,3.174c-0.492,0.954 -0.844,1.997 -1.453,2.862c-1.289,1.755 -3.07,3.061 -5.133,3.731c-1.031,0.333 -2.133,0.335 -3.187,0.504Zm1991.23,-0l-97.945,-0c-2.555,-0.373 -3.352,-0.206 -5.602,-1.662c-3.257,-2.123 -5.156,-6.326 -4.523,-10.242c0.141,-0.97 0.586,-1.877 0.867,-2.817l213.914,-445.1c1.641,-2.451 3.656,-4.626 6.422,-5.421c0.914,-0.264 1.899,-0.267 2.836,-0.4l75.703,-0c0.961,0.133 1.899,0.269 2.86,0.403c0.89,0.393 1.828,0.67 2.625,1.183c2.203,1.39 2.414,2.161 3.796,4.271l211.829,445.099c1.476,4.776 0.539,10.289 -3.68,13.029c-2.227,1.451 -3.024,1.286 -5.578,1.657l-100.032,-0c-2.976,-0.431 -5.882,-1.355 -7.781,-3.577c-0.633,-0.743 -1.054,-1.652 -1.57,-2.479l-43.125,-95.79l-199.852,0l-41.765,95.684c-1.594,2.583 -3.633,4.887 -6.469,5.733c-0.961,0.283 -1.969,0.286 -2.93,0.429Zm-1647.42,-0l-87.515,-0c-1.055,-0.169 -2.156,-0.171 -3.188,-0.504c-3.093,-1.01 -5.601,-3.57 -6.586,-6.593c-0.328,-1.02 -0.328,-2.116 -0.492,-3.174l0,-445.101c0.328,-2.128 0.703,-4.315 1.945,-6.038c1.29,-1.755 3.071,-3.061 5.133,-3.731c1.032,-0.33 2.133,-0.335 3.188,-0.501l87.515,-0c1.055,0.166 2.11,0.335 3.164,0.501c0.961,0.488 1.993,0.83 2.86,1.46c1.758,1.275 3.07,3.073 3.726,5.135c0.352,1.018 0.352,2.115 0.516,3.174l0,445.101c-0.164,1.058 -0.164,2.154 -0.516,3.174c-1.007,3.11 -3.562,5.611 -6.586,6.593c-1.031,0.333 -2.109,0.335 -3.164,0.504Zm401.039,-407.173c41.461,0.3 83.977,13.125 112.172,42.22l0.188,0.197l49.781,-35.669c-0.351,-0.349 -0.703,-0.694 -1.055,-1.038c-12.023,-11.754 -26.484,-20.712 -41.625,-28.175c-52.101,-25.678 -112.968,-31.465 -169.757,-23.409c-76.336,10.83 -149.579,50.599 -185.766,123.047c-20.859,41.756 -25.875,90.494 -18.047,136.608c9.867,58.125 45.211,110.882 95.977,143.067c54.164,34.329 121.593,45.67 185.367,39.616c52.64,-4.997 104.414,-26.172 141.961,-64.167l-52.242,-33.253c-25.079,26.901 -60.586,42.879 -97.547,47.093c-35.157,4.001 -71.367,0.054 -104.321,-14.665c-42.117,-18.804 -74.859,-55.941 -88.429,-100.793c-16.313,-53.878 -8.883,-115.343 24.468,-160.622c33.024,-44.855 89.415,-69.684 146.625,-70.057c0.75,-0.005 1.5,-0.005 2.25,0Zm360.985,-37.929l-66.961,0c-0,90.659 -0.141,181.315 -0,271.974c0.211,46.275 18.937,92.432 57.375,122.772c37.031,29.229 85.5,41.541 132.844,41.119c45.187,-0.405 91.195,-12.337 127.031,-40.765c36.539,-28.973 58.008,-74.426 58.101,-123.733l0,-271.367l-66.984,0l0,268.242c-0.07,33.01 -10.383,66.514 -35.297,88.634c-27.726,24.64 -67.875,31.643 -105.961,27.424c-29.109,-3.227 -57.867,-16.036 -76.523,-39.926c-16.547,-21.182 -23.555,-48.942 -23.625,-76.129l-0,-268.245Zm-2453.91,434.831l-87.509,0l-0,-445.101l160.434,-0c28.245,-0 53.712,2.304 76.4,6.914c22.687,4.61 42.133,12.155 58.34,22.634c16.205,10.476 28.706,23.889 37.505,40.235c8.796,16.345 13.195,36.044 13.195,59.095c0,24.727 -5.093,45.473 -15.279,62.238c-10.186,16.765 -23.962,30.282 -41.325,40.55c-17.362,10.268 -37.619,17.707 -60.771,22.317c-23.151,4.61 -47.69,6.916 -73.619,6.916l-67.371,0l-0,184.202Zm472.279,0l-87.508,0l-0,-445.101l87.508,-0l0,445.101Zm3538.63,-434.831l-160.594,0l0,424.559l66.984,-0l0,-178.331l0.493,-3.174c0.492,-0.954 0.843,-1.997 1.453,-2.862c1.289,-1.755 3.094,-3.061 5.133,-3.731c1.031,-0.333 2.132,-0.335 3.187,-0.504l63.891,0c2.672,0.345 5.273,1.071 7.148,2.902c0.633,0.612 1.102,1.373 1.641,2.06l110.906,183.64l80.625,-0l-120.656,-181.444c-1.102,-2.262 -1.641,-2.812 -1.711,-5.395c-0.117,-3.767 2.086,-7.606 5.484,-9.389c1.852,-0.966 3.867,-1.2 5.789,-1.622c31.43,-6.968 62.25,-21.089 81.844,-46.669c14.789,-19.343 20.344,-44.852 19.242,-69.262c-0.89,-19.367 -6.328,-38.318 -18.187,-54.521c-22.407,-30.647 -62.063,-45.933 -98.766,-51.949c-17.812,-2.923 -35.859,-4.308 -53.906,-4.308Zm-1036.1,0l-66.961,0l0,424.559l276.024,-0l-0,-49.868l-198.774,-0c-1.054,-0.169 -2.156,-0.174 -3.187,-0.504c-3.094,-1.01 -5.602,-3.572 -6.586,-6.593c-0.328,-1.02 -0.328,-2.116 -0.516,-3.176l0,-364.418Zm-1293.21,0l-66.961,0l0,424.559l66.961,-0l0,-424.559Zm-193.078,0l-368.39,0l-0,48.612l140.437,-0c1.055,0.169 2.156,0.173 3.188,0.504c3.093,1.01 5.601,3.572 6.586,6.593c0.328,1.019 0.328,2.116 0.515,3.176l0,365.674l66.961,-0l0,-365.674c0.164,-1.06 0.164,-2.157 0.492,-3.176c1.032,-3.11 3.586,-5.611 6.61,-6.593c1.007,-0.331 2.109,-0.335 3.164,-0.504l140.437,-0l0,-48.612Zm2035.99,0l-62.765,0l-204.047,424.559l74.883,-0l41.765,-95.681l1.547,-2.52c0.75,-0.656 1.406,-1.425 2.227,-1.966c2.25,-1.47 3.047,-1.301 5.625,-1.678l213.234,-0c2.977,0.431 5.86,1.354 7.781,3.578c0.633,0.741 1.055,1.653 1.571,2.478l43.125,95.789l77.109,-0l-202.055,-424.559Zm41.907,275.36l-152.813,0c-2.508,-0.356 -3.281,-0.196 -5.484,-1.591c-3.305,-2.091 -5.156,-6.127 -4.711,-9.916c0.117,-0.954 0.515,-1.859 0.75,-2.787l77.086,-181.06c1.617,-2.629 3.656,-4.966 6.515,-5.819c1.922,-0.567 3.961,-0.279 5.954,0.019c2.367,1.125 3.187,1.202 4.921,3.295c0.633,0.771 1.032,1.711 1.547,2.566l75.703,181.06c0.633,2.44 1.079,3.094 0.657,5.658c-0.633,3.743 -3.563,7.099 -7.289,8.172c-0.914,0.265 -1.899,0.267 -2.836,0.403Zm-137.274,-20.543l121.828,0l-60.351,-144.368c-20.485,48.125 -40.992,96.247 -61.477,144.368Zm569.953,-63.07l-71.531,0c-2.133,-0.337 -4.312,-0.71 -6.047,-1.962c-1.734,-1.275 -3.047,-3.072 -3.726,-5.137c-0.328,-1.017 -0.328,-2.114 -0.493,-3.174l0,-125.104c0.165,-1.06 0.165,-2.156 0.493,-3.176c1.007,-3.11 3.562,-5.611 6.586,-6.593c1.031,-0.33 2.132,-0.335 3.187,-0.504c26.578,0 53.156,-0.03 79.711,0.002c30,0.101 61.102,3.605 84.164,21.99c3.469,2.765 6.68,5.84 9.609,9.18c13.102,14.998 16.547,36.804 12.094,56.585c-4.922,21.963 -23.39,39.328 -44.859,47.686c-21.774,8.473 -45.914,10.186 -69.188,10.207Zm-3935.2,-135.377l-63.897,-0l-0,127.619l61.12,0c14.353,0 28.012,-0.942 40.976,-2.829c12.965,-1.886 24.541,-5.238 34.727,-10.059c10.186,-4.819 18.288,-11.421 24.309,-19.802c6.019,-8.382 9.029,-19.28 9.029,-32.691c-0,-12.994 -3.01,-23.576 -9.029,-31.748c-6.021,-8.173 -14.006,-14.564 -23.962,-19.175c-9.954,-4.61 -21.298,-7.65 -34.031,-9.117c-12.734,-1.465 -25.812,-2.198 -39.242,-2.198Zm3873.93,10.27l-0,104.564c34.945,0 70.359,2.759 103.804,-3.44c19.032,-3.528 38.602,-11.393 47.813,-28.451c4.5,-8.328 5.508,-18.249 4.758,-27.286c-0.633,-7.77 -3.399,-15.3 -8.766,-21.392c-12.562,-14.292 -33.023,-20.135 -51.586,-22.343c-8.836,-1.05 -17.719,-1.621 -26.625,-1.652c-23.133,-0.028 -46.265,0 -69.398,0Z" style="fill:#fff;"/></svg>